<?xml version="1.0" encoding="UTF-8"?>
<!DOCTYPE svg PUBLIC "-//W3C//DTD SVG 1.1//EN" "http://www.w3.org/Graphics/SVG/1.1/DTD/svg11.dtd">
<svg xmlns="http://www.w3.org/2000/svg" version="1.1" width="1382px" height="323px" style="shape-rendering:geometricPrecision; text-rendering:geometricPrecision; image-rendering:optimizeQuality; fill-rule:evenodd; clip-rule:evenodd" xmlns:xlink="http://www.w3.org/1999/xlink">
<g><path style="opacity:1" fill="#ef302a" d="M 170.5,20.5 C 170.389,21.1174 170.056,21.6174 169.5,22C 163.251,22.8087 157.084,22.642 151,21.5C 148.787,22.7595 146.287,23.4262 143.5,23.5C 140.975,23.4966 138.641,23.1633 136.5,22.5C 147.742,19.8408 159.076,19.1741 170.5,20.5 Z"/></g>
<g><path style="opacity:1" fill="#f80302" d="M 170.5,20.5 C 181.371,20.8744 192.038,22.5411 202.5,25.5C 201.737,26.2679 200.737,26.7679 199.5,27C 205.146,29.9941 211.146,31.4941 217.5,31.5C 218.167,31.5 218.5,31.8333 218.5,32.5C 217.448,32.3505 216.448,32.5172 215.5,33C 221.87,35.8489 228.203,38.8489 234.5,42C 236,42.8333 237.167,44 238,45.5C 238.278,44.5842 238.778,43.9175 239.5,43.5C 240.167,43.5 240.5,43.8333 240.5,44.5C 239.475,44.8966 239.308,45.5632 240,46.5C 242.774,48.1395 245.274,50.1395 247.5,52.5C 246.833,53.1667 246.167,53.8333 245.5,54.5C 248.993,55.4419 252.326,56.7752 255.5,58.5C 258.575,61.9147 261.908,64.9147 265.5,67.5C 266.574,69.2793 267.907,70.946 269.5,72.5C 240.003,73.1667 210.669,73.8333 181.5,74.5C 180.662,74.8417 180.328,75.5084 180.5,76.5C 150.946,80.6115 125.28,92.7782 103.5,113C 76.3556,140.429 56.689,172.596 44.5,209.5C 43.5,209.5 42.5,209.5 41.5,209.5C 41.0254,212.082 41.6921,214.082 43.5,215.5C 43.3285,217.492 43.9951,219.158 45.5,220.5C 42.6155,221.254 40.6155,222.92 39.5,225.5C 38.5084,225.328 37.8417,225.662 37.5,226.5C 36.8333,226.5 36.5,226.167 36.5,225.5C 38.7361,223.986 38.4028,222.486 35.5,221C 35.8333,220.667 36.1667,220.333 36.5,220C 34.0556,214.268 31.7223,208.435 29.5,202.5C 28.675,201.614 27.675,201.281 26.5,201.5C 25.0712,198.692 24.4045,195.692 24.5,192.5C 25.1638,190.19 25.4971,187.69 25.5,185C 24.0412,170.073 23.0412,155.24 22.5,140.5C 22.5,138.833 22.5,137.167 22.5,135.5C 23.5,135.5 24.5,135.5 25.5,135.5C 29.4307,116.193 36.7641,98.3598 47.5,82C 47.4301,81.2352 47.0967,80.7352 46.5,80.5C 46.5,80.1667 46.5,79.8333 46.5,79.5C 47.8734,79.6567 49.2068,79.49 50.5,79C 55.6894,72.9782 60.6894,66.8115 65.5,60.5C 69.5949,58.2405 73.2616,55.4072 76.5,52C 77.8333,51.6667 79.1667,51.3333 80.5,51C 79.3463,50.0862 79.513,49.2529 81,48.5C 82.073,49.2797 83.2396,49.113 84.5,48C 84.1667,47.6667 83.8333,47.3333 83.5,47C 84.3567,46.3109 85.0233,45.4776 85.5,44.5C 88.9659,42.9332 92.2992,41.0998 95.5,39C 94.552,38.5172 93.552,38.3505 92.5,38.5C 100.811,33.1824 109.811,29.1824 119.5,26.5C 124.412,27.9888 129.079,27.3221 133.5,24.5C 133.137,23.8165 132.804,23.1499 132.5,22.5C 133.833,22.5 135.167,22.5 136.5,22.5C 138.641,23.1633 140.975,23.4966 143.5,23.5C 146.287,23.4262 148.787,22.7595 151,21.5C 157.084,22.642 163.251,22.8087 169.5,22C 170.056,21.6174 170.389,21.1174 170.5,20.5 Z"/></g>
<g><path style="opacity:1" fill="#ec3a32" d="M 132.5,22.5 C 132.804,23.1499 133.137,23.8165 133.5,24.5C 129.079,27.3221 124.412,27.9888 119.5,26.5C 123.671,24.9239 128.004,23.5905 132.5,22.5 Z"/></g>
<g><path style="opacity:1" fill="#eb3f33" d="M 202.5,25.5 C 207.73,27.1277 212.73,29.1277 217.5,31.5C 211.146,31.4941 205.146,29.9941 199.5,27C 200.737,26.7679 201.737,26.2679 202.5,25.5 Z"/></g>
<g><path style="opacity:1" fill="#0a0a0a" d="M 384.5,32.5 C 396.971,31.4122 408.971,33.2455 420.5,38C 422.769,38.7581 424.936,38.5914 427,37.5C 427.87,38.1079 428.37,38.9412 428.5,40C 426.25,46.6677 423.083,52.8343 419,58.5C 417.283,57.0118 416.116,55.1785 415.5,53C 402.208,45.3197 388.874,44.9864 375.5,52C 371.072,55.0925 368.239,59.2591 367,64.5C 364.16,85.0062 373.16,96.0062 394,97.5C 401.092,97.1569 407.925,95.6569 414.5,93C 415.451,89.9433 415.784,86.7766 415.5,83.5C 409.158,83.3338 402.825,83.5005 396.5,84C 395.924,86.2677 394.59,87.2677 392.5,87C 391.522,80.5898 391.189,74.0898 391.5,67.5C 392.833,67.5 394.167,67.5 395.5,67.5C 395.33,68.8221 395.663,69.9887 396.5,71C 409.655,71.0186 422.655,71.6852 435.5,73C 434.646,74.0217 433.646,74.8551 432.5,75.5C 431.336,82.1418 431.169,88.8085 432,95.5C 433.885,96.3133 434.551,97.6467 434,99.5C 412.506,112.815 390.006,114.982 366.5,106C 350.956,96.0657 344.789,81.8991 348,63.5C 353.628,45.3655 365.795,35.0322 384.5,32.5 Z"/></g>
<g><path style="opacity:1" fill="#060606" d="M 1130.5,32.5 C 1142.98,31.4019 1154.98,33.2352 1166.5,38C 1168.9,38.711 1171.23,38.5443 1173.5,37.5C 1174.72,37.8869 1175.39,38.7202 1175.5,40C 1172.43,46.4135 1169.1,52.5802 1165.5,58.5C 1163.69,54.525 1160.69,51.6917 1156.5,50C 1143.94,44.8506 1131.94,45.8506 1120.5,53C 1113.15,60.3922 1110.65,69.2255 1113,79.5C 1118.17,91.7617 1127.5,97.7617 1141,97.5C 1148.17,97.1653 1155.01,95.4986 1161.5,92.5C 1162.48,89.5719 1162.82,86.5719 1162.5,83.5C 1155.83,83.3337 1149.16,83.5004 1142.5,84C 1141.92,86.2677 1140.59,87.2677 1138.5,87C 1137.17,80.6667 1137.17,74.3333 1138.5,68C 1139,67.8333 1139.5,67.6667 1140,67.5C 1141.27,68.5353 1142.44,69.702 1143.5,71C 1156.16,71.4999 1168.83,71.6666 1181.5,71.5C 1181.34,73.8244 1180.17,75.4911 1178,76.5C 1177.17,82.8595 1177.34,89.1928 1178.5,95.5C 1182.36,97.1855 1182.36,99.0188 1178.5,101C 1162.58,109.85 1145.58,113.184 1127.5,111C 1101.73,104.291 1090.9,87.7907 1095,61.5C 1100.96,44.6068 1112.8,34.9402 1130.5,32.5 Z"/></g>
<g><path style="opacity:1" fill="#060606" d="M 1311.5,32.5 C 1325.95,31.2775 1339.62,33.9442 1352.5,40.5C 1354.07,39.6906 1355.74,39.3573 1357.5,39.5C 1355.15,46.5284 1351.99,53.1951 1348,59.5C 1341.04,50.7738 1331.88,46.4405 1320.5,46.5C 1316.12,47.1182 1311.79,47.9516 1307.5,49C 1302.24,52.8538 1302.24,56.5205 1307.5,60C 1315.41,61.6556 1323.41,62.6556 1331.5,63C 1343.84,63.562 1352.34,69.3953 1357,80.5C 1358.6,98.2541 1350.43,108.421 1332.5,111C 1317.74,113.144 1303.74,110.81 1290.5,104C 1288.48,103.86 1286.65,103.693 1285,103.5C 1284.33,102.167 1284.33,100.833 1285,99.5C 1287.31,94.2295 1289.81,89.0628 1292.5,84C 1293.17,83.3333 1293.83,83.3333 1294.5,84C 1295.3,87.604 1297.3,90.2707 1300.5,92C 1312.79,98.2556 1325.13,98.5889 1337.5,93C 1340.08,89.5954 1340.08,86.262 1337.5,83C 1325.14,81.0805 1312.81,79.0805 1300.5,77C 1287.63,70.3969 1283.79,60.2302 1289,46.5C 1294.44,38.372 1301.94,33.7054 1311.5,32.5 Z"/></g>
<g><path style="opacity:1" fill="#050505" d="M 482.5,33.5 C 492.506,33.3335 502.506,33.5002 512.5,34C 512.957,34.414 513.291,34.914 513.5,35.5C 512.249,36.6311 511.249,37.9644 510.5,39.5C 516.539,52.5764 523.372,65.243 531,77.5C 538.105,64.9559 544.938,52.2892 551.5,39.5C 550.751,37.9644 549.751,36.6311 548.5,35.5C 548.709,34.914 549.043,34.414 549.5,34C 559.494,33.5002 569.494,33.3335 579.5,33.5C 579.394,36.1085 578.228,38.1085 576,39.5C 575.333,61.1667 575.333,82.8333 576,104.5C 578.228,105.892 579.394,107.892 579.5,110.5C 570.833,110.5 562.167,110.5 553.5,110.5C 553.277,107.886 554.444,106.219 557,105.5C 557.667,91.1667 557.667,76.8333 557,62.5C 548.094,77.3044 539.428,92.3044 531,107.5C 530.439,108.022 529.772,108.355 529,108.5C 519.585,93.3442 510.918,77.6775 503,61.5C 502.333,76.1667 502.333,90.8333 503,105.5C 505.768,106.208 506.601,107.708 505.5,110C 501.667,110.167 497.833,110.333 494,110.5C 489.656,110.638 485.489,110.138 481.5,109C 482.333,107.5 483.5,106.333 485,105.5C 485.667,83.1667 485.667,60.8333 485,38.5C 482.434,37.3787 481.6,35.7121 482.5,33.5 Z"/></g>
<g><path style="opacity:1" fill="#080808" d="M 656.5,33.5 C 666.833,33.5 677.167,33.5 687.5,33.5C 687.607,35.9032 686.607,37.7365 684.5,39C 691.461,51.754 698.294,64.5873 705,77.5C 712.674,64.8214 719.841,51.8214 726.5,38.5C 724.244,37.5791 723.244,35.9124 723.5,33.5C 733.998,33.0259 744.331,33.5259 754.5,35C 753.667,36.5 752.5,37.6667 751,38.5C 750.5,61.1642 750.333,83.8309 750.5,106.5C 753.694,106.176 754.694,107.342 753.5,110C 745.173,110.5 736.84,110.666 728.5,110.5C 729.107,107.924 730.274,105.591 732,103.5C 732.667,89.1667 732.667,74.8333 732,60.5C 723.159,76.8566 713.826,92.8566 704,108.5C 694.011,93.2019 685.011,77.2019 677,60.5C 676.333,75.5 676.333,90.5 677,105.5C 679.556,106.219 680.723,107.886 680.5,110.5C 672.5,110.5 664.5,110.5 656.5,110.5C 656.277,107.886 657.444,106.219 660,105.5C 660.667,83.1667 660.667,60.8333 660,38.5C 658.989,37.6634 657.822,37.33 656.5,37.5C 656.5,36.1667 656.5,34.8333 656.5,33.5 Z"/></g>
<g><path style="opacity:1" fill="#040404" d="M 791.5,33.5 C 801.167,33.5 810.833,33.5 820.5,33.5C 820.16,35.9912 819.16,38.1579 817.5,40C 826.947,61.3969 837.113,82.5636 848,103.5C 849.378,105.213 851.045,106.547 853,107.5C 853.483,108.448 853.649,109.448 853.5,110.5C 843.5,110.5 833.5,110.5 823.5,110.5C 823.167,107.5 824.5,106.167 827.5,106.5C 827.66,104.801 827.494,103.134 827,101.5C 824.816,98.4799 823.316,95.1466 822.5,91.5C 811.147,91.1678 799.814,91.5012 788.5,92.5C 785.881,95.9064 784.214,99.7397 783.5,104C 785.16,105.842 786.16,108.009 786.5,110.5C 777.5,110.5 768.5,110.5 759.5,110.5C 759.406,107.459 760.906,105.793 764,105.5C 774.857,83.9548 785.024,62.1215 794.5,40C 792.84,38.1579 791.84,35.9912 791.5,33.5 Z M 804.5,55.5 C 808.853,63.038 812.853,70.8713 816.5,79C 809.144,79.8313 801.811,79.6646 794.5,78.5C 798.239,70.9279 801.573,63.2612 804.5,55.5 Z"/></g>
<g><path style="opacity:1" fill="#030303" d="M 859.5,33.5 C 868.5,33.5 877.5,33.5 886.5,33.5C 885.939,35.908 885.439,38.2413 885,40.5C 898.333,54.5 911.667,68.5 925,82.5C 925.667,67.8333 925.667,53.1667 925,38.5C 922.444,37.7809 921.277,36.1142 921.5,33.5C 929.5,33.5 937.5,33.5 945.5,33.5C 945.725,35.7159 944.892,37.3826 943,38.5C 942.333,60.8333 942.333,83.1667 943,105.5C 944.892,106.617 945.725,108.284 945.5,110.5C 937.167,110.5 928.833,110.5 920.5,110.5C 920.383,108.516 921.05,106.85 922.5,105.5C 922,104.5 921.5,103.5 921,102.5C 906.603,88.7724 892.937,74.439 880,59.5C 879.333,74.5 879.333,89.5 880,104.5C 882.228,105.892 883.394,107.892 883.5,110.5C 875.5,110.5 867.5,110.5 859.5,110.5C 859.5,109.167 859.5,107.833 859.5,106.5C 860.5,106.5 861.5,106.5 862.5,106.5C 862.5,83.5 862.5,60.5 862.5,37.5C 861.5,37.5 860.5,37.5 859.5,37.5C 859.5,36.1667 859.5,34.8333 859.5,33.5 Z"/></g>
<g><path style="opacity:1" fill="#191919" d="M 958.5,33.5 C 966.84,33.3336 975.173,33.5003 983.5,34C 984.601,36.2924 983.768,37.7924 981,38.5C 980.5,61.1642 980.333,83.8309 980.5,106.5C 983.694,106.176 984.694,107.342 983.5,110C 975.5,110.667 967.5,110.667 959.5,110C 958.179,108.455 958.512,107.289 960.5,106.5C 961.833,83.5 961.833,60.5 960.5,37.5C 958.889,36.6798 958.222,35.3464 958.5,33.5 Z"/></g>
<g><path style="opacity:1" fill="#030303" d="M 996.5,33.5 C 1005.5,33.5 1014.5,33.5 1023.5,33.5C 1022.64,35.8155 1022.14,38.1489 1022,40.5C 1035.33,54.5 1048.67,68.5 1062,82.5C 1062.67,67.8333 1062.67,53.1667 1062,38.5C 1059.44,37.7809 1058.28,36.1142 1058.5,33.5C 1067,33.0328 1075.34,33.5328 1083.5,35C 1082.67,36.5 1081.5,37.6667 1080,38.5C 1079.33,60.8333 1079.33,83.1667 1080,105.5C 1081.5,106.333 1082.67,107.5 1083.5,109C 1075,110.469 1066.34,110.969 1057.5,110.5C 1057.38,108.516 1058.05,106.85 1059.5,105.5C 1059,104.5 1058.5,103.5 1058,102.5C 1043.97,88.8046 1030.3,74.8046 1017,60.5C 1016.33,75.5 1016.33,90.5 1017,105.5C 1019.77,106.208 1020.6,107.708 1019.5,110C 1011.84,110.5 1004.17,110.666 996.5,110.5C 996.5,109.167 996.5,107.833 996.5,106.5C 997.5,106.5 998.5,106.5 999.5,106.5C 999.5,83.5 999.5,60.5 999.5,37.5C 998.5,37.5 997.5,37.5 996.5,37.5C 996.5,36.1667 996.5,34.8333 996.5,33.5 Z"/></g>
<g><path style="opacity:1" fill="#060606" d="M 1218.5,33.5 C 1228.08,33.1816 1237.58,33.5149 1247,34.5C 1247.67,35.1667 1247.67,35.8333 1247,36.5C 1243.14,37.8904 1242.47,40.2237 1245,43.5C 1254.68,63.2368 1264.35,82.9035 1274,102.5C 1275.53,105.266 1277.7,107.266 1280.5,108.5C 1280.29,109.086 1279.96,109.586 1279.5,110C 1269.84,110.5 1260.17,110.666 1250.5,110.5C 1250.35,109.448 1250.52,108.448 1251,107.5C 1252.76,106.881 1253.92,105.714 1254.5,104C 1252.76,99.8606 1250.76,95.8606 1248.5,92C 1237.17,91.5001 1225.84,91.3335 1214.5,91.5C 1213.13,95.9124 1211.46,100.246 1209.5,104.5C 1210.35,105.845 1211.51,106.845 1213,107.5C 1213.48,108.448 1213.65,109.448 1213.5,110.5C 1204.5,110.5 1195.5,110.5 1186.5,110.5C 1186.35,109.448 1186.52,108.448 1187,107.5C 1189.13,106.745 1190.8,105.412 1192,103.5C 1201.87,82.4334 1211.7,61.4334 1221.5,40.5C 1220.02,38.361 1219.02,36.0277 1218.5,33.5 Z M 1231.5,55.5 C 1235.34,63.3504 1239.34,71.1837 1243.5,79C 1235.83,79.6667 1228.17,79.6667 1220.5,79C 1224.84,71.4923 1228.5,63.6589 1231.5,55.5 Z"/></g>
<g><path style="opacity:1" fill="#e8382a" d="M 218.5,32.5 C 226.254,34.8756 233.254,38.5423 239.5,43.5C 238.778,43.9175 238.278,44.5842 238,45.5C 237.167,44 236,42.8333 234.5,42C 228.203,38.8489 221.87,35.8489 215.5,33C 216.448,32.5172 217.448,32.3505 218.5,32.5 Z"/></g>
<g><path style="opacity:1" fill="#eb2923" d="M 92.5,38.5 C 93.552,38.3505 94.552,38.5172 95.5,39C 92.2992,41.0998 88.9659,42.9332 85.5,44.5C 85.0233,45.4776 84.3567,46.3109 83.5,47C 83.8333,47.3333 84.1667,47.6667 84.5,48C 83.2396,49.113 82.073,49.2797 81,48.5C 79.513,49.2529 79.3463,50.0862 80.5,51C 79.1667,51.3333 77.8333,51.6667 76.5,52C 73.2616,55.4072 69.5949,58.2405 65.5,60.5C 60.6894,66.8115 55.6894,72.9782 50.5,79C 49.2068,79.49 47.8734,79.6567 46.5,79.5C 58.7496,62.2436 74.0829,48.5769 92.5,38.5 Z"/></g>
<g><path style="opacity:1" fill="#ea2624" d="M 240.5,44.5 C 249.768,50.313 258.101,57.313 265.5,65.5C 265.5,66.1667 265.5,66.8333 265.5,67.5C 261.908,64.9147 258.575,61.9147 255.5,58.5C 252.326,56.7752 248.993,55.4419 245.5,54.5C 246.167,53.8333 246.833,53.1667 247.5,52.5C 245.274,50.1395 242.774,48.1395 240,46.5C 239.308,45.5632 239.475,44.8966 240.5,44.5 Z"/></g>
<g><path style="opacity:1" fill="#b82c29" d="M 265.5,65.5 C 267.65,67.7596 269.817,70.0929 272,72.5C 272.483,73.448 272.649,74.448 272.5,75.5C 270.5,75.5 268.5,75.5 266.5,75.5C 238.338,74.502 210.005,74.1687 181.5,74.5C 210.669,73.8333 240.003,73.1667 269.5,72.5C 267.907,70.946 266.574,69.2793 265.5,67.5C 265.5,66.8333 265.5,66.1667 265.5,65.5 Z"/></g>
<g><path style="opacity:1" fill="#dc1f1d" d="M 181.5,74.5 C 210.005,74.1687 238.338,74.502 266.5,75.5C 237.789,75.1831 209.123,75.5164 180.5,76.5C 180.328,75.5084 180.662,74.8417 181.5,74.5 Z"/></g>
<g><path style="opacity:1" fill="#0a0a0a" d="M 456.5,91.5 C 463.458,91.6246 467.458,95.1246 468.5,102C 466.483,110.023 461.483,113.023 453.5,111C 446.171,103.13 447.171,96.6303 456.5,91.5 Z"/></g>
<g><path style="opacity:1" fill="#0b0b0b" d="M 602.5,91.5 C 612.586,93.4883 615.419,99.155 611,108.5C 604.281,113.203 598.615,112.203 594,105.5C 592.582,98.1126 595.415,93.4459 602.5,91.5 Z"/></g>
<g><path style="opacity:1" fill="#e6322e" d="M 293.5,109.5 C 292.778,109.918 292.278,110.584 292,111.5C 289.929,106.124 287.095,101.291 283.5,97C 254.833,96.3333 226.167,96.3333 197.5,97C 187.145,99.084 177.312,102.584 168,107.5C 167.5,107.333 167,107.167 166.5,107C 167.942,106.623 168.942,105.79 169.5,104.5C 178.691,99.0897 188.691,95.5897 199.5,94C 228.5,93.3333 257.5,93.3333 286.5,94C 288.976,99.1181 291.31,104.285 293.5,109.5 Z"/></g>
<g><path style="opacity:1" fill="#ee3b31" d="M 165.5,106.5 C 165.703,108.39 165.037,109.89 163.5,111C 157.41,114.796 151.577,118.963 146,123.5C 145.235,123.43 144.735,123.097 144.5,122.5C 150.358,115.639 157.358,110.306 165.5,106.5 Z"/></g>
<g><path style="opacity:1" fill="#ec352d" d="M 46.5,80.5 C 47.0967,80.7352 47.4301,81.2352 47.5,82C 36.7641,98.3598 29.4307,116.193 25.5,135.5C 24.5,135.5 23.5,135.5 22.5,135.5C 26.4698,115.244 34.4698,96.9107 46.5,80.5 Z"/></g>
<g><path style="opacity:1" fill="#0a070a" d="M 444.5,141.5 C 462.918,138.955 476.084,145.955 484,162.5C 487.444,179.112 481.611,191.279 466.5,199C 450.853,204.258 437.02,201.425 425,190.5C 414.933,174.458 416.766,159.958 430.5,147C 435.017,144.445 439.684,142.612 444.5,141.5 Z M 448.5,152.5 C 466.461,153.098 473.295,162.098 469,179.5C 463.435,188.851 455.269,192.017 444.5,189C 432.759,182.208 429.925,172.708 436,160.5C 439.378,156.406 443.545,153.739 448.5,152.5 Z"/></g>
<g><path style="opacity:1" fill="#090403" d="M 676.5,141.5 C 677.487,146.305 677.821,151.305 677.5,156.5C 676.733,155.828 676.066,154.995 675.5,154C 669.509,153.501 663.509,153.334 657.5,153.5C 657.631,152.624 657.298,151.957 656.5,151.5C 655.334,166.155 655.167,180.822 656,195.5C 656.383,194.944 656.883,194.611 657.5,194.5C 659.317,196.012 660.317,198.012 660.5,200.5C 654.167,200.5 647.833,200.5 641.5,200.5C 641.312,198.897 641.812,197.563 643,196.5C 643.5,182.171 643.667,167.837 643.5,153.5C 637.463,153.171 631.463,153.504 625.5,154.5C 624.68,156.111 623.346,156.778 621.5,156.5C 621.5,151.167 621.5,145.833 621.5,140.5C 639.802,142.752 658.135,143.085 676.5,141.5 Z"/></g>
<g><path style="opacity:1" fill="#080304" d="M 922.5,153.5 C 921.554,166.289 921.221,181.956 921.5,200.5C 915.979,200.946 910.645,200.446 905.5,199C 906.333,198.167 907.167,197.333 908,196.5C 908.5,182.171 908.667,167.837 908.5,153.5C 902.5,153.5 896.5,153.5 890.5,153.5C 890.5,154.5 890.5,155.5 890.5,156.5C 889.167,156.5 887.833,156.5 886.5,156.5C 886.5,151.167 886.5,145.833 886.5,140.5C 904.396,142.555 922.396,143.055 940.5,142C 941.563,140.812 942.897,140.312 944.5,140.5C 944.602,145.878 944.602,151.045 944.5,156C 942.647,156.551 941.313,155.885 940.5,154C 934.509,153.501 928.509,153.334 922.5,153.5 Z"/></g>
<g><path style="opacity:1" fill="#080404" d="M 1022.5,144.5 C 1022.39,145.117 1022.06,145.617 1021.5,146C 1027.56,148.321 1032.72,152.488 1037,158.5C 1037.76,161.233 1037.26,163.733 1035.5,166C 1040.44,178.52 1037.11,188.52 1025.5,196C 1022.74,196.878 1020.08,197.878 1017.5,199C 1018.42,199.278 1019.08,199.778 1019.5,200.5C 1002.14,204.663 988.309,199.663 978,185.5C 971.311,169.574 974.811,156.407 988.5,146C 999.76,140.724 1011.09,140.224 1022.5,144.5 Z M 1011.5,189.5 C 993.126,189.454 986.293,180.454 991,162.5C 993.489,158.168 996.989,155.168 1001.5,153.5C 1016.08,150.619 1024.74,156.452 1027.5,171C 1026.69,177.285 1024.02,182.618 1019.5,187C 1017.09,188.707 1014.42,189.54 1011.5,189.5 Z"/></g>
<g><path style="opacity:1" fill="#071b34" d="M 1109.5,142.5 C 1110.83,142.5 1112.17,142.5 1113.5,142.5C 1113.69,144.103 1113.19,145.437 1112,146.5C 1111.33,163.167 1111.33,179.833 1112,196.5C 1113.04,197.244 1113.54,198.244 1113.5,199.5C 1112.27,199.279 1111.27,198.612 1110.5,197.5C 1109.55,179 1109.21,160.666 1109.5,142.5 Z"/></g>
<g><path style="opacity:1" fill="#ed302b" d="M 133.5,135.5 C 134.578,138.199 134.245,140.865 132.5,143.5C 124.113,156.24 116.613,169.907 110,184.5C 108.989,185.337 107.822,185.67 106.5,185.5C 114.637,168.364 123.637,151.697 133.5,135.5 Z"/></g>
<g><path style="opacity:1" fill="#101e3d" d="M 676.5,141.5 C 677.849,140.203 679.182,140.37 680.5,142C 679.167,146.333 679.167,150.667 680.5,155C 679.756,156.039 678.756,156.539 677.5,156.5C 677.821,151.305 677.487,146.305 676.5,141.5 Z"/></g>
<g><path style="opacity:1" fill="#0c0403" d="M 1185.5,146.5 C 1184.88,146.389 1184.38,146.056 1184,145.5C 1183.33,162.833 1183.33,180.167 1184,197.5C 1184.38,196.944 1184.88,196.611 1185.5,196.5C 1187.91,196.694 1188.91,198.027 1188.5,200.5C 1182.17,200.5 1175.83,200.5 1169.5,200.5C 1169.31,198.897 1169.81,197.563 1171,196.5C 1171.67,179.833 1171.67,163.167 1171,146.5C 1169.81,145.437 1169.31,144.103 1169.5,142.5C 1175.83,142.5 1182.17,142.5 1188.5,142.5C 1188.91,144.973 1187.91,146.306 1185.5,146.5 Z"/></g>
<g><path style="opacity:1" fill="#05152e" d="M 1261.5,145.5 C 1260.88,145.611 1260.38,145.944 1260,146.5C 1259.17,163.177 1259.33,179.843 1260.5,196.5C 1262.11,197.32 1262.78,198.654 1262.5,200.5C 1260.83,200.5 1259.17,200.5 1257.5,200.5C 1257.17,182.155 1257.5,163.821 1258.5,145.5C 1259.88,143.023 1260.88,143.023 1261.5,145.5 Z"/></g>
<g><path style="opacity:1" fill="#e82f2a" d="M 220.5,151.5 C 217.401,160.147 213.734,168.481 209.5,176.5C 211.487,167.06 214.987,158.06 220,149.5C 220.464,150.094 220.631,150.761 220.5,151.5 Z"/></g>
<g><path style="opacity:1" fill="#f0312a" d="M 22.5,140.5 C 23.0412,155.24 24.0412,170.073 25.5,185C 25.4971,187.69 25.1638,190.19 24.5,192.5C 22.5981,186.777 21.4314,180.777 21,174.5C 20.3333,165.5 20.3333,156.5 21,147.5C 21.1862,144.964 21.6862,142.631 22.5,140.5 Z"/></g>
<g><path style="opacity:1" fill="#394b64" d="M 813.5,144.5 C 813.217,145.289 812.717,145.956 812,146.5C 811.667,158.167 811.333,169.833 811,181.5C 810.885,185.614 809.718,189.281 807.5,192.5C 809.015,176.89 809.848,161.224 810,145.5C 810.704,143.273 811.871,142.94 813.5,144.5 Z"/></g>
<g><path style="opacity:1" fill="#030204" d="M 948.5,143.5 C 954.645,142.51 960.978,142.177 967.5,142.5C 967.608,144.514 966.942,146.18 965.5,147.5C 964.169,155.305 963.502,163.472 963.5,172C 963.667,180.167 963.833,188.333 964,196.5C 964.383,195.944 964.883,195.611 965.5,195.5C 966.942,196.82 967.608,198.486 967.5,200.5C 961.167,200.5 954.833,200.5 948.5,200.5C 948.263,199.209 948.596,198.209 949.5,197.5C 950.5,197.5 951.5,197.5 952.5,197.5C 953.605,181.525 953.772,165.525 953,149.5C 953.145,146.077 951.645,144.077 948.5,143.5 Z"/></g>
<g><path style="opacity:1" fill="#230c08" d="M 1197.5,142.5 C 1198.69,143.364 1199.85,144.364 1201,145.5C 1201.67,162.5 1201.67,179.5 1201,196.5C 1200.5,197 1200,197.5 1199.5,198C 1200.76,198.417 1201.42,199.25 1201.5,200.5C 1199.83,200.5 1198.17,200.5 1196.5,200.5C 1196.22,198.654 1196.89,197.32 1198.5,196.5C 1199.83,179.833 1199.83,163.167 1198.5,146.5C 1196.47,145.426 1196.13,144.093 1197.5,142.5 Z"/></g>
<g><path style="opacity:1" fill="#040203" d="M 1197.5,142.5 C 1204.17,142.5 1210.83,142.5 1217.5,142.5C 1217.74,143.791 1217.4,144.791 1216.5,145.5C 1215.5,145.5 1214.5,145.5 1213.5,145.5C 1213.24,146.978 1213.57,148.311 1214.5,149.5C 1224.49,159.457 1234.49,169.457 1244.5,179.5C 1245.11,179.376 1245.44,179.043 1245.5,178.5C 1246.66,168.008 1246.83,157.341 1246,146.5C 1244.29,145.692 1243.46,144.359 1243.5,142.5C 1249.83,142.5 1256.17,142.5 1262.5,142.5C 1262.74,143.791 1262.4,144.791 1261.5,145.5C 1260.88,143.023 1259.88,143.023 1258.5,145.5C 1257.5,163.821 1257.17,182.155 1257.5,200.5C 1252.5,200.5 1247.5,200.5 1242.5,200.5C 1242.3,198.61 1242.96,197.11 1244.5,196C 1238.96,190.631 1233.63,185.131 1228.5,179.5C 1228.65,178.448 1228.48,177.448 1228,176.5C 1223.64,171.593 1219.14,167.593 1214.5,164.5C 1213.83,164.167 1213.17,163.833 1212.5,163.5C 1211.85,162.909 1211.18,162.243 1210.5,161.5C 1209.62,173.642 1209.29,185.642 1209.5,197.5C 1211.97,197.088 1213.31,198.088 1213.5,200.5C 1209.5,200.5 1205.5,200.5 1201.5,200.5C 1201.42,199.25 1200.76,198.417 1199.5,198C 1200,197.5 1200.5,197 1201,196.5C 1201.67,179.5 1201.67,162.5 1201,145.5C 1199.85,144.364 1198.69,143.364 1197.5,142.5 Z"/></g>
<g><path style="opacity:1" fill="#060307" d="M 554.5,149.5 C 553.5,149.5 552.5,149.5 551.5,149.5C 551.167,165.181 551.501,180.848 552.5,196.5C 553.429,197.55 554.095,197.55 554.5,196.5C 556.912,196.694 557.912,198.027 557.5,200.5C 550.833,200.5 544.167,200.5 537.5,200.5C 538.014,198.488 538.18,196.488 538,194.5C 533.63,190.298 529.463,185.964 525.5,181.5C 525.611,180.883 525.944,180.383 526.5,180C 520.973,174.473 515.473,168.973 510,163.5C 509.601,163.728 509.435,164.062 509.5,164.5C 508.883,164.389 508.383,164.056 508,163.5C 507.003,175.948 507.503,188.281 509.5,200.5C 503.5,200.5 497.5,200.5 491.5,200.5C 491.222,198.654 491.889,197.32 493.5,196.5C 494.666,179.843 494.833,163.177 494,146.5C 492.294,145.692 491.461,144.359 491.5,142.5C 498.5,142.5 505.5,142.5 512.5,142.5C 512.703,144.39 512.037,145.89 510.5,147C 521.03,157.196 531.197,167.696 541,178.5C 541.667,167.833 541.667,157.167 541,146.5C 539.294,145.692 538.461,144.359 538.5,142.5C 544.833,142.5 551.167,142.5 557.5,142.5C 556.199,144.672 555.199,147.005 554.5,149.5 Z"/></g>
<g><path style="opacity:1" fill="#22293e" d="M 883.5,149.5 C 884.289,149.783 884.956,150.283 885.5,151C 882.71,154.746 880.043,158.579 877.5,162.5C 876.675,163.386 875.675,163.719 874.5,163.5C 874.5,162.167 874.5,160.833 874.5,159.5C 875.496,159.414 876.329,159.748 877,160.5C 879.421,156.929 881.587,153.262 883.5,149.5 Z"/></g>
<g><path style="opacity:1" fill="#060c1f" d="M 554.5,149.5 C 554.5,165.167 554.5,180.833 554.5,196.5C 554.095,197.55 553.429,197.55 552.5,196.5C 551.501,180.848 551.167,165.181 551.5,149.5C 552.5,149.5 553.5,149.5 554.5,149.5 Z"/></g>
<g><path style="opacity:1" fill="#000c30" d="M 657.5,153.5 C 657.5,167.167 657.5,180.833 657.5,194.5C 656.883,194.611 656.383,194.944 656,195.5C 655.167,180.822 655.334,166.155 656.5,151.5C 657.298,151.957 657.631,152.624 657.5,153.5 Z"/></g>
<g><path style="opacity:1" fill="#060508" d="M 700.5,177.5 C 700.189,176.522 699.522,175.855 698.5,175.5C 697.503,182.803 697.169,190.137 697.5,197.5C 698.833,197.5 700.167,197.5 701.5,197.5C 702.404,198.209 702.737,199.209 702.5,200.5C 696.167,200.5 689.833,200.5 683.5,200.5C 683.229,198.62 683.896,197.287 685.5,196.5C 686.117,196.611 686.617,196.944 687,197.5C 687.667,180.833 687.667,164.167 687,147.5C 686.617,146.944 686.117,146.611 685.5,146.5C 683.896,145.713 683.229,144.38 683.5,142.5C 698.504,142.333 713.504,142.5 728.5,143C 740.786,146.049 745.619,153.882 743,166.5C 740.062,172.558 735.229,176.058 728.5,177C 733.387,182.886 737.887,189.053 742,195.5C 745.094,195.793 746.594,197.459 746.5,200.5C 739.167,200.5 731.833,200.5 724.5,200.5C 724.48,198.857 725.147,197.524 726.5,196.5C 722.5,190.5 718.5,184.5 714.5,178.5C 709.88,177.507 705.214,177.173 700.5,177.5 Z M 700.5,153.5 C 708.507,153.334 716.507,153.5 724.5,154C 729.218,155.449 730.718,158.615 729,163.5C 728.097,164.701 726.931,165.535 725.5,166C 716.99,166.823 708.656,166.657 700.5,165.5C 700.5,161.5 700.5,157.5 700.5,153.5 Z"/></g>
<g><path style="opacity:1" fill="#010a3b" d="M 700.5,153.5 C 700.5,157.5 700.5,161.5 700.5,165.5C 699.5,165.5 698.5,165.5 697.5,165.5C 697.334,161.486 697.501,157.486 698,153.5C 698.77,152.402 699.603,152.402 700.5,153.5 Z"/></g>
<g><path style="opacity:1" fill="#000d31" d="M 1185.5,146.5 C 1185.5,163.167 1185.5,179.833 1185.5,196.5C 1184.88,196.611 1184.38,196.944 1184,197.5C 1183.33,180.167 1183.33,162.833 1184,145.5C 1184.38,146.056 1184.88,146.389 1185.5,146.5 Z"/></g>
<g><path style="opacity:1" fill="#2b0901" d="M 948.5,143.5 C 951.645,144.077 953.145,146.077 953,149.5C 953.772,165.525 953.605,181.525 952.5,197.5C 951.5,197.5 950.5,197.5 949.5,197.5C 950.651,180.574 950.818,163.574 950,146.5C 948.961,145.756 948.461,144.756 948.5,143.5 Z"/></g>
<g><path style="opacity:1" fill="#050406" d="M 1109.5,142.5 C 1109.21,160.666 1109.55,179 1110.5,197.5C 1111.27,198.612 1112.27,199.279 1113.5,199.5C 1107.69,200.49 1101.69,200.823 1095.5,200.5C 1097.69,198.294 1097.69,195.627 1095.5,192.5C 1086.17,183.167 1076.83,173.833 1067.5,164.5C 1066.68,163.614 1065.68,163.281 1064.5,163.5C 1064.5,162.833 1064.17,162.5 1063.5,162.5C 1063.44,161.957 1063.11,161.624 1062.5,161.5C 1062.17,167.167 1061.83,172.833 1061.5,178.5C 1061.5,184.542 1062.17,190.208 1063.5,195.5C 1065.79,196.542 1066.79,198.042 1066.5,200C 1060.51,200.499 1054.51,200.666 1048.5,200.5C 1048.09,198.027 1049.09,196.694 1051.5,196.5C 1052.12,196.389 1052.62,196.056 1053,195.5C 1053.67,179.833 1053.67,164.167 1053,148.5C 1052.62,149.056 1052.12,149.389 1051.5,149.5C 1050.04,147.372 1049.04,145.038 1048.5,142.5C 1055.5,142.5 1062.5,142.5 1069.5,142.5C 1069.7,144.39 1069.04,145.89 1067.5,147C 1076.97,157.471 1086.8,167.637 1097,177.5C 1098.03,165.694 1097.53,154.027 1095.5,142.5C 1100.17,142.5 1104.83,142.5 1109.5,142.5 Z"/></g>
<g><path style="opacity:1" fill="#0f1524" d="M 1022.5,144.5 C 1034.59,149.286 1040.93,158.286 1041.5,171.5C 1040.18,185.824 1032.85,195.491 1019.5,200.5C 1019.08,199.778 1018.42,199.278 1017.5,199C 1020.08,197.878 1022.74,196.878 1025.5,196C 1037.11,188.52 1040.44,178.52 1035.5,166C 1037.26,163.733 1037.76,161.233 1037,158.5C 1032.72,152.488 1027.56,148.321 1021.5,146C 1022.06,145.617 1022.39,145.117 1022.5,144.5 Z"/></g>
<g><path style="opacity:1" fill="#07192f" d="M 922.5,153.5 C 922.167,167.849 922.501,182.182 923.5,196.5C 925.111,197.32 925.778,198.654 925.5,200.5C 924.167,200.5 922.833,200.5 921.5,200.5C 921.221,181.956 921.554,166.289 922.5,153.5 Z"/></g>
<g><path style="opacity:1" fill="#473832" d="M 1228.5,179.5 C 1223.14,175.071 1218.47,170.071 1214.5,164.5C 1219.14,167.593 1223.64,171.593 1228,176.5C 1228.48,177.448 1228.65,178.448 1228.5,179.5 Z"/></g>
<g><path style="opacity:1" fill="#1d263a" d="M 1001.5,153.5 C 996.989,155.168 993.489,158.168 991,162.5C 986.293,180.454 993.126,189.454 1011.5,189.5C 1000.02,193.178 992.19,189.178 988,177.5C 985.347,165.81 989.347,157.477 1000,152.5C 1000.38,153.056 1000.88,153.389 1001.5,153.5 Z"/></g>
<g><path style="opacity:1" fill="#ec3427" d="M 297.5,122.5 C 306.265,152.599 304.932,182.266 293.5,211.5C 295.004,201.461 296.671,191.461 298.5,181.5C 299.439,165.556 299.772,149.723 299.5,134C 298.244,133.583 297.577,132.75 297.5,131.5C 297.108,128.324 297.108,125.324 297.5,122.5 Z"/></g>
<g><path style="opacity:1" fill="#2a1509" d="M 1064.5,163.5 C 1065.68,163.281 1066.68,163.614 1067.5,164.5C 1076.83,173.833 1086.17,183.167 1095.5,192.5C 1097.69,195.627 1097.69,198.294 1095.5,200.5C 1094.88,198.679 1094.72,196.679 1095,194.5C 1084.63,184.298 1074.46,173.965 1064.5,163.5 Z"/></g>
<g><path style="opacity:1" fill="#05112f" d="M 1294.5,154.5 C 1284.36,160.568 1281.36,169.235 1285.5,180.5C 1285.44,181.043 1285.11,181.376 1284.5,181.5C 1279.11,169.801 1281.78,160.468 1292.5,153.5C 1293.18,153.863 1293.85,154.196 1294.5,154.5 Z"/></g>
<g><path style="opacity:1" fill="#0e172b" d="M 1216.5,145.5 C 1216.39,146.117 1216.06,146.617 1215.5,147C 1226.1,157.093 1236.1,167.593 1245.5,178.5C 1245.44,179.043 1245.11,179.376 1244.5,179.5C 1234.49,169.457 1224.49,159.457 1214.5,149.5C 1213.57,148.311 1213.24,146.978 1213.5,145.5C 1214.5,145.5 1215.5,145.5 1216.5,145.5 Z"/></g>
<g><path style="opacity:1" fill="#220704" d="M 752.5,142.5 C 753.072,143.973 753.905,145.307 755,146.5C 755.827,160.34 755.661,174.006 754.5,187.5C 753.833,173.994 753.167,160.327 752.5,146.5C 749.959,144.956 749.959,143.623 752.5,142.5 Z"/></g>
<g><path style="opacity:1" fill="#32345c" d="M 1063.5,162.5 C 1064.77,173.505 1064.77,184.505 1063.5,195.5C 1062.17,190.208 1061.5,184.542 1061.5,178.5C 1061.83,172.833 1062.17,167.167 1062.5,161.5C 1063.11,161.624 1063.44,161.957 1063.5,162.5 Z"/></g>
<g><path style="opacity:1" fill="#080d26" d="M 1212.5,163.5 C 1212.33,174.505 1212.5,185.505 1213,196.5C 1216.06,197.675 1216.23,199.009 1213.5,200.5C 1213.31,198.088 1211.97,197.088 1209.5,197.5C 1209.29,185.642 1209.62,173.642 1210.5,161.5C 1211.18,162.243 1211.85,162.909 1212.5,163.5 Z"/></g>
<g><path style="opacity:1" fill="#2c0500" d="M 1051.5,196.5 C 1051.5,180.833 1051.5,165.167 1051.5,149.5C 1052.12,149.389 1052.62,149.056 1053,148.5C 1053.67,164.167 1053.67,179.833 1053,195.5C 1052.62,196.056 1052.12,196.389 1051.5,196.5 Z"/></g>
<g><path style="opacity:1" fill="#473731" d="M 525.5,181.5 C 519.462,176.463 514.129,170.797 509.5,164.5C 509.435,164.062 509.601,163.728 510,163.5C 515.473,168.973 520.973,174.473 526.5,180C 525.944,180.383 525.611,180.883 525.5,181.5 Z"/></g>
<g><path style="opacity:1" fill="#f22f2d" d="M 272.5,149.5 C 271.691,150.469 270.691,151.302 269.5,152C 269.957,152.414 270.291,152.914 270.5,153.5C 264.457,166.19 258.457,178.857 252.5,191.5C 250.005,198.679 247.005,205.679 243.5,212.5C 242.833,213.167 242.167,213.833 241.5,214.5C 233.862,215.497 226.196,215.831 218.5,215.5C 209.161,215.666 199.827,215.5 190.5,215C 192.22,214.193 192.554,212.693 191.5,210.5C 194.133,206.456 196.3,202.123 198,197.5C 198.483,198.448 198.649,199.448 198.5,200.5C 197.321,204.533 195.655,208.366 193.5,212C 209.177,212.833 224.844,212.666 240.5,211.5C 255.312,179.378 269.979,147.211 284.5,115C 268.837,114.5 253.17,114.333 237.5,114.5C 237.5,113.5 237.5,112.5 237.5,111.5C 254.513,111.167 271.513,111.501 288.5,112.5C 284.626,119.874 281.46,127.541 279,135.5C 277.521,138.305 275.688,140.805 273.5,143C 273.833,143.333 274.167,143.667 274.5,144C 273.891,145.948 273.224,147.782 272.5,149.5 Z"/></g>
<g><path style="opacity:1" fill="#052644" d="M 965.5,147.5 C 965.5,163.5 965.5,179.5 965.5,195.5C 964.883,195.611 964.383,195.944 964,196.5C 963.833,188.333 963.667,180.167 963.5,172C 963.502,163.472 964.169,155.305 965.5,147.5 Z"/></g>
<g><path style="opacity:1" fill="#6d533c" d="M 685.5,146.5 C 686.117,146.611 686.617,146.944 687,147.5C 687.667,164.167 687.667,180.833 687,197.5C 686.617,196.944 686.117,196.611 685.5,196.5C 685.5,179.833 685.5,163.167 685.5,146.5 Z"/></g>
<g><path style="opacity:1" fill="#0c0a0c" d="M 373.5,141.5 C 386.477,140.036 398.311,143.036 409,150.5C 410.011,149.663 411.178,149.33 412.5,149.5C 411.379,153.474 409.546,157.14 407,160.5C 406.092,162.439 404.592,163.439 402.5,163.5C 402.822,161.278 402.155,159.444 400.5,158C 390,151.246 379.333,150.913 368.5,157C 365.894,158.938 364.061,161.438 363,164.5C 359.747,180.904 366.413,189.237 383,189.5C 389.566,189.884 395.566,188.217 401,184.5C 401.739,182.779 402.573,181.113 403.5,179.5C 406.56,182.607 409.394,185.941 412,189.5C 412.781,190.944 412.614,192.277 411.5,193.5C 410.232,192.572 408.899,192.405 407.5,193C 391.012,203.876 374.346,204.209 357.5,194C 347.232,183.904 344.732,172.07 350,158.5C 355.477,149.516 363.31,143.849 373.5,141.5 Z"/></g>
<g><path style="opacity:1" fill="#000c36" d="M 700.5,177.5 C 700.207,184.255 700.54,190.922 701.5,197.5C 700.167,197.5 698.833,197.5 697.5,197.5C 697.169,190.137 697.503,182.803 698.5,175.5C 699.522,175.855 700.189,176.522 700.5,177.5 Z"/></g>
<g><path style="opacity:1" fill="#0c090b" d="M 883.5,149.5 C 881.587,153.262 879.421,156.929 877,160.5C 876.329,159.748 875.496,159.414 874.5,159.5C 862.66,150.922 850.66,150.589 838.5,158.5C 837.791,157.596 836.791,157.263 835.5,157.5C 833.606,161.969 832.273,166.636 831.5,171.5C 832.19,181.6 837.19,188.267 846.5,191.5C 847.298,191.043 847.631,190.376 847.5,189.5C 856.358,190.598 864.692,189.098 872.5,185C 873.861,183.416 874.528,181.582 874.5,179.5C 875.675,179.281 876.675,179.614 877.5,180.5C 879.473,183.64 881.64,186.64 884,189.5C 884.88,192.815 883.88,193.815 881,192.5C 864.087,203.787 846.92,204.287 829.5,194C 818.796,183.041 816.629,170.541 823,156.5C 832.803,144.005 845.636,139.172 861.5,142C 868.414,143.874 874.914,146.707 881,150.5C 881.671,149.748 882.504,149.414 883.5,149.5 Z"/></g>
<g><path style="opacity:1" fill="#080f24" d="M 838.5,158.5 C 831.423,168.211 832.09,177.378 840.5,186C 842.86,187.18 845.193,188.347 847.5,189.5C 847.631,190.376 847.298,191.043 846.5,191.5C 837.19,188.267 832.19,181.6 831.5,171.5C 832.273,166.636 833.606,161.969 835.5,157.5C 836.791,157.263 837.791,157.596 838.5,158.5 Z"/></g>
<g><path style="opacity:1" fill="#0a080a" d="M 583.5,141.5 C 594.698,140.632 605.365,142.632 615.5,147.5C 617.263,146.046 618.597,146.38 619.5,148.5C 617.254,153.326 614.754,157.992 612,162.5C 604.369,153.896 594.869,151.062 583.5,154C 578.785,155.613 577.785,158.28 580.5,162C 589.146,163.479 597.813,164.812 606.5,166C 618.667,170.842 622.167,179.342 617,191.5C 612.278,197.444 606.112,200.611 598.5,201C 594.5,201.667 590.5,201.667 586.5,201C 578.669,199.333 571.002,197.166 563.5,194.5C 565.333,190.167 567.167,185.833 569,181.5C 569.689,180.643 570.522,179.977 571.5,179.5C 572.782,181.179 573.782,183.013 574.5,185C 582.346,189.192 590.679,190.526 599.5,189C 604.709,187.821 606.376,184.821 604.5,180C 595.864,178.504 587.198,177.17 578.5,176C 568.916,173.003 564.749,166.503 566,156.5C 567.505,151.645 570.338,147.812 574.5,145C 577.598,143.772 580.598,142.606 583.5,141.5 Z"/></g>
<g><path style="opacity:1" fill="#0c0809" d="M 752.5,142.5 C 758.167,142.5 763.833,142.5 769.5,142.5C 769.688,144.103 769.188,145.437 768,146.5C 767.5,157.495 767.333,168.495 767.5,179.5C 766.67,169.008 766.17,158.341 766,147.5C 765.167,160.18 765.334,172.846 766.5,185.5C 767.429,186.55 768.095,186.55 768.5,185.5C 772.507,188.889 777.174,190.222 782.5,189.5C 787.711,190.245 792.211,188.912 796,185.5C 797.13,178.768 797.63,171.935 797.5,165C 797.333,158.833 797.167,152.667 797,146.5C 795.812,145.437 795.312,144.103 795.5,142.5C 801.926,141.88 807.926,142.547 813.5,144.5C 811.871,142.94 810.704,143.273 810,145.5C 809.848,161.224 809.015,176.89 807.5,192.5C 804.908,196.471 801.241,198.971 796.5,200C 784.974,202.367 773.641,201.7 762.5,198C 758.081,195.758 755.414,192.258 754.5,187.5C 755.661,174.006 755.827,160.34 755,146.5C 753.905,145.307 753.072,143.973 752.5,142.5 Z"/></g>
<g><path style="opacity:1" fill="#01163d" d="M 767.5,179.5 C 767.833,181.5 768.167,183.5 768.5,185.5C 768.095,186.55 767.429,186.55 766.5,185.5C 765.334,172.846 765.167,160.18 766,147.5C 766.17,158.341 766.67,169.008 767.5,179.5 Z"/></g>
<g><path style="opacity:1" fill="#171111" d="M 1137.5,191.5 C 1135.76,196.506 1134.43,201.839 1133.5,207.5C 1130.42,207.587 1128.09,208.92 1126.5,211.5C 1125.43,210.749 1125.26,209.749 1126,208.5C 1133.33,204.286 1132.99,201.286 1125,199.5C 1121.22,192.688 1123.05,188.021 1130.5,185.5C 1134.09,186.088 1136.42,188.088 1137.5,191.5 Z"/></g>
<g><path style="opacity:1" fill="#0a080b" d="M 1294.5,154.5 C 1293.85,154.196 1293.18,153.863 1292.5,153.5C 1281.78,160.468 1279.11,169.801 1284.5,181.5C 1285.11,181.376 1285.44,181.043 1285.5,180.5C 1290.23,187.113 1296.73,190.113 1305,189.5C 1311.32,189.927 1317.15,188.427 1322.5,185C 1323.86,183.416 1324.53,181.582 1324.5,179.5C 1325.68,179.281 1326.68,179.614 1327.5,180.5C 1329.47,183.64 1331.64,186.64 1334,189.5C 1334.88,192.815 1333.88,193.815 1331,192.5C 1314.09,203.787 1296.92,204.287 1279.5,194C 1267.96,181.642 1266.46,168.142 1275,153.5C 1285.07,143.27 1297.24,139.436 1311.5,142C 1318.41,143.874 1324.91,146.707 1331,150.5C 1332.01,149.663 1333.18,149.33 1334.5,149.5C 1333.38,153.474 1331.55,157.14 1329,160.5C 1328.09,162.439 1326.59,163.439 1324.5,163.5C 1324.82,161.278 1324.16,159.444 1322.5,158C 1313.66,152.595 1304.32,151.429 1294.5,154.5 Z"/></g>
<g><path style="opacity:1" fill="#120e11" d="M 1346.5,186.5 C 1355.33,185.162 1358.83,188.829 1357,197.5C 1352.96,202.313 1348.63,202.646 1344,198.5C 1341.51,193.757 1342.34,189.757 1346.5,186.5 Z"/></g>
<g><path style="opacity:1" fill="#121a2c" d="M 1137.5,191.5 C 1139.58,201.021 1136.41,208.355 1128,213.5C 1127.28,212.956 1126.78,212.289 1126.5,211.5C 1128.09,208.92 1130.42,207.587 1133.5,207.5C 1134.43,201.839 1135.76,196.506 1137.5,191.5 Z"/></g>
<g><path style="opacity:1" fill="#f90202" d="M 297.5,131.5 C 297.577,132.75 298.244,133.583 299.5,134C 299.772,149.723 299.439,165.556 298.5,181.5C 296.671,191.461 295.004,201.461 293.5,211.5C 290.853,219.461 287.186,226.795 282.5,233.5C 282.631,232.761 282.464,232.094 282,231.5C 277.399,238.602 272.232,245.268 266.5,251.5C 265.548,253.045 265.215,254.712 265.5,256.5C 265.5,257.167 265.167,257.5 264.5,257.5C 264.631,256.761 264.464,256.094 264,255.5C 254.694,264.813 244.527,272.98 233.5,280C 234.416,280.278 235.082,280.778 235.5,281.5C 229.554,285.306 223.221,288.306 216.5,290.5C 215.054,289.387 213.387,289.22 211.5,290C 208.042,292.032 204.542,293.866 201,295.5C 200.586,295.043 200.086,294.709 199.5,294.5C 194.935,296.142 190.268,297.475 185.5,298.5C 185.137,299.183 184.804,299.85 184.5,300.5C 183.167,300.5 181.833,300.5 180.5,300.5C 180.631,299.624 180.298,298.957 179.5,298.5C 166.808,299.389 154.142,299.723 141.5,299.5C 139.444,297.981 137.11,297.147 134.5,297C 134.833,296.667 135.167,296.333 135.5,296C 125.615,295.343 116.282,292.676 107.5,288C 105.613,287.22 103.946,287.387 102.5,288.5C 91.7669,284.076 82.1002,278.076 73.5,270.5C 74.2389,270.631 74.9056,270.464 75.5,270C 63.863,259.537 53.5296,248.037 44.5,235.5C 42.8279,232.138 41.1612,228.804 39.5,225.5C 40.6155,222.92 42.6155,221.254 45.5,220.5C 43.9951,219.158 43.3285,217.492 43.5,215.5C 56.1667,215.5 68.8333,215.5 81.5,215.5C 78.3246,216.429 74.9913,217.262 71.5,218C 74.1667,218.333 76.8333,218.667 79.5,219C 72.1667,219.333 64.8333,219.667 57.5,220C 65.083,221.805 72.7497,221.971 80.5,220.5C 93.4068,223.16 106.407,223.826 119.5,222.5C 121.191,220.744 123.191,220.244 125.5,221C 124.833,221.333 124.167,221.667 123.5,222C 126.486,221.872 129.486,221.872 132.5,222C 131.833,222.333 131.167,222.667 130.5,223C 132.788,223.822 135.122,224.489 137.5,225C 120.167,225.667 102.833,225.667 85.5,225C 86.8333,224.333 88.1667,223.667 89.5,223C 82.4994,222.586 75.8327,223.753 69.5,226.5C 72.4973,227.248 75.4973,227.915 78.5,228.5C 82.9223,227.416 87.4223,226.749 92,226.5C 106.414,226.99 120.748,226.99 135,226.5C 139.99,229.153 144.823,228.986 149.5,226C 146.456,225.641 146.122,224.974 148.5,224C 151.833,223.333 155.167,223.333 158.5,224C 158.167,224.333 157.833,224.667 157.5,225C 159.5,225.667 161.5,225.667 163.5,225C 162.167,224.667 160.833,224.333 159.5,224C 164.833,223.667 170.167,223.333 175.5,223C 178.692,222.803 181.692,221.97 184.5,220.5C 188.785,221.294 193.118,221.294 197.5,220.5C 197.5,219.5 197.5,218.5 197.5,217.5C 204.488,218.501 211.488,218.668 218.5,218C 214.152,218.573 209.819,219.24 205.5,220C 209.028,220.089 212.362,220.756 215.5,222C 213.101,222.711 210.768,222.544 208.5,221.5C 207.5,222 206.5,222.5 205.5,223C 214.244,223.91 222.911,223.576 231.5,222C 229.109,221.713 226.776,221.213 224.5,220.5C 223.614,219.675 223.281,218.675 223.5,217.5C 221.302,217.88 219.635,217.213 218.5,215.5C 226.196,215.831 233.862,215.497 241.5,214.5C 242.167,213.833 242.833,213.167 243.5,212.5C 247.005,205.679 250.005,198.679 252.5,191.5C 258.457,178.857 264.457,166.19 270.5,153.5C 270.291,152.914 269.957,152.414 269.5,152C 270.691,151.302 271.691,150.469 272.5,149.5C 275.234,150.984 276.734,149.984 277,146.5C 279.064,147.591 281.231,147.758 283.5,147C 279.414,144.587 279.08,142.087 282.5,139.5C 284.727,140.053 287.061,140.053 289.5,139.5C 289.238,140.978 289.571,142.311 290.5,143.5C 291.358,138.424 293.692,134.424 297.5,131.5 Z"/></g>
<g><path style="opacity:1" fill="#ec312c" d="M 26.5,201.5 C 27.675,201.281 28.675,201.614 29.5,202.5C 31.7223,208.435 34.0556,214.268 36.5,220C 36.1667,220.333 35.8333,220.667 35.5,221C 38.4028,222.486 38.7361,223.986 36.5,225.5C 32.2074,217.971 28.8741,209.971 26.5,201.5 Z"/></g>
<g><path style="opacity:1" fill="#f73231" d="M 95.5,206.5 C 95.9804,209.685 95.3137,212.519 93.5,215C 89.5138,215.499 85.5138,215.666 81.5,215.5C 68.8333,215.5 56.1667,215.5 43.5,215.5C 41.6921,214.082 41.0254,212.082 41.5,209.5C 42.5,209.5 43.5,209.5 44.5,209.5C 44.1961,210.15 43.8627,210.817 43.5,211.5C 59.8197,212.499 76.1531,212.833 92.5,212.5C 92.6535,210.03 93.6535,208.03 95.5,206.5 Z"/></g>
<g><path style="opacity:1" fill="#f70504" d="M 293.5,109.5 C 295.232,113.697 296.565,118.031 297.5,122.5C 297.108,125.324 297.108,128.324 297.5,131.5C 293.692,134.424 291.358,138.424 290.5,143.5C 289.571,142.311 289.238,140.978 289.5,139.5C 287.061,140.053 284.727,140.053 282.5,139.5C 279.08,142.087 279.414,144.587 283.5,147C 281.231,147.758 279.064,147.591 277,146.5C 276.734,149.984 275.234,150.984 272.5,149.5C 273.224,147.782 273.891,145.948 274.5,144C 274.167,143.667 273.833,143.333 273.5,143C 275.688,140.805 277.521,138.305 279,135.5C 281.46,127.541 284.626,119.874 288.5,112.5C 271.513,111.501 254.513,111.167 237.5,111.5C 237.5,112.5 237.5,113.5 237.5,114.5C 235.107,120.953 232.44,127.286 229.5,133.5C 228.778,133.082 228.278,132.416 228,131.5C 224.514,137.132 222.348,143.132 221.5,149.5C 221.672,150.492 221.338,151.158 220.5,151.5C 220.631,150.761 220.464,150.094 220,149.5C 214.987,158.06 211.487,167.06 209.5,176.5C 206.36,184.777 202.694,192.777 198.5,200.5C 198.649,199.448 198.483,198.448 198,197.5C 196.3,202.123 194.133,206.456 191.5,210.5C 192.554,212.693 192.22,214.193 190.5,215C 199.827,215.5 209.161,215.666 218.5,215.5C 219.635,217.213 221.302,217.88 223.5,217.5C 223.281,218.675 223.614,219.675 224.5,220.5C 226.776,221.213 229.109,221.713 231.5,222C 222.911,223.576 214.244,223.91 205.5,223C 206.5,222.5 207.5,222 208.5,221.5C 210.768,222.544 213.101,222.711 215.5,222C 212.362,220.756 209.028,220.089 205.5,220C 209.819,219.24 214.152,218.573 218.5,218C 211.488,218.668 204.488,218.501 197.5,217.5C 197.5,218.5 197.5,219.5 197.5,220.5C 193.118,221.294 188.785,221.294 184.5,220.5C 181.692,221.97 178.692,222.803 175.5,223C 170.167,223.333 164.833,223.667 159.5,224C 160.833,224.333 162.167,224.667 163.5,225C 161.5,225.667 159.5,225.667 157.5,225C 157.833,224.667 158.167,224.333 158.5,224C 155.167,223.333 151.833,223.333 148.5,224C 146.122,224.974 146.456,225.641 149.5,226C 144.823,228.986 139.99,229.153 135,226.5C 120.748,226.99 106.414,226.99 92,226.5C 87.4223,226.749 82.9223,227.416 78.5,228.5C 75.4973,227.915 72.4973,227.248 69.5,226.5C 75.8327,223.753 82.4994,222.586 89.5,223C 88.1667,223.667 86.8333,224.333 85.5,225C 102.833,225.667 120.167,225.667 137.5,225C 135.122,224.489 132.788,223.822 130.5,223C 131.167,222.667 131.833,222.333 132.5,222C 129.486,221.872 126.486,221.872 123.5,222C 124.167,221.667 124.833,221.333 125.5,221C 123.191,220.244 121.191,220.744 119.5,222.5C 106.407,223.826 93.4068,223.16 80.5,220.5C 72.7497,221.971 65.083,221.805 57.5,220C 64.8333,219.667 72.1667,219.333 79.5,219C 76.8333,218.667 74.1667,218.333 71.5,218C 74.9913,217.262 78.3246,216.429 81.5,215.5C 85.5138,215.666 89.5138,215.499 93.5,215C 95.3137,212.519 95.9804,209.685 95.5,206.5C 98.8818,199.405 102.548,192.405 106.5,185.5C 107.822,185.67 108.989,185.337 110,184.5C 116.613,169.907 124.113,156.24 132.5,143.5C 134.245,140.865 134.578,138.199 133.5,135.5C 136.821,130.848 140.487,126.515 144.5,122.5C 144.735,123.097 145.235,123.43 146,123.5C 151.577,118.963 157.41,114.796 163.5,111C 165.037,109.89 165.703,108.39 165.5,106.5C 166.514,105.326 167.847,104.66 169.5,104.5C 168.942,105.79 167.942,106.623 166.5,107C 167,107.167 167.5,107.333 168,107.5C 177.312,102.584 187.145,99.084 197.5,97C 226.167,96.3333 254.833,96.3333 283.5,97C 287.095,101.291 289.929,106.124 292,111.5C 292.278,110.584 292.778,109.918 293.5,109.5 Z M 203.5,114.5 C 205.833,114.5 208.167,114.5 210.5,114.5C 211.376,114.369 212.043,114.702 212.5,115.5C 211.021,119.28 209.354,122.947 207.5,126.5C 206.89,127.391 206.557,128.391 206.5,129.5C 203.322,135.196 200.656,141.196 198.5,147.5C 193.515,158.094 188.515,168.76 183.5,179.5C 183.5,179.833 183.5,180.167 183.5,180.5C 178.592,190.655 173.925,200.988 169.5,211.5C 151.843,212.666 134.176,212.833 116.5,212C 118.912,208.01 120.912,203.843 122.5,199.5C 123.167,199.5 123.5,199.167 123.5,198.5C 125.488,194.909 127.488,191.242 129.5,187.5C 131.438,183.957 133.105,180.29 134.5,176.5C 139.856,165.971 145.689,155.638 152,145.5C 156.031,140.304 160.531,135.637 165.5,131.5C 166.5,130.833 167.5,130.167 168.5,129.5C 179.14,122.011 190.806,117.011 203.5,114.5 Z"/></g>
<g><path style="opacity:1" fill="#f32e2d" d="M 183.5,180.5 C 183.577,181.75 184.244,182.583 185.5,183C 180.752,193.828 175.752,204.495 170.5,215C 151.5,215.667 132.5,215.667 113.5,215C 115.501,209.131 118.334,203.298 122,197.5C 122.464,198.094 122.631,198.761 122.5,199.5C 120.912,203.843 118.912,208.01 116.5,212C 134.176,212.833 151.843,212.666 169.5,211.5C 173.925,200.988 178.592,190.655 183.5,180.5 Z"/></g>
<g><path style="opacity:1" fill="#eb503e" d="M 129.5,187.5 C 127.488,191.242 125.488,194.909 123.5,198.5C 123.586,197.504 123.252,196.671 122.5,196C 124.709,192.717 126.542,189.217 128,185.5C 128.278,186.416 128.778,187.082 129.5,187.5 Z"/></g>
<g><path style="opacity:1" fill="#ef392f" d="M 198.5,147.5 C 198.982,148.416 199.315,149.416 199.5,150.5C 196.637,155.206 194.637,160.206 193.5,165.5C 195.207,168.753 194.207,170.753 190.5,171.5C 188.95,174.98 187.116,178.314 185,181.5C 184.722,180.584 184.222,179.918 183.5,179.5C 188.515,168.76 193.515,158.094 198.5,147.5 Z"/></g>
<g><path style="opacity:1" fill="#e83229" d="M 165.5,131.5 C 160.531,135.637 156.031,140.304 152,145.5C 145.689,155.638 139.856,165.971 134.5,176.5C 133.903,176.265 133.57,175.765 133.5,175C 137.337,167.481 141.17,159.981 145,152.5C 145.769,149.901 145.602,147.401 144.5,145C 145.253,143.513 146.086,143.346 147,144.5C 147.57,141.156 148.736,140.823 150.5,143.5C 154.06,139.529 157.727,135.695 161.5,132C 162.793,131.51 164.127,131.343 165.5,131.5 Z"/></g>
<g><path style="opacity:1" fill="#ec3931" d="M 206.5,129.5 C 207.622,131.288 207.789,133.288 207,135.5C 204.869,139.424 203.036,143.424 201.5,147.5C 200.5,147.5 199.5,147.5 198.5,147.5C 200.656,141.196 203.322,135.196 206.5,129.5 Z"/></g>
<g><path style="opacity:1" fill="#e7322b" d="M 229.5,133.5 C 227.011,138.995 224.345,144.328 221.5,149.5C 222.348,143.132 224.514,137.132 228,131.5C 228.278,132.416 228.778,133.082 229.5,133.5 Z"/></g>
<g><path style="opacity:1" fill="#e73930" d="M 203.5,114.5 C 190.806,117.011 179.14,122.011 168.5,129.5C 168.389,128.883 168.056,128.383 167.5,128C 175.707,121.253 185.04,116.586 195.5,114C 198.221,113.398 200.887,113.565 203.5,114.5 Z"/></g>
<g><path style="opacity:1" fill="#ee3534" d="M 207.5,126.5 C 209.354,122.947 211.021,119.28 212.5,115.5C 212.043,114.702 211.376,114.369 210.5,114.5C 210.586,113.504 210.252,112.671 209.5,112C 211.473,111.505 213.473,111.338 215.5,111.5C 215.284,117.603 213.117,122.936 209,127.5C 208.617,126.944 208.117,126.611 207.5,126.5 Z"/></g>
<g><path style="opacity:1" fill="#e82b29" d="M 39.5,225.5 C 41.1612,228.804 42.8279,232.138 44.5,235.5C 53.5296,248.037 63.863,259.537 75.5,270C 74.9056,270.464 74.2389,270.631 73.5,270.5C 58.1627,258.503 46.1627,243.836 37.5,226.5C 37.8417,225.662 38.5084,225.328 39.5,225.5 Z"/></g>
<g><path style="opacity:1" fill="#e5332b" d="M 282.5,233.5 C 277.983,242.017 272.317,249.683 265.5,256.5C 265.215,254.712 265.548,253.045 266.5,251.5C 272.232,245.268 277.399,238.602 282,231.5C 282.464,232.094 282.631,232.761 282.5,233.5 Z"/></g>
<g><path style="opacity:1" fill="#0f0f0f" d="M 361.5,239.5 C 372.143,237.412 379.476,241.245 383.5,251C 381.679,253.137 379.346,253.97 376.5,253.5C 376.451,250.901 375.451,248.734 373.5,247C 361.436,243.188 355.102,247.521 354.5,260C 355.362,271.119 361.362,275.452 372.5,273C 376.953,271.891 378.62,269.058 377.5,264.5C 373.833,264.5 370.167,264.5 366.5,264.5C 366.5,262.5 366.5,260.5 366.5,258.5C 372.167,258.5 377.833,258.5 383.5,258.5C 383.666,263.844 383.499,269.177 383,274.5C 371.698,282.942 361.031,282.275 351,272.5C 343.631,257.778 347.131,246.778 361.5,239.5 Z"/></g>
<g><path style="opacity:1" fill="#101010" d="M 800.5,239.5 C 810.141,237.983 816.807,241.65 820.5,250.5C 819.304,253.138 817.304,253.971 814.5,253C 810.819,245.127 805.153,243.46 797.5,248C 791.636,256.883 792.302,265.217 799.5,273C 808.168,276.001 813.168,273.168 814.5,264.5C 816.861,264.674 819.194,265.007 821.5,265.5C 820.04,274.788 814.54,279.788 805,280.5C 793.098,278.755 786.931,271.755 786.5,259.5C 786.779,249.565 791.446,242.898 800.5,239.5 Z"/></g>
<g><path style="opacity:1" fill="#0f0f0f" d="M 859.5,239.5 C 878.073,238.916 885.906,247.916 883,266.5C 877.613,279.08 868.446,282.913 855.5,278C 845.694,268.996 843.861,258.496 850,246.5C 852.79,243.535 855.957,241.202 859.5,239.5 Z M 861.5,245.5 C 868.35,244.672 873.183,247.339 876,253.5C 877.11,259.426 876.444,265.092 874,270.5C 861.778,277.306 854.612,273.806 852.5,260C 852.887,253.365 855.887,248.532 861.5,245.5 Z"/></g>
<g><path style="opacity:1" fill="#121212" d="M 1152.5,239.5 C 1162.14,237.983 1168.81,241.65 1172.5,250.5C 1171.92,252.461 1170.59,253.461 1168.5,253.5C 1166.36,250.535 1163.7,248.035 1160.5,246C 1156.55,245.088 1152.88,245.755 1149.5,248C 1145.25,254.956 1144.75,262.123 1148,269.5C 1149.17,270.667 1150.33,271.833 1151.5,273C 1155.17,273.667 1158.83,273.667 1162.5,273C 1165.32,270.859 1166.65,268.025 1166.5,264.5C 1168.86,264.674 1171.19,265.007 1173.5,265.5C 1172.01,274.817 1166.51,279.817 1157,280.5C 1145.05,278.71 1138.88,271.71 1138.5,259.5C 1138.95,249.742 1143.61,243.075 1152.5,239.5 Z"/></g>
<g><path style="opacity:1" fill="#111111" d="M 1265.5,239.5 C 1284.1,238.946 1291.94,247.946 1289,266.5C 1283.57,279.092 1274.4,282.925 1261.5,278C 1252.56,270.689 1250.06,261.522 1254,250.5C 1256.44,245.226 1260.27,241.56 1265.5,239.5 Z M 1267.5,245.5 C 1274.35,244.672 1279.18,247.339 1282,253.5C 1282.67,257.833 1282.67,262.167 1282,266.5C 1278.49,273.193 1272.99,275.36 1265.5,273C 1262.62,271.749 1260.79,269.583 1260,266.5C 1259.33,261.833 1259.33,257.167 1260,252.5C 1261.74,249.254 1264.24,246.921 1267.5,245.5 Z"/></g>
<g><path style="opacity:1" fill="#131313" d="M 412.5,239.5 C 421.506,239.334 430.506,239.5 439.5,240C 440.423,242.041 440.756,244.208 440.5,246.5C 433.167,246.5 425.833,246.5 418.5,246.5C 418.5,249.833 418.5,253.167 418.5,256.5C 424.561,256.79 430.561,256.457 436.5,255.5C 439.418,257.008 440.084,259.175 438.5,262C 431.842,262.5 425.175,262.666 418.5,262.5C 418.5,266.167 418.5,269.833 418.5,273.5C 425.841,273.334 433.174,273.5 440.5,274C 441.833,275.667 441.833,277.333 440.5,279C 430.839,279.5 421.172,279.666 411.5,279.5C 411.186,266.087 411.519,252.754 412.5,239.5 Z"/></g>
<g><path style="opacity:1" fill="#0c0c0c" d="M 469.5,239.5 C 471.589,239.857 473.589,240.523 475.5,241.5C 481.333,250.5 487.167,259.5 493,268.5C 493.804,259.785 493.637,251.118 492.5,242.5C 493.968,239.58 496.135,238.913 499,240.5C 499.5,253.496 499.667,266.496 499.5,279.5C 496.881,279.768 494.381,279.435 492,278.5C 486.727,269.563 481.06,260.897 475,252.5C 474.5,261.494 474.334,270.494 474.5,279.5C 472.5,279.5 470.5,279.5 468.5,279.5C 468.186,266.087 468.519,252.754 469.5,239.5 Z"/></g>
<g><path style="opacity:1" fill="#101010" d="M 528.5,239.5 C 537.506,239.334 546.506,239.5 555.5,240C 556.423,242.041 556.756,244.208 556.5,246.5C 549.167,246.5 541.833,246.5 534.5,246.5C 534.5,249.833 534.5,253.167 534.5,256.5C 541.09,256.811 547.59,256.478 554,255.5C 555.741,257.541 555.908,259.708 554.5,262C 547.842,262.5 541.175,262.666 534.5,262.5C 534.5,266.167 534.5,269.833 534.5,273.5C 542.167,273.5 549.833,273.5 557.5,273.5C 557.5,275.5 557.5,277.5 557.5,279.5C 547.584,279.819 537.75,279.486 528,278.5C 527.187,265.425 527.354,252.425 528.5,239.5 Z"/></g>
<g><path style="opacity:1" fill="#111111" d="M 585.5,239.5 C 593.208,239.394 601.208,239.894 609.5,241C 616.876,245.267 618.376,251.101 614,258.5C 612.065,260.102 609.899,261.269 607.5,262C 611.743,267.154 615.743,272.488 619.5,278C 617.045,279.54 614.379,279.874 611.5,279C 608.752,273.754 605.419,268.921 601.5,264.5C 598.298,263.873 595.131,263.206 592,262.5C 591.501,268.157 591.334,273.824 591.5,279.5C 589.167,279.5 586.833,279.5 584.5,279.5C 584.186,266.087 584.519,252.754 585.5,239.5 Z M 591.5,245.5 C 596.418,246.281 601.418,246.781 606.5,247C 610.482,249.952 610.482,252.952 606.5,256C 601.511,256.499 596.511,256.666 591.5,256.5C 591.5,252.833 591.5,249.167 591.5,245.5 Z"/></g>
<g><path style="opacity:1" fill="#101010" d="M 655.5,239.5 C 657.338,240.102 659.171,240.435 661,240.5C 666.74,253.307 671.907,266.307 676.5,279.5C 674.076,279.808 671.743,279.474 669.5,278.5C 667.892,275.618 666.559,272.618 665.5,269.5C 660.5,268.167 655.5,268.167 650.5,269.5C 649.333,272.5 648.167,275.5 647,278.5C 644.959,279.423 642.792,279.756 640.5,279.5C 644.324,265.692 649.324,252.359 655.5,239.5 Z M 657.5,248.5 C 659.395,252.644 661.062,256.977 662.5,261.5C 659.216,262.657 655.882,262.824 652.5,262C 655.057,257.829 656.724,253.329 657.5,248.5 Z"/></g>
<g><path style="opacity:1" fill="#050505" d="M 701.5,239.5 C 703.338,240.102 705.171,240.435 707,240.5C 707.5,251.495 707.667,262.495 707.5,273.5C 713.5,273.5 719.5,273.5 725.5,273.5C 725.5,275.5 725.5,277.5 725.5,279.5C 717.167,279.5 708.833,279.5 700.5,279.5C 700.186,266.087 700.519,252.754 701.5,239.5 Z"/></g>
<g><path style="opacity:1" fill="#0a0a0a" d="M 911.5,239.5 C 912.94,240.363 914.274,240.363 915.5,239.5C 922.234,248.621 928.734,257.955 935,267.5C 935.333,258.5 935.667,249.5 936,240.5C 937.667,239.167 939.333,239.167 941,240.5C 941.5,253.496 941.667,266.496 941.5,279.5C 938.03,280.125 935.196,279.125 933,276.5C 927.916,267.997 922.583,259.664 917,251.5C 916.5,260.827 916.334,270.161 916.5,279.5C 914.5,279.5 912.5,279.5 910.5,279.5C 910.186,266.087 910.519,252.754 911.5,239.5 Z"/></g>
<g><path style="opacity:1" fill="#1e1e1e" d="M 968.5,239.5 C 977.725,239.745 987.058,239.745 996.5,239.5C 997.086,239.709 997.586,240.043 998,240.5C 998.495,242.473 998.662,244.473 998.5,246.5C 994.5,246.5 990.5,246.5 986.5,246.5C 986.667,257.172 986.5,267.839 986,278.5C 983.959,279.423 981.792,279.756 979.5,279.5C 979.5,268.5 979.5,257.5 979.5,246.5C 975.486,246.666 971.486,246.499 967.5,246C 966.144,243.586 966.478,241.419 968.5,239.5 Z"/></g>
<g><path style="opacity:1" fill="#0e0e0e" d="M 1025.5,239.5 C 1033.48,239.016 1041.48,239.516 1049.5,241C 1055.47,245.197 1056.97,250.697 1054,257.5C 1052.05,259.894 1049.55,261.394 1046.5,262C 1051.36,266.88 1055.36,272.38 1058.5,278.5C 1056.24,279.647 1053.9,279.814 1051.5,279C 1047.83,274 1044.17,269 1040.5,264C 1037.18,263.502 1033.85,263.335 1030.5,263.5C 1030.5,268.833 1030.5,274.167 1030.5,279.5C 1028.17,279.5 1025.83,279.5 1023.5,279.5C 1022.88,265.92 1023.55,252.587 1025.5,239.5 Z M 1030.5,245.5 C 1035.75,246.285 1041.08,246.785 1046.5,247C 1049.42,250.472 1049.08,253.472 1045.5,256C 1040.51,256.499 1035.51,256.666 1030.5,256.5C 1030.5,252.833 1030.5,249.167 1030.5,245.5 Z"/></g>
<g><path style="opacity:1" fill="#0f0f0f" d="M 1094.5,239.5 C 1097.38,239.033 1099.71,239.866 1101.5,242C 1106.23,254.13 1111.23,266.13 1116.5,278C 1113.98,279.713 1111.32,279.88 1108.5,278.5C 1107.09,275.273 1106.09,271.94 1105.5,268.5C 1100.17,268.5 1094.83,268.5 1089.5,268.5C 1088.52,271.812 1087.52,275.145 1086.5,278.5C 1084.26,279.474 1081.92,279.808 1079.5,279.5C 1084.1,266.019 1089.1,252.685 1094.5,239.5 Z M 1096.5,249.5 C 1098.76,253.417 1100.76,257.584 1102.5,262C 1099.12,262.824 1095.78,262.657 1092.5,261.5C 1094.41,257.677 1095.75,253.677 1096.5,249.5 Z"/></g>
<g><path style="opacity:1" fill="#111111" d="M 1198.5,239.5 C 1207.78,239.553 1217.11,239.553 1226.5,239.5C 1227.09,239.709 1227.59,240.043 1228,240.5C 1228.5,242.473 1228.66,244.473 1228.5,246.5C 1224.17,246.5 1219.83,246.5 1215.5,246.5C 1215.19,256.886 1215.52,267.219 1216.5,277.5C 1216.29,278.086 1215.96,278.586 1215.5,279C 1213.53,279.495 1211.53,279.662 1209.5,279.5C 1209.5,268.5 1209.5,257.5 1209.5,246.5C 1205.49,246.666 1201.49,246.499 1197.5,246C 1196.14,243.586 1196.48,241.419 1198.5,239.5 Z"/></g>
<g><path style="opacity:1" fill="#121212" d="M 1317.5,239.5 C 1325.54,239.336 1333.54,239.836 1341.5,241C 1344,242.167 1345.83,244 1347,246.5C 1349.71,254.774 1346.88,259.941 1338.5,262C 1340.29,262.785 1341.79,263.951 1343,265.5C 1345.71,269.753 1348.54,273.92 1351.5,278C 1349.05,279.54 1346.38,279.874 1343.5,279C 1340.32,273.645 1336.66,268.645 1332.5,264C 1329.52,263.502 1326.52,263.335 1323.5,263.5C 1323.67,268.511 1323.5,273.511 1323,278.5C 1320.96,279.423 1318.79,279.756 1316.5,279.5C 1316.19,266.087 1316.52,252.754 1317.5,239.5 Z M 1325.5,246.5 C 1329.85,246.334 1334.18,246.501 1338.5,247C 1342.72,250.473 1342.38,253.473 1337.5,256C 1332.85,256.499 1328.18,256.666 1323.5,256.5C 1322.93,252.671 1323.6,249.337 1325.5,246.5 Z"/></g>
<g><path style="opacity:1" fill="#f9faf9" d="M 1325.5,246.5 C 1323.6,249.337 1322.93,252.671 1323.5,256.5C 1322.52,253.038 1322.19,249.371 1322.5,245.5C 1323.79,245.263 1324.79,245.596 1325.5,246.5 Z"/></g>
<g><path style="opacity:1" fill="#e93a30" d="M 264.5,257.5 C 256.024,266.979 246.357,274.979 235.5,281.5C 235.082,280.778 234.416,280.278 233.5,280C 244.527,272.98 254.694,264.813 264,255.5C 264.464,256.094 264.631,256.761 264.5,257.5 Z"/></g>
<g><path style="opacity:1" fill="#ea3630" d="M 216.5,290.5 C 206.426,295.358 195.759,298.692 184.5,300.5C 184.804,299.85 185.137,299.183 185.5,298.5C 190.268,297.475 194.935,296.142 199.5,294.5C 200.086,294.709 200.586,295.043 201,295.5C 204.542,293.866 208.042,292.032 211.5,290C 213.387,289.22 215.054,289.387 216.5,290.5 Z"/></g>
<g><path style="opacity:1" fill="#ec3e39" d="M 180.5,300.5 C 153.312,304.525 127.312,300.525 102.5,288.5C 103.946,287.387 105.613,287.22 107.5,288C 116.282,292.676 125.615,295.343 135.5,296C 135.167,296.333 134.833,296.667 134.5,297C 137.11,297.147 139.444,297.981 141.5,299.5C 154.142,299.723 166.808,299.389 179.5,298.5C 180.298,298.957 180.631,299.624 180.5,300.5 Z"/></g>
</svg>
