<?xml version="1.0" encoding="UTF-8"?>
<!DOCTYPE svg PUBLIC "-//W3C//DTD SVG 1.1//EN" "http://www.w3.org/Graphics/SVG/1.1/DTD/svg11.dtd">
<svg xmlns="http://www.w3.org/2000/svg" version="1.1" width="1035px" height="241px" style="shape-rendering:geometricPrecision; text-rendering:geometricPrecision; image-rendering:optimizeQuality; fill-rule:evenodd; clip-rule:evenodd" xmlns:xlink="http://www.w3.org/1999/xlink">
<g><path style="opacity:1" fill="#000000" d="M 335.5,1.5 C 336.833,2.16667 336.833,2.16667 335.5,1.5 Z"/></g>
<g><path style="opacity:1" fill="#000000" d="M 380.5,2.5 C 381.833,3.16667 381.833,3.16667 380.5,2.5 Z"/></g>
<g><path style="opacity:1" fill="#000000" d="M 905.5,8.5 C 906.833,9.16667 906.833,9.16667 905.5,8.5 Z"/></g>
<g><path style="opacity:1" fill="#000000" d="M 866.5,13.5 C 867.833,14.1667 867.833,14.1667 866.5,13.5 Z"/></g>
<g><path style="opacity:1" fill="#000000" d="M 476.5,14.5 C 477.833,15.1667 477.833,15.1667 476.5,14.5 Z"/></g>
<g><path style="opacity:1" fill="#f8f9f9" d="M 114.5,16.5 C 151.099,13.5627 181.266,25.8961 205,53.5C 206.751,55.212 207.418,57.212 207,59.5C 131.613,44.8556 78.2797,72.1889 47,141.5C 44.6906,147.432 42.1906,153.266 39.5,159C 51.5,159.667 63.5,159.667 75.5,159C 86.1003,137.416 97.9337,116.583 111,96.5C 122.926,83.2856 137.759,75.4522 155.5,73C 176.167,72.3333 196.833,72.3333 217.5,73C 237.31,113.034 234.143,151.201 208,187.5C 174.491,225.002 133.991,235.169 86.5,218C 36.6238,192.414 16.4571,151.914 26,96.5C 39.5637,52.0987 69.0637,25.432 114.5,16.5 Z M 155.5,88.5 C 158.518,88.3354 161.518,88.502 164.5,89C 153.281,111.94 142.448,135.107 132,158.5C 119.378,159.032 106.545,159.198 93.5,159C 101.034,145.434 108.201,131.6 115,117.5C 124.435,102.043 137.935,92.3764 155.5,88.5 Z M 182.5,88.5 C 193.838,88.3335 205.172,88.5001 216.5,89C 205.705,112.092 195.038,135.258 184.5,158.5C 173.265,158.969 161.932,158.969 150.5,158.5C 161.181,135.141 171.848,111.807 182.5,88.5 Z"/></g>
<g><path style="opacity:1" fill="#000000" d="M 392.5,23.5 C 393.833,24.1667 393.833,24.1667 392.5,23.5 Z"/></g>
<g><path style="opacity:1" fill="#000000" d="M 323.5,25.5 C 324.833,26.1667 324.833,26.1667 323.5,25.5 Z"/></g>
<g><path style="opacity:1" fill="#000000" d="M 932.5,26.5 C 933.833,27.1667 933.833,27.1667 932.5,26.5 Z"/></g>
<g><path style="opacity:1" fill="#f5f8f8" d="M 711.5,29.5 C 718.014,29.0446 724.347,29.5446 730.5,31C 729.421,31.956 728.255,32.7894 727,33.5C 726.5,49.8299 726.333,66.1633 726.5,82.5C 727.5,82.5 728.5,82.5 729.5,82.5C 729.5,83.5 729.5,84.5 729.5,85.5C 723.132,85.8297 716.798,85.4963 710.5,84.5C 711.145,83.354 711.978,82.354 713,81.5C 713.667,65.5 713.667,49.5 713,33.5C 710.628,32.6828 710.128,31.3495 711.5,29.5 Z"/></g>
<g><path style="opacity:1" fill="#f6f8f8" d="M 488.5,29.5 C 496.167,29.5 503.833,29.5 511.5,29.5C 510.376,31.731 509.876,34.0643 510,36.5C 515.085,44.4062 519.418,52.7395 523,61.5C 527.986,52.8655 532.986,44.1988 538,35.5C 538.667,34.5 538.667,33.5 538,32.5C 537.333,33.8333 536.667,33.8333 536,32.5C 535.517,31.552 535.351,30.552 535.5,29.5C 543.167,29.5 550.833,29.5 558.5,29.5C 557.956,31.5795 557.122,33.5795 556,35.5C 555.833,42.5 555.667,49.5 555.5,56.5C 555.881,64.4983 555.881,72.3316 555.5,80C 557.112,81.482 558.112,83.3153 558.5,85.5C 552.5,85.5 546.5,85.5 540.5,85.5C 542.704,75.4028 543.038,65.2362 541.5,55C 540.668,54.3123 540.002,54.479 539.5,55.5C 534.575,65.6953 528.908,75.362 522.5,84.5C 515.641,74.7863 509.808,64.453 505,53.5C 502.841,64.2415 503.008,74.9082 505.5,85.5C 499.833,85.5 494.167,85.5 488.5,85.5C 489.751,76.2879 490.418,66.9545 490.5,57.5C 490.418,48.0455 489.751,38.7121 488.5,29.5 Z"/></g>
<g><path style="opacity:1" fill="#000000" d="M 266.5,33.5 C 267.833,34.1667 267.833,34.1667 266.5,33.5 Z"/></g>
<g><path style="opacity:1" fill="#f6f9f8" d="M 286.5,28.5 C 296.965,27.4446 306.965,29.1113 316.5,33.5C 318.049,31.2297 319.383,31.563 320.5,34.5C 318.908,40.0341 316.075,44.7008 312,48.5C 311.474,46.45 310.641,44.6166 309.5,43C 299.587,38.0254 289.92,38.3588 280.5,44C 273.719,51.5309 272.885,59.6976 278,68.5C 282.643,73.1629 288.31,75.4963 295,75.5C 300.319,75.1934 305.486,74.1934 310.5,72.5C 311.466,70.604 311.799,68.604 311.5,66.5C 306.489,66.3341 301.489,66.5007 296.5,67C 295.324,69.301 293.99,69.6343 292.5,68C 293.467,63.5986 293.8,59.0986 293.5,54.5C 295.592,54.5614 297.092,55.5614 298,57.5C 305.647,57.632 313.313,57.2986 321,56.5C 322.205,57.0712 323.372,57.7379 324.5,58.5C 322.937,61.2216 322.271,64.2216 322.5,67.5C 322.667,69.8333 322.833,72.1667 323,74.5C 323.925,75.0465 324.758,75.7132 325.5,76.5C 312.124,85.6754 297.457,88.5087 281.5,85C 264.79,78.9205 258.29,67.0872 262,49.5C 266.29,37.9433 274.457,30.9433 286.5,28.5 Z"/></g>
<g><path style="opacity:1" fill="#f6f8f8" d="M 902.5,29.5 C 909.5,29.5 916.5,29.5 923.5,29.5C 923.297,31.6382 922.297,33.3049 920.5,34.5C 927.806,50.4455 935.639,66.1122 944,81.5C 945,82.8333 946,82.8333 947,81.5C 947.684,82.7839 947.517,83.9505 946.5,85C 939.508,85.4996 932.508,85.6663 925.5,85.5C 925.561,83.4078 926.561,81.9078 928.5,81C 927.001,77.8437 925.668,74.6771 924.5,71.5C 916.167,71.5 907.833,71.5 899.5,71.5C 898.866,74.9374 897.533,78.1041 895.5,81C 897.439,81.9078 898.439,83.4078 898.5,85.5C 891.655,85.9579 884.988,85.4579 878.5,84C 879.579,83.044 880.745,82.2106 882,81.5C 890.49,65.8649 897.823,49.8649 904,33.5C 901.628,32.6828 901.128,31.3495 902.5,29.5 Z M 911.5,46.5 C 914.105,50.7795 916.438,55.2795 918.5,60C 917.672,60.9147 916.672,61.5814 915.5,62C 911.833,62.6667 908.167,62.6667 904.5,62C 906.957,56.9169 909.29,51.7502 911.5,46.5 Z"/></g>
<g><path style="opacity:1" fill="#f6f9f8" d="M 968.5,28.5 C 979.592,27.4852 990.092,29.4852 1000,34.5C 1001.71,33.0474 1003.21,33.2141 1004.5,35C 1001.8,39.2226 999.804,43.7226 998.5,48.5C 997.5,48.5 996.5,48.5 995.5,48.5C 995.703,46.6096 995.037,45.1096 993.5,44C 984.767,39.0538 975.767,38.3871 966.5,42C 964.925,44.9356 965.425,47.4356 968,49.5C 968.333,49.1667 968.667,48.8333 969,48.5C 976.062,50.0257 983.229,51.1924 990.5,52C 1002.88,55.3984 1007.05,63.2317 1003,75.5C 1000.04,80.2315 995.877,83.3981 990.5,85C 983.548,86.3968 976.548,86.7301 969.5,86C 963.122,84.1341 956.789,82.3008 950.5,80.5C 952.047,75.0761 954.38,70.0761 957.5,65.5C 958.239,67.544 959.573,69.7107 961.5,72C 968.872,75.132 976.538,76.132 984.5,75C 987.102,74.1166 989.269,72.6166 991,70.5C 991.711,68.6332 991.211,67.1332 989.5,66C 980.876,64.4278 972.209,63.0944 963.5,62C 953.699,57.8977 950.199,50.7311 953,40.5C 953.883,37.8976 955.383,35.7309 957.5,34C 961.017,31.6738 964.683,29.8405 968.5,28.5 Z"/></g>
<g><path style="opacity:1" fill="#000000" d="M 311.5,49.5 C 312.833,50.1667 312.833,50.1667 311.5,49.5 Z"/></g>
<g><path style="opacity:1" fill="#f6f8f8" d="M 359.5,29.5 C 366.833,29.5 374.167,29.5 381.5,29.5C 380.833,31.8194 380.666,34.1527 381,36.5C 385.367,44.8531 389.701,53.1864 394,61.5C 399,52.8333 404,44.1667 409,35.5C 408.848,33.4815 408.348,31.4815 407.5,29.5C 414.833,29.5 422.167,29.5 429.5,29.5C 429.271,31.433 428.438,33.0997 427,34.5C 426.833,41.8333 426.667,49.1667 426.5,56.5C 426.872,64.6773 426.872,72.6773 426.5,80.5C 428.297,81.6951 429.297,83.3618 429.5,85.5C 423.132,85.8297 416.798,85.4963 410.5,84.5C 411.145,83.354 411.978,82.354 413,81.5C 413.945,72.0654 413.611,62.7321 412,53.5C 406.333,63.5 400.667,73.5 395,83.5C 394.439,84.0219 393.772,84.3552 393,84.5C 386.236,73.9766 380.236,62.9766 375,51.5C 373.973,62.9741 374.473,74.3074 376.5,85.5C 370.833,85.5 365.167,85.5 359.5,85.5C 360.688,83.1215 361.688,80.6215 362.5,78C 361.439,63.6205 361.439,49.1205 362.5,34.5C 360.703,33.3049 359.703,31.6382 359.5,29.5 Z"/></g>
<g><path style="opacity:1" fill="#000000" d="M 737.5,51.5 C 738.833,52.1667 738.833,52.1667 737.5,51.5 Z"/></g>
<g><path style="opacity:1" fill="#000000" d="M 887.5,53.5 C 888.833,54.1667 888.833,54.1667 887.5,53.5 Z"/></g>
<g><path style="opacity:1" fill="#f7f8f8" d="M 739.5,29.5 C 746.167,29.5 752.833,29.5 759.5,29.5C 758.987,31.2895 758.487,32.9562 758,34.5C 766.97,44.4704 776.303,54.1371 786,63.5C 787.638,53.6601 787.971,43.6601 787,33.5C 785.5,32.6667 784.333,31.5 783.5,30C 789.825,29.5005 796.158,29.3338 802.5,29.5C 802.539,31.3588 801.706,32.6921 800,33.5C 799.333,49.5 799.333,65.5 800,81.5C 801.022,82.354 801.855,83.354 802.5,84.5C 796.202,85.4963 789.868,85.8297 783.5,85.5C 784.013,83.7105 784.513,82.0438 785,80.5C 775.027,70.527 765.027,60.527 755,50.5C 754.911,56.1183 754.744,61.9516 754.5,68C 754.644,73.9621 755.31,79.7955 756.5,85.5C 750.833,85.5 745.167,85.5 739.5,85.5C 739.461,83.6412 740.294,82.3079 742,81.5C 742.167,79.3333 742.333,77.1667 742.5,75C 742.255,65.8972 742.255,56.8972 742.5,48C 741.608,41.9013 740.608,35.7347 739.5,29.5 Z"/></g>
<g><path style="opacity:1" fill="#000000" d="M 224.5,55.5 C 225.833,56.1667 225.833,56.1667 224.5,55.5 Z"/></g>
<g><path style="opacity:1" fill="#f6f8f8" d="M 587.5,29.5 C 594.5,29.5 601.5,29.5 608.5,29.5C 607.188,32.0245 606.688,34.6912 607,37.5C 614,51.5 621,65.5 628,79.5C 628.908,81.4386 630.408,82.4386 632.5,82.5C 632.5,83.5 632.5,84.5 632.5,85.5C 625.5,85.5 618.5,85.5 611.5,85.5C 611.626,83.8002 612.293,82.3002 613.5,81C 611.595,72.594 606.262,69.4273 597.5,71.5C 593.5,71.6667 589.5,71.8333 585.5,72C 584.065,74.8138 582.732,77.6471 581.5,80.5C 582.249,82.0356 583.249,83.3689 584.5,84.5C 577.866,85.4967 571.2,85.83 564.5,85.5C 573.396,70.045 581.562,54.045 589,37.5C 589.312,34.6912 588.812,32.0245 587.5,29.5 Z M 596.5,47.5 C 598.686,48.8233 600.186,50.8233 601,53.5C 601.695,55.7221 602.528,57.8887 603.5,60C 603.355,60.772 603.022,61.4387 602.5,62C 598.459,62.8265 594.459,62.6599 590.5,61.5C 592.512,56.8119 594.512,52.1452 596.5,47.5 Z"/></g>
<g><path style="opacity:1" fill="#f6f8f8" d="M 637.5,29.5 C 644.167,29.5 650.833,29.5 657.5,29.5C 657.703,31.3904 657.037,32.8904 655.5,34C 664.609,44.1106 674.109,53.9439 684,63.5C 685.615,53.5998 685.949,43.5998 685,33.5C 682.878,32.7801 682.378,31.6134 683.5,30C 689.157,29.5006 694.824,29.3339 700.5,29.5C 700.539,31.3588 699.706,32.6921 698,33.5C 697.745,49.8936 697.578,66.2269 697.5,82.5C 698.5,82.5 699.5,82.5 700.5,82.5C 700.5,83.5 700.5,84.5 700.5,85.5C 694.167,85.5 687.833,85.5 681.5,85.5C 682.013,83.7105 682.513,82.0438 683,80.5C 673,70.5 663,60.5 653,50.5C 651.968,62.3064 652.468,73.9731 654.5,85.5C 648.794,85.8288 643.128,85.4954 637.5,84.5C 636.391,82.7859 637.058,82.1192 639.5,82.5C 639.261,80.5328 639.594,78.6995 640.5,77C 640.089,61.1114 639.089,45.278 637.5,29.5 Z"/></g>
<g><path style="opacity:1" fill="#f9faf9" d="M 683.5,34.5 C 684.833,35.1667 684.833,35.1667 683.5,34.5 Z"/></g>
<g><path style="opacity:1" fill="#000000" d="M 740.5,70.5 C 741.833,71.1667 741.833,71.1667 740.5,70.5 Z"/></g>
<g><path style="opacity:1" fill="#f6f9f8" d="M 836.5,28.5 C 846.635,27.4862 856.302,29.1528 865.5,33.5C 866.736,32.7542 868.07,32.4208 869.5,32.5C 868.123,37.589 866.457,42.589 864.5,47.5C 861.671,47.6751 860.004,46.3418 859.5,43.5C 847.554,37.0213 836.721,38.3547 827,47.5C 820.94,64.7285 826.94,74.0618 845,75.5C 849.991,75.1965 854.824,74.1965 859.5,72.5C 860.466,70.604 860.799,68.604 860.5,66.5C 855.515,66.6641 850.682,66.6641 846,66.5C 845.935,68.8833 845.102,69.55 843.5,68.5C 842.507,63.8804 842.173,59.2137 842.5,54.5C 844.638,54.703 846.305,55.703 847.5,57.5C 848.167,57.1667 848.833,56.8333 849.5,56.5C 857.806,57.1389 866.139,57.8055 874.5,58.5C 872.143,61.0234 871.143,64.0234 871.5,67.5C 871.479,71.2305 872.312,74.5638 874,77.5C 859.483,86.668 843.983,88.8347 827.5,84C 813.934,77.3689 808.434,66.5356 811,51.5C 814.938,38.7266 823.438,31.06 836.5,28.5 Z"/></g>
<g><path style="opacity:1" fill="#000000" d="M 950.5,72.5 C 951.833,73.1667 951.833,73.1667 950.5,72.5 Z"/></g>
<g><path style="opacity:1" fill="#000000" d="M 902.5,78.5 C 903.833,79.1667 903.833,79.1667 902.5,78.5 Z"/></g>
<g><path style="opacity:1" fill="#f2f8f8" d="M 338.5,72.5 C 348.482,72.3777 351.148,76.5444 346.5,85C 337.883,88.2926 334.05,85.4592 335,76.5C 335.69,74.6498 336.856,73.3164 338.5,72.5 Z"/></g>
<g><path style="opacity:1" fill="#000000" d="M 740.5,79.5 C 741.833,80.1667 741.833,80.1667 740.5,79.5 Z"/></g>
<g><path style="opacity:1" fill="#f3f8f7" d="M 444.5,72.5 C 450.523,71.1966 454.189,73.53 455.5,79.5C 452.183,87.4638 447.35,88.4638 441,82.5C 439.756,78.191 440.923,74.8577 444.5,72.5 Z"/></g>
<g><path style="opacity:1" fill="#000000" d="M 101.5,86.5 C 102.833,87.1667 102.833,87.1667 101.5,86.5 Z"/></g>
<g><path style="opacity:1" fill="#000000" d="M 377.5,99.5 C 378.833,100.167 378.833,100.167 377.5,99.5 Z"/></g>
<g><path style="opacity:1" fill="#000000" d="M 71.5,105.5 C 72.8333,106.167 72.8333,106.167 71.5,105.5 Z"/></g>
<g><path style="opacity:1" fill="#f6f8f8" d="M 657.5,107.5 C 658.756,107.461 659.756,107.961 660.5,109C 666.667,109.167 672.833,109.333 679,109.5C 685.67,109.46 692.17,108.793 698.5,107.5C 699.881,108 700.547,109 700.5,110.5C 700.362,113.67 700.029,116.837 699.5,120C 694.732,118.749 689.732,118.249 684.5,118.5C 684.474,128.457 684.141,138.457 683.5,148.5C 684.853,149.524 685.52,150.857 685.5,152.5C 680.786,152.827 676.12,152.493 671.5,151.5C 671.808,150.692 672.308,150.025 673,149.5C 673.5,139.172 673.666,128.839 673.5,118.5C 669.233,118.797 665.066,118.464 661,117.5C 660.632,118.91 659.799,119.91 658.5,120.5C 657.508,116.217 657.174,111.884 657.5,107.5 Z"/></g>
<g><path style="opacity:1" fill="#f7f9f8" d="M 557.5,109.5 C 562.167,109.5 566.833,109.5 571.5,109.5C 569.494,119.355 568.994,129.355 570,139.5C 572.678,143.07 576.344,144.737 581,144.5C 585.484,144.907 588.817,143.241 591,139.5C 592.006,129.355 591.506,119.355 589.5,109.5C 594.167,109.5 598.833,109.5 603.5,109.5C 601.814,120.026 600.98,130.693 601,141.5C 599.99,145.843 597.49,149.01 593.5,151C 582.34,155.048 571.84,153.881 562,147.5C 561.333,146.167 560.667,144.833 560,143.5C 559.633,136.989 559.133,130.489 558.5,124C 559.6,119.105 559.267,114.272 557.5,109.5 Z"/></g>
<g><path style="opacity:1" fill="#f5f8f8" d="M 865.5,109.5 C 870.214,109.173 874.88,109.507 879.5,110.5C 880.609,112.214 879.942,112.881 877.5,112.5C 877.5,124.833 877.5,137.167 877.5,149.5C 878.5,149.5 879.5,149.5 880.5,149.5C 880.5,150.5 880.5,151.5 880.5,152.5C 875.5,152.5 870.5,152.5 865.5,152.5C 866.532,149.294 867.199,145.961 867.5,142.5C 866.332,133.823 866.332,125.156 867.5,116.5C 866.818,114.159 866.151,111.826 865.5,109.5 Z"/></g>
<g><path style="opacity:1" fill="#f9faf9" d="M 655.5,117.5 C 656.833,118.167 656.833,118.167 655.5,117.5 Z"/></g>
<g><path style="opacity:1" fill="#f6f9f9" d="M 702.5,109.5 C 707.167,109.5 711.833,109.5 716.5,109.5C 714.45,122.698 713.95,136.031 715,149.5C 715.692,150.025 716.192,150.692 716.5,151.5C 711.88,152.493 707.214,152.827 702.5,152.5C 705.167,138.167 705.167,123.833 702.5,109.5 Z"/></g>
<g><path style="opacity:1" fill="#f5f8f8" d="M 885.5,109.5 C 890.833,109.5 896.167,109.5 901.5,109.5C 901.64,111.124 900.973,112.29 899.5,113C 906.569,120.613 913.736,128.113 921,135.5C 921.667,127.833 921.667,120.167 921,112.5C 920.5,112 920,111.5 919.5,111C 921.8,109.891 924.3,109.391 927,109.5C 929.167,109.833 931.333,110.167 933.5,110.5C 934.609,112.214 933.942,112.881 931.5,112.5C 931.55,124.68 931.55,136.68 931.5,148.5C 932.167,149.5 932.833,150.5 933.5,151.5C 928.88,152.493 924.214,152.827 919.5,152.5C 919.33,151.178 919.663,150.011 920.5,149C 913,141.5 905.5,134 898,126.5C 897.333,134.167 897.333,141.833 898,149.5C 898.692,150.025 899.192,150.692 899.5,151.5C 894.833,152.833 890.167,152.833 885.5,151.5C 885.808,150.692 886.308,150.025 887,149.5C 888.05,136.031 887.55,122.698 885.5,109.5 Z"/></g>
<g><path style="opacity:1" fill="#f6f8f8" d="M 462.5,107.5 C 475.698,109.55 489.031,110.05 502.5,109C 503.025,108.308 503.692,107.808 504.5,107.5C 505.928,111.983 505.762,116.316 504,120.5C 503.5,120 503,119.5 502.5,119C 498.247,118.8 494.08,118.3 490,117.5C 489.333,128.167 489.333,138.833 490,149.5C 490.692,150.025 491.192,150.692 491.5,151.5C 486.533,152.662 481.533,152.829 476.5,152C 477.047,151.075 477.713,150.242 478.5,149.5C 479.445,139.145 479.778,128.978 479.5,119C 473.942,117.205 468.609,117.705 463.5,120.5C 461.566,120.099 460.066,119.099 459,117.5C 457.985,120.21 456.485,122.543 454.5,124.5C 452.364,120.607 449.031,118.44 444.5,118C 439.564,116.877 435.064,117.71 431,120.5C 430.53,122.549 431.364,123.883 433.5,124.5C 441.079,124.889 448.412,126.389 455.5,129C 462.395,136.299 462.061,143.299 454.5,150C 442.48,155.019 430.813,154.185 419.5,147.5C 420.897,143.706 422.564,140.039 424.5,136.5C 425.95,137.655 426.95,139.155 427.5,141C 434.203,144.731 441.203,145.397 448.5,143C 451.335,140.158 450.835,137.992 447,136.5C 446.667,136.833 446.333,137.167 446,137.5C 441.258,136.393 436.424,135.559 431.5,135C 421.467,131.618 418.634,125.118 423,115.5C 427.638,110.839 433.305,108.505 440,108.5C 445.951,109.237 451.618,110.904 457,113.5C 458.533,112.305 460.033,112.305 461.5,113.5C 462.466,111.604 462.799,109.604 462.5,107.5 Z"/></g>
<g><path style="opacity:1" fill="#f6f8f8" d="M 959.5,108.5 C 967.414,108.095 974.748,109.929 981.5,114C 983.112,114.72 984.612,114.554 986,113.5C 986.5,114 987,114.5 987.5,115C 985.291,118.586 982.957,122.086 980.5,125.5C 972.855,116.904 963.855,115.404 953.5,121C 948.918,126.826 948.418,132.992 952,139.5C 960.213,145.761 968.713,146.095 977.5,140.5C 978.148,138.851 979.148,137.518 980.5,136.5C 982.64,139.807 984.974,142.974 987.5,146C 986.351,147.744 985.017,147.911 983.5,146.5C 968.757,156.59 954.924,155.59 942,143.5C 934.645,125.01 940.478,113.343 959.5,108.5 Z"/></g>
<g><path style="opacity:1" fill="#f9faf9" d="M 305.5,122.5 C 306.833,123.167 306.833,123.167 305.5,122.5 Z"/></g>
<g><path style="opacity:1" fill="#f6f8f8" d="M 507.5,109.5 C 518.838,109.333 530.172,109.5 541.5,110C 550.142,112.099 553.642,117.599 552,126.5C 550.07,130.886 546.903,134.052 542.5,136C 545.676,141.877 549.676,147.044 554.5,151.5C 549.208,152.495 543.875,152.828 538.5,152.5C 538.33,151.178 538.663,150.011 539.5,149C 536.623,144.745 533.623,140.578 530.5,136.5C 527.232,135.513 523.898,135.18 520.5,135.5C 520.334,140.179 520.501,144.845 521,149.5C 521.692,150.025 522.192,150.692 522.5,151.5C 517.5,152.833 512.5,152.833 507.5,151.5C 507.808,150.692 508.308,150.025 509,149.5C 509.167,144.5 509.333,139.5 509.5,134.5C 509.06,127.906 509.06,121.406 509.5,115C 508.622,113.2 507.955,111.367 507.5,109.5 Z M 520.5,118.5 C 526.842,118.334 533.175,118.5 539.5,119C 542.894,123.686 541.727,126.519 536,127.5C 531.002,127.346 525.835,127.346 520.5,127.5C 520.5,124.5 520.5,121.5 520.5,118.5 Z"/></g>
<g><path style="opacity:1" fill="#f5f8f8" d="M 655.5,117.5 C 653.509,120.137 651.509,122.804 649.5,125.5C 647.279,121.044 643.612,118.544 638.5,118C 623.696,116.469 617.529,122.969 620,137.5C 627.779,145.441 636.613,146.608 646.5,141C 647.772,139.693 648.772,138.193 649.5,136.5C 651.699,139.718 654.033,142.884 656.5,146C 655.675,147.688 654.675,147.855 653.5,146.5C 639.023,156.464 625.19,155.797 612,144.5C 603.473,123.562 610.473,111.562 633,108.5C 640.357,108.845 647.024,111.178 653,115.5C 656.188,112.849 657.021,113.516 655.5,117.5 Z"/></g>
<g><path style="opacity:1" fill="#f6f8f8" d="M 332.5,108.5 C 356.815,108.952 365.315,120.619 358,143.5C 347.332,154.554 335.165,156.388 321.5,149C 309.232,137.322 309.232,125.322 321.5,113C 325.157,111.178 328.824,109.678 332.5,108.5 Z M 333.5,117.5 C 347.898,117.619 353.065,124.619 349,138.5C 343.953,144.488 337.786,145.988 330.5,143C 327.667,141.5 325.5,139.333 324,136.5C 321.597,127.136 324.764,120.802 333.5,117.5 Z"/></g>
<g><path style="opacity:1" fill="#f6f8f8" d="M 305.5,122.5 C 304.735,123.66 303.735,124.66 302.5,125.5C 301.707,122.874 300.04,121.04 297.5,120C 290.804,116.754 284.137,116.754 277.5,120C 270.587,126.063 269.753,132.896 275,140.5C 283.887,145.994 292.554,145.661 301,139.5C 301.483,138.552 301.649,137.552 301.5,136.5C 302.5,136.5 303.5,136.5 304.5,136.5C 305.484,139.965 307.15,143.131 309.5,146C 304.859,147.951 300.193,149.951 295.5,152C 284.391,155.263 274.558,153.096 266,145.5C 258.826,135.816 258.826,126.15 266,116.5C 279.013,106.201 292.346,105.868 306,115.5C 307.156,114.007 307.99,114.174 308.5,116C 307.609,118.279 306.609,120.446 305.5,122.5 Z"/></g>
<g><path style="opacity:1" fill="#f5f8f8" d="M 776.5,109.5 C 781.5,109.5 786.5,109.5 791.5,109.5C 791.298,111.989 791.798,114.323 793,116.5C 799.054,122.554 805.054,128.554 811,134.5C 813.094,126.111 812.927,117.778 810.5,109.5C 815.214,109.173 819.88,109.507 824.5,110.5C 824.192,111.308 823.692,111.975 823,112.5C 821.95,125.969 822.45,139.302 824.5,152.5C 819.456,152.827 814.456,152.494 809.5,151.5C 810.661,149.776 810.495,148.11 809,146.5C 802.387,139.887 795.721,133.221 789,126.5C 787.864,130.321 787.364,134.321 787.5,138.5C 787.667,142.167 787.833,145.833 788,149.5C 788.692,150.025 789.192,150.692 789.5,151.5C 785.217,152.492 780.884,152.826 776.5,152.5C 776.36,150.876 777.027,149.71 778.5,149C 778.793,136.261 778.126,123.094 776.5,109.5 Z"/></g>
<g><path style="opacity:1" fill="#f6f8f8" d="M 365.5,110.5 C 370.64,109.512 375.974,109.179 381.5,109.5C 381.67,110.822 381.337,111.989 380.5,113C 387.274,120.777 394.441,128.277 402,135.5C 402.744,126.798 402.578,118.132 401.5,109.5C 405.833,109.5 410.167,109.5 414.5,109.5C 412.45,122.698 411.95,136.031 413,149.5C 413.692,150.025 414.192,150.692 414.5,151.5C 409.5,152.833 404.5,152.833 399.5,151.5C 399.977,150.522 400.643,149.689 401.5,149C 394,141.5 386.5,134 379,126.5C 378.626,127.416 378.126,128.25 377.5,129C 378.833,135.667 378.833,142.333 377.5,149C 378.91,149.368 379.91,150.201 380.5,151.5C 378.659,152.23 376.825,152.897 375,153.5C 372.281,152.556 369.448,152.223 366.5,152.5C 368.716,139.29 369.05,125.957 367.5,112.5C 366.818,111.757 366.151,111.091 365.5,110.5 Z"/></g>
<g><path style="opacity:1" fill="#f6f8f8" d="M 742.5,108.5 C 758.843,107.7 768.51,115.2 771.5,131C 767.597,149.632 756.264,156.632 737.5,152C 727.493,148.825 722.159,141.991 721.5,131.5C 722.667,118.339 729.667,110.672 742.5,108.5 Z M 743.5,117.5 C 758.304,118.447 762.97,125.78 757.5,139.5C 751.467,145.087 744.8,145.921 737.5,142C 731.3,135.272 730.967,128.272 736.5,121C 738.925,119.787 741.259,118.621 743.5,117.5 Z"/></g>
<g><path style="opacity:1" fill="#000000" d="M 665.5,134.5 C 666.833,135.167 666.833,135.167 665.5,134.5 Z"/></g>
<g><path style="opacity:1" fill="#000000" d="M 257.5,137.5 C 258.833,138.167 258.833,138.167 257.5,137.5 Z"/></g>
<g><path style="opacity:1" fill="#f2f8f8" d="M 997.5,141.5 C 1006.61,145.039 1006.77,149.039 998,153.5C 990.872,149.689 990.705,145.689 997.5,141.5 Z"/></g>
<g><path style="opacity:1" fill="#000000" d="M 470.5,149.5 C 471.833,150.167 471.833,150.167 470.5,149.5 Z"/></g>
<g><path style="opacity:1" fill="#000000" d="M 758.5,153.5 C 759.833,154.167 759.833,154.167 758.5,153.5 Z"/></g>
<g><path style="opacity:1" fill="#000000" d="M 296.5,154.5 C 297.833,155.167 297.833,155.167 296.5,154.5 Z"/></g>
<g><path style="opacity:1" fill="#f1f8f8" d="M 835.5,141.5 C 840.396,141.563 842.729,144.063 842.5,149C 842.418,154.67 839.918,158.837 835,161.5C 834.308,160.975 833.808,160.308 833.5,159.5C 835.226,157.772 836.559,155.772 837.5,153.5C 832.156,152.655 830.323,149.655 832,144.5C 833.145,143.364 834.312,142.364 835.5,141.5 Z"/></g>
<g><path style="opacity:1" fill="#000000" d="M 305.5,158.5 C 306.833,159.167 306.833,159.167 305.5,158.5 Z"/></g>
<g><path style="opacity:1" fill="#000000" d="M 620.5,158.5 C 621.833,159.167 621.833,159.167 620.5,158.5 Z"/></g>
<g><path style="opacity:1" fill="#000000" d="M 683.5,159.5 C 684.833,160.167 684.833,160.167 683.5,159.5 Z"/></g>
<g><path style="opacity:1" fill="#000000" d="M 992.5,163.5 C 993.833,164.167 993.833,164.167 992.5,163.5 Z"/></g>
<g><path style="opacity:1" fill="#000000" d="M 323.5,166.5 C 324.833,167.167 324.833,167.167 323.5,166.5 Z"/></g>
<g><path style="opacity:1" fill="#000000" d="M 785.5,172.5 C 786.833,173.167 786.833,173.167 785.5,172.5 Z"/></g>
<g><path style="opacity:1" fill="#000000" d="M 869.5,176.5 C 870.833,177.167 870.833,177.167 869.5,176.5 Z"/></g>
<g><path style="opacity:1" fill="#000000" d="M 755.5,178.5 C 756.833,179.167 756.833,179.167 755.5,178.5 Z"/></g>
<g><path style="opacity:1" fill="#f4f9f9" d="M 973.5,181.5 C 980.257,181.123 986.924,181.623 993.5,183C 999.22,188.523 998.553,193.19 991.5,197C 994.167,201.333 996.833,205.667 999.5,210C 997.5,210.667 995.5,210.667 993.5,210C 991.188,206.03 988.522,202.363 985.5,199C 983.19,198.503 980.857,198.337 978.5,198.5C 978.5,202.5 978.5,206.5 978.5,210.5C 976.833,210.5 975.167,210.5 973.5,210.5C 973.5,200.833 973.5,191.167 973.5,181.5 Z M 982.5,192.5 C 981.417,192.539 980.417,192.873 979.5,193.5C 978.348,190.894 978.182,188.227 979,185.5C 981.554,187.924 984.054,187.924 986.5,185.5C 988.333,186.052 990,186.885 991.5,188C 991.507,189.583 991.174,191.249 990.5,193C 987.633,193.801 984.966,193.634 982.5,192.5 Z"/></g>
<g><path style="opacity:1" fill="#000000" d="M 254.5,183.5 C 255.833,184.167 255.833,184.167 254.5,183.5 Z"/></g>
<g><path style="opacity:1" fill="#f5f9f9" d="M 307.5,181.5 C 314.5,181.5 321.5,181.5 328.5,181.5C 328.966,183.201 328.966,184.701 328.5,186C 323.177,186.499 317.844,186.666 312.5,186.5C 312.5,188.833 312.5,191.167 312.5,193.5C 317.5,193.5 322.5,193.5 327.5,193.5C 327.5,194.833 327.5,196.167 327.5,197.5C 322.5,197.5 317.5,197.5 312.5,197.5C 312.5,200.167 312.5,202.833 312.5,205.5C 317.844,205.334 323.177,205.501 328.5,206C 329.38,207.356 329.714,208.856 329.5,210.5C 322.167,210.5 314.833,210.5 307.5,210.5C 307.5,200.833 307.5,191.167 307.5,181.5 Z"/></g>
<g><path style="opacity:1" fill="#f4f9f9" d="M 349.5,181.5 C 351.288,181.215 352.955,181.548 354.5,182.5C 358.42,188.674 362.587,194.674 367,200.5C 367.5,194.175 367.666,187.842 367.5,181.5C 369.167,181.5 370.833,181.5 372.5,181.5C 372.5,191.167 372.5,200.833 372.5,210.5C 370.533,210.739 368.699,210.406 367,209.5C 363,203.5 359,197.5 355,191.5C 354.5,197.825 354.334,204.158 354.5,210.5C 352.833,210.5 351.167,210.5 349.5,210.5C 349.5,200.833 349.5,191.167 349.5,181.5 Z"/></g>
<g><path style="opacity:1" fill="#f4f9f9" d="M 435.5,181.5 C 441.176,181.334 446.843,181.501 452.5,182C 460.485,187.282 460.485,192.616 452.5,198C 455.719,201.396 458.385,205.229 460.5,209.5C 458.5,210.833 456.5,210.833 454.5,209.5C 452.043,206.086 449.709,202.586 447.5,199C 445.19,198.503 442.857,198.337 440.5,198.5C 440.5,202.5 440.5,206.5 440.5,210.5C 438.833,210.5 437.167,210.5 435.5,210.5C 435.5,200.833 435.5,191.167 435.5,181.5 Z M 441.5,192.5 C 440.85,190.565 440.517,188.565 440.5,186.5C 443.833,185.3 447.167,185.3 450.5,186.5C 453.905,188.212 454.239,190.378 451.5,193C 448.076,193.747 444.743,193.58 441.5,192.5 Z"/></g>
<g><path style="opacity:1" fill="#f5f9f9" d="M 810.5,181.5 C 812.144,181.286 813.644,181.62 815,182.5C 818.833,191.5 822.667,200.5 826.5,209.5C 824.604,210.466 822.604,210.799 820.5,210.5C 819.969,207.763 819.136,205.096 818,202.5C 817.275,201.941 816.442,201.608 815.5,201.5C 812.94,202.656 810.44,202.656 808,201.5C 806.558,204.05 805.392,206.716 804.5,209.5C 802.955,210.452 801.288,210.785 799.5,210.5C 802.885,200.729 806.552,191.063 810.5,181.5 Z M 814.5,194.5 C 813.957,194.56 813.624,194.893 813.5,195.5C 814.376,196.251 815.376,196.751 816.5,197C 814.19,197.497 811.857,197.663 809.5,197.5C 809.378,194.743 810.545,192.743 813,191.5C 814.039,192.244 814.539,193.244 814.5,194.5 Z"/></g>
<g><path style="opacity:1" fill="#000000" d="M 803.5,185.5 C 804.833,186.167 804.833,186.167 803.5,185.5 Z"/></g>
<g><path style="opacity:1" fill="#000000" d="M 671.5,186.5 C 672.833,187.167 672.833,187.167 671.5,186.5 Z"/></g>
<g><path style="opacity:1" fill="#000000" d="M 332.5,187.5 C 333.833,188.167 333.833,188.167 332.5,187.5 Z"/></g>
<g><path style="opacity:1" fill="#f5f9f9" d="M 886.5,181.5 C 894.167,181.5 901.833,181.5 909.5,181.5C 909.5,183.167 909.5,184.833 909.5,186.5C 906.15,186.335 902.817,186.502 899.5,187C 899.629,194.708 899.629,202.541 899.5,210.5C 897.833,210.5 896.167,210.5 894.5,210.5C 894.5,202.5 894.5,194.5 894.5,186.5C 891.813,186.664 889.146,186.497 886.5,186C 885.272,184.51 885.272,183.01 886.5,181.5 Z"/></g>
<g><path style="opacity:1" fill="#f3f9f9" d="M 716.5,181.5 C 724.174,181.334 731.841,181.5 739.5,182C 740.711,183.113 740.711,184.28 739.5,185.5C 736.572,186.484 733.572,186.817 730.5,186.5C 730.5,194.5 730.5,202.5 730.5,210.5C 728.833,210.5 727.167,210.5 725.5,210.5C 725.5,202.5 725.5,194.5 725.5,186.5C 722.5,186.5 719.5,186.5 716.5,186.5C 716.5,184.833 716.5,183.167 716.5,181.5 Z"/></g>
<g><path style="opacity:1" fill="#e1faf9" d="M 982.5,192.5 C 982.696,190.354 983.696,190.188 985.5,192C 984.552,192.483 983.552,192.649 982.5,192.5 Z"/></g>
<g><path style="opacity:1" fill="#000000" d="M 380.5,197.5 C 381.833,198.167 381.833,198.167 380.5,197.5 Z"/></g>
<g><path style="opacity:1" fill="#f5f9f9" d="M 486.5,181.5 C 488.288,181.215 489.955,181.548 491.5,182.5C 495.741,191.642 499.407,200.975 502.5,210.5C 497.599,210.266 494.932,207.6 494.5,202.5C 490.893,201.511 487.226,201.177 483.5,201.5C 482.833,204.5 482.167,207.5 481.5,210.5C 479.143,210.663 476.81,210.497 474.5,210C 479.371,200.894 483.371,191.394 486.5,181.5 Z M 489.5,190.5 C 490.931,191.78 491.598,193.447 491.5,195.5C 489.84,197.248 487.84,197.748 485.5,197C 487.569,196.676 487.902,195.842 486.5,194.5C 487.172,192.84 488.172,191.507 489.5,190.5 Z"/></g>
<g><path style="opacity:1" fill="#f2f9f9" d="M 592.5,181.5 C 600.409,179.623 606.076,182.29 609.5,189.5C 608.264,190.357 606.931,191.023 605.5,191.5C 601.094,184.517 595.928,183.85 590,189.5C 587.62,195.255 588.453,200.421 592.5,205C 598.62,207.611 602.953,205.778 605.5,199.5C 606.931,199.977 608.264,200.643 609.5,201.5C 608.456,205.379 606.123,208.212 602.5,210C 590.748,212.573 584.415,207.907 583.5,196C 583.861,189.428 586.861,184.595 592.5,181.5 Z"/></g>
<g><path style="opacity:1" fill="#f4f9f9" d="M 675.5,181.5 C 677.722,181.178 679.556,181.845 681,183.5C 685,189.5 689,195.5 693,201.5C 693.5,194.842 693.666,188.175 693.5,181.5C 694.833,181.5 696.167,181.5 697.5,181.5C 697.815,191.315 697.815,200.982 697.5,210.5C 695.712,210.785 694.045,210.452 692.5,209.5C 688.847,203.589 684.847,198.589 680.5,194.5C 681.46,193.188 681.294,191.854 680,190.5C 679.5,197.158 679.334,203.825 679.5,210.5C 678.167,210.5 676.833,210.5 675.5,210.5C 674.724,200.893 674.724,191.227 675.5,181.5 Z"/></g>
<g><path style="opacity:1" fill="#f9faf9" d="M 691.5,196.5 C 692.833,197.167 692.833,197.167 691.5,196.5 Z"/></g>
<g><path style="opacity:1" fill="#f9faf9" d="M 691.5,196.5 C 690.833,195.167 690.833,195.167 691.5,196.5 Z"/></g>
<g><path style="opacity:1" fill="#000000" d="M 302.5,200.5 C 303.833,201.167 303.833,201.167 302.5,200.5 Z"/></g>
<g><path style="opacity:1" fill="#f3f9f9" d="M 269.5,181.5 C 275.324,180.588 280.49,181.922 285,185.5C 287.498,189.009 286.665,191.176 282.5,192C 283.5,192.333 284.5,192.667 285.5,193C 284.095,194.269 282.429,194.769 280.5,194.5C 282.551,188.694 280.385,185.694 274,185.5C 269.771,186.063 267.105,188.396 266,192.5C 264.936,204.606 270.103,208.606 281.5,204.5C 282.452,202.955 282.785,201.288 282.5,199.5C 279.833,199.5 277.167,199.5 274.5,199.5C 274.34,197.801 274.506,196.134 275,194.5C 279.066,195.464 283.233,195.797 287.5,195.5C 287.793,199.437 287.46,203.27 286.5,207C 279.666,211.198 272.666,211.531 265.5,208C 256.846,197.611 258.179,188.778 269.5,181.5 Z"/></g>
<g><path style="opacity:1" fill="#f3f9f9" d="M 935.5,181.5 C 950.258,181.09 956.091,188.09 953,202.5C 947.642,210.932 940.476,212.765 931.5,208C 926.415,202.27 925.248,195.77 928,188.5C 929.742,185.254 932.242,182.921 935.5,181.5 Z M 937.5,185.5 C 947.505,186.365 951.005,191.698 948,201.5C 945.774,205.861 942.274,207.361 937.5,206C 931.891,202.723 930.058,197.89 932,191.5C 933.021,188.65 934.854,186.65 937.5,185.5 Z"/></g>
<g><path style="opacity:1" fill="#f2f9f9" d="M 851.5,181.5 C 858.267,180.018 863.6,182.018 867.5,187.5C 865.23,191.542 863.23,191.376 861.5,187C 856.238,184.535 852.071,185.701 849,190.5C 848.133,194.956 848.466,199.289 850,203.5C 853.736,207.012 857.736,207.345 862,204.5C 863.009,202.975 863.509,201.308 863.5,199.5C 868.781,199.93 869.781,202.263 866.5,206.5C 859.701,211.806 852.868,211.806 846,206.5C 843.071,200.338 842.737,194.005 845,187.5C 847.063,185.266 849.229,183.266 851.5,181.5 Z"/></g>
<g><path style="opacity:1" fill="#f3f9f9" d="M 636.5,181.5 C 653.614,181.378 659.114,189.378 653,205.5C 646.803,211.104 639.969,211.937 632.5,208C 625.113,197.78 626.446,188.946 636.5,181.5 Z M 639.5,185.5 C 648.819,186.184 652.319,191.184 650,200.5C 646.96,206.368 642.46,207.868 636.5,205C 632.114,199.847 631.614,194.347 635,188.5C 636.409,187.219 637.909,186.219 639.5,185.5 Z"/></g>
<g><path style="opacity:1" fill="#000000" d="M 986.5,204.5 C 987.833,205.167 987.833,205.167 986.5,204.5 Z"/></g>
<g><path style="opacity:1" fill="#f6f9f9" d="M 393.5,181.5 C 400.5,181.5 407.5,181.5 414.5,181.5C 414.714,183.144 414.38,184.644 413.5,186C 408.511,186.499 403.511,186.666 398.5,186.5C 398.5,188.833 398.5,191.167 398.5,193.5C 403.5,193.5 408.5,193.5 413.5,193.5C 413.5,194.833 413.5,196.167 413.5,197.5C 408.5,197.5 403.5,197.5 398.5,197.5C 398.5,200.167 398.5,202.833 398.5,205.5C 403.844,205.334 409.177,205.501 414.5,206C 415.38,207.356 415.714,208.856 415.5,210.5C 408.167,210.5 400.833,210.5 393.5,210.5C 393.5,200.833 393.5,191.167 393.5,181.5 Z"/></g>
<g><path style="opacity:1" fill="#f4f9f9" d="M 758.5,181.5 C 765.257,181.123 771.924,181.623 778.5,183C 783.096,189.086 782.096,194.086 775.5,198C 778.77,201.359 781.437,205.193 783.5,209.5C 781.5,210.833 779.5,210.833 777.5,209.5C 775.043,206.086 772.709,202.586 770.5,199C 768.19,198.503 765.857,198.337 763.5,198.5C 763.5,202.5 763.5,206.5 763.5,210.5C 761.833,210.5 760.167,210.5 758.5,210.5C 758.5,200.833 758.5,191.167 758.5,181.5 Z M 763.5,185.5 C 767.482,185.053 771.482,185.553 775.5,187C 776.935,189.267 776.602,191.267 774.5,193C 770.848,193.499 767.182,193.665 763.5,193.5C 763.5,190.833 763.5,188.167 763.5,185.5 Z"/></g>
<g><path style="opacity:1" fill="#f3f9f9" d="M 521.5,181.5 C 522.833,181.5 524.167,181.5 525.5,181.5C 525.5,189.5 525.5,197.5 525.5,205.5C 529.846,205.334 534.179,205.501 538.5,206C 539.38,207.356 539.714,208.856 539.5,210.5C 532.825,210.666 526.158,210.5 519.5,210C 520.179,200.501 520.846,191.001 521.5,181.5 Z"/></g>
<g><path style="opacity:1" fill="#000000" d="M 236.5,215.5 C 237.833,216.167 237.833,216.167 236.5,215.5 Z"/></g>
<g><path style="opacity:1" fill="#000000" d="M 1016.5,217.5 C 1017.83,218.167 1017.83,218.167 1016.5,217.5 Z"/></g>
<g><path style="opacity:1" fill="#000000" d="M 635.5,220.5 C 636.833,221.167 636.833,221.167 635.5,220.5 Z"/></g>
<g><path style="opacity:1" fill="#000000" d="M 377.5,228.5 C 378.833,229.167 378.833,229.167 377.5,228.5 Z"/></g>
<g><path style="opacity:1" fill="#000000" d="M 245.5,231.5 C 246.833,232.167 246.833,232.167 245.5,231.5 Z"/></g>
</svg>
