<?xml version="1.0" encoding="UTF-8"?>
<!DOCTYPE svg PUBLIC "-//W3C//DTD SVG 1.1//EN" "http://www.w3.org/Graphics/SVG/1.1/DTD/svg11.dtd">
<svg xmlns="http://www.w3.org/2000/svg" version="1.1" width="1035px" height="241px" style="shape-rendering:geometricPrecision; text-rendering:geometricPrecision; image-rendering:optimizeQuality; fill-rule:evenodd; clip-rule:evenodd" xmlns:xlink="http://www.w3.org/1999/xlink">
<g><path style="opacity:1" fill="#f8f8f7" d="M -0.5,-0.5 C 344.5,-0.5 689.5,-0.5 1034.5,-0.5C 1034.5,79.8333 1034.5,160.167 1034.5,240.5C 689.5,240.5 344.5,240.5 -0.5,240.5C -0.5,160.167 -0.5,79.8333 -0.5,-0.5 Z"/></g>
<g><path style="opacity:1" fill="#fb514b" d="M 139.5,17.5 C 125.456,16.0356 111.456,16.3689 97.5,18.5C 99.9542,17.3794 102.621,16.546 105.5,16C 115.5,15.3333 125.5,15.3333 135.5,16C 137.058,16.21 138.391,16.71 139.5,17.5 Z"/></g>
<g><path style="opacity:1" fill="#fa0603" d="M 139.5,17.5 C 164.79,21.8029 185.457,33.8029 201.5,53.5C 182.833,54.1667 164.167,54.8333 145.5,55.5C 118.82,56.1758 95.8199,65.6758 76.5,84C 55.8505,104.494 41.1838,128.661 32.5,156.5C 31.6618,156.842 31.3284,157.508 31.5,158.5C 30.596,159.209 30.2627,160.209 30.5,161.5C 54.5339,161.484 78.5339,161.817 102.5,162.5C 126.657,161.872 150.657,161.206 174.5,160.5C 176.833,160.5 179.167,160.5 181.5,160.5C 181.5,159.5 181.5,158.5 181.5,157.5C 181.796,155.597 182.463,153.93 183.5,152.5C 184.496,152.586 185.329,152.252 186,151.5C 187.045,146.685 189.045,142.352 192,138.5C 192.495,136.527 192.662,134.527 192.5,132.5C 197.603,119.835 203.27,107.502 209.5,95.5C 213.376,94.9412 217.209,94.2745 221,93.5C 221.845,95.6115 222.678,97.6115 223.5,99.5C 223.721,102.067 224.388,104.401 225.5,106.5C 225.5,108.5 225.5,110.5 225.5,112.5C 225.656,120.529 225.323,128.529 224.5,136.5C 213.952,186.214 183.619,215.381 133.5,224C 80.2875,226.989 43.1208,204.156 22,155.5C 20.2613,151.689 19.428,147.689 19.5,143.5C 19.988,140.289 19.3213,137.456 17.5,135C 18.0585,134.275 18.3918,133.442 18.5,132.5C 17.9054,125.682 17.2387,119.015 16.5,112.5C 16.5,111.5 16.5,110.5 16.5,109.5C 17.6491,109.209 18.3158,108.376 18.5,107C 19.4547,101.529 20.1214,96.0291 20.5,90.5C 32.599,52.0699 58.2656,28.0699 97.5,18.5C 111.456,16.3689 125.456,16.0356 139.5,17.5 Z"/></g>
<g><path style="opacity:1" fill="#0c0c0c" d="M 290.5,72.5 C 292.473,73.1627 294.639,73.4961 297,73.5C 300.477,73.6725 303.644,73.0058 306.5,71.5C 308.044,71.2969 309.378,70.6302 310.5,69.5C 311.48,66.9135 311.813,64.2469 311.5,61.5C 306.489,61.3341 301.489,61.5007 296.5,62C 295.944,62.3826 295.611,62.8826 295.5,63.5C 294.517,59.7016 294.183,55.7016 294.5,51.5C 295.167,52.1667 295.833,52.8333 296.5,53.5C 305.5,54.1667 314.5,54.8333 323.5,55.5C 322.293,61.8449 322.293,68.0116 323.5,74C 309.027,82.6937 293.694,84.6937 277.5,80C 260.588,69.5953 256.421,55.4286 265,37.5C 274.697,26.3782 286.863,22.2115 301.5,25C 306.53,26.3988 311.53,27.8988 316.5,29.5C 317.554,29.3201 318.554,28.9867 319.5,28.5C 319.833,29 320.167,29.5 320.5,30C 318.535,34.1029 316.202,37.9362 313.5,41.5C 308.046,36.5134 301.546,34.1801 294,34.5C 284.736,34.1334 278.069,38.1334 274,46.5C 271.932,55.2901 274.099,62.7901 280.5,69C 283.487,71.0823 286.821,72.249 290.5,72.5 Z"/></g>
<g><path style="opacity:1" fill="#0b0a0b" d="M 849.5,72.5 C 851.473,73.1627 853.639,73.4961 856,73.5C 859.477,73.6725 862.644,73.0058 865.5,71.5C 867.315,70.3702 869.315,69.7036 871.5,69.5C 871.5,66.8333 871.5,64.1667 871.5,61.5C 866.156,61.334 860.823,61.5006 855.5,62C 854.944,62.3826 854.611,62.8826 854.5,63.5C 853.517,59.7016 853.183,55.7016 853.5,51.5C 854.167,52.1667 854.833,52.8333 855.5,53.5C 864.5,54.1667 873.5,54.8333 882.5,55.5C 881.293,61.8449 881.293,68.0116 882.5,74C 868.027,82.6937 852.694,84.6937 836.5,80C 822.072,71.8097 816.906,59.643 821,43.5C 829.53,27.8218 842.697,21.6552 860.5,25C 866.536,26.7343 872.536,28.5677 878.5,30.5C 877.027,34.7789 875.027,38.7789 872.5,42.5C 871.585,39.5334 869.585,37.7001 866.5,37C 859.686,34.6118 852.686,33.9451 845.5,35C 834.015,39.8045 829.848,48.3045 833,60.5C 836.146,67.8157 841.646,71.8157 849.5,72.5 Z"/></g>
<g><path style="opacity:1" fill="#0b0b0b" d="M 979.5,45.5 C 984.598,46.9573 989.931,47.624 995.5,47.5C 1001.99,48.1629 1007.82,50.4963 1013,54.5C 1018.99,68.2145 1014.82,77.0478 1000.5,81C 993.89,82.4406 987.224,82.774 980.5,82C 974.397,80.115 968.397,77.9484 962.5,75.5C 964.038,71.5931 965.704,67.7598 967.5,64C 969.821,67.2131 973.154,69.5464 977.5,71C 985.631,73.2413 993.631,72.908 1001.5,70C 1004.17,67 1004.17,64 1001.5,61C 993.853,59.8804 986.187,58.8804 978.5,58C 965.055,53.9382 961.222,45.4382 967,32.5C 975.408,24.8869 985.241,22.3869 996.5,25C 1003.03,26.7334 1009.37,28.9001 1015.5,31.5C 1013.61,35.3439 1011.44,39.0106 1009,42.5C 1006.74,39.5694 1003.9,37.4027 1000.5,36C 993.901,34.5043 987.234,34.171 980.5,35C 976.335,36.4831 974.835,39.3164 976,43.5C 976.816,44.8228 977.983,45.4894 979.5,45.5 Z"/></g>
<g><path style="opacity:1" fill="#070707" d="M 417.5,78.5 C 418.659,67.0073 418.826,55.3407 418,43.5C 417.283,44.0442 416.783,44.7109 416.5,45.5C 409.845,56.8058 403.178,68.1391 396.5,79.5C 389.429,67.6978 382.596,55.6978 376,43.5C 375.167,55.5139 375.334,67.5139 376.5,79.5C 377.308,79.8076 377.975,80.3076 378.5,81C 372.833,81.6667 367.167,81.6667 361.5,81C 362.333,80.1667 363.167,79.3333 364,78.5C 364.667,61.8333 364.667,45.1667 364,28.5C 363.075,27.9535 362.242,27.2868 361.5,26.5C 368.833,25.1667 376.167,25.1667 383.5,26.5C 381.816,27.8544 381.316,29.5211 382,31.5C 387.254,40.3389 392.254,49.3389 397,58.5C 402.839,49.4923 408.172,40.159 413,30.5C 413.595,29.1011 413.428,27.7678 412.5,26.5C 419.167,25.1667 425.833,25.1667 432.5,26.5C 431.194,35.3382 430.528,44.3382 430.5,53.5C 430.667,62.1667 430.833,70.8333 431,79.5C 431.5,80 432,80.5 432.5,81C 426.833,81.6667 421.167,81.6667 415.5,81C 416.381,80.2917 417.047,79.4584 417.5,78.5 Z"/></g>
<g><path style="opacity:1" fill="#0b0b0b" d="M 548.5,78.5 C 549.824,66.9933 549.824,55.3266 548.5,43.5C 547.893,43.6236 547.56,43.9569 547.5,44.5C 541.183,56.4677 534.349,68.1344 527,79.5C 519.981,68.1288 513.481,56.4621 507.5,44.5C 507.44,43.9569 507.107,43.6236 506.5,43.5C 505.176,55.3266 505.176,66.9933 506.5,78.5C 506.953,79.4584 507.619,80.2917 508.5,81C 503.136,81.8295 497.802,81.6628 492.5,80.5C 493.806,71.6618 494.472,62.6618 494.5,53.5C 494.472,44.3382 493.806,35.3382 492.5,26.5C 499.5,25.1667 506.5,25.1667 513.5,26.5C 512.515,28.0983 512.349,29.765 513,31.5C 517.746,40.6611 522.746,49.6611 528,58.5C 533.333,49.1667 538.667,39.8333 544,30.5C 544.54,28.8654 544.04,27.5321 542.5,26.5C 549.5,25.1667 556.5,25.1667 563.5,26.5C 562.194,35.3382 561.528,44.3382 561.5,53.5C 561.667,62.1667 561.833,70.8333 562,79.5C 562.5,80 563,80.5 563.5,81C 557.804,81.8299 552.137,81.6632 546.5,80.5C 547.243,79.8182 547.909,79.1515 548.5,78.5 Z"/></g>
<g><path style="opacity:1" fill="#0a0a0a" d="M 593.5,25.5 C 600.2,25.17 606.866,25.5033 613.5,26.5C 611.721,28.1929 611.221,30.1929 612,32.5C 619.667,47.8333 627.333,63.1667 635,78.5C 636.255,79.2106 637.421,80.044 638.5,81C 631.5,81.6667 624.5,81.6667 617.5,81C 618.99,80.2545 619.99,79.0879 620.5,77.5C 618.347,68.5211 612.514,65.1878 603,67.5C 593.486,65.1878 587.653,68.5211 585.5,77.5C 586.01,79.0879 587.01,80.2545 588.5,81C 582.167,81.6667 575.833,81.6667 569.5,81C 570.579,80.044 571.745,79.2106 573,78.5C 580.917,62.501 588.417,46.3343 595.5,30C 594.926,28.3933 594.26,26.8933 593.5,25.5 Z"/></g>
<g><path style="opacity:1" fill="#090909" d="M 659.5,44.5 C 659.44,43.9569 659.107,43.6236 658.5,43.5C 657.176,55.3266 657.176,66.9933 658.5,78.5C 658.953,79.4584 659.619,80.2917 660.5,81C 655.136,81.8295 649.802,81.6628 644.5,80.5C 645.806,71.6618 646.472,62.6618 646.5,53.5C 646.472,44.3382 645.806,35.3382 644.5,26.5C 650.833,25.1667 657.167,25.1667 663.5,26.5C 661.96,27.5321 661.46,28.8654 662,30.5C 672.697,40.8626 683.03,51.5293 693,62.5C 693.167,56.6667 693.333,50.8333 693.5,45C 693.457,38.6614 692.791,32.4948 691.5,26.5C 696.833,25.1667 702.167,25.1667 707.5,26.5C 706.758,27.2868 705.925,27.9535 705,28.5C 704.333,45.1667 704.333,61.8333 705,78.5C 705.833,79.3333 706.667,80.1667 707.5,81C 701.5,81.6667 695.5,81.6667 689.5,81C 691.871,78.8162 691.704,76.6495 689,74.5C 678.964,64.6317 669.131,54.6317 659.5,44.5 Z"/></g>
<g><path style="opacity:1" fill="#070707" d="M 718.5,25.5 C 724.206,25.1712 729.872,25.5046 735.5,26.5C 734.194,35.3382 733.528,44.3382 733.5,53.5C 733.667,62.1667 733.833,70.8333 734,79.5C 734.5,80 735,80.5 735.5,81C 729.833,81.6667 724.167,81.6667 718.5,81C 719.333,80.1667 720.167,79.3333 721,78.5C 721.667,61.8333 721.667,45.1667 721,28.5C 719.583,27.9221 718.75,26.9221 718.5,25.5 Z"/></g>
<g><path style="opacity:1" fill="#060606" d="M 794.5,61.5 C 794.56,62.0431 794.893,62.3764 795.5,62.5C 796.824,51.0069 796.824,39.6735 795.5,28.5C 794.909,27.8485 794.243,27.1818 793.5,26.5C 798.833,25.1667 804.167,25.1667 809.5,26.5C 809.192,27.3081 808.692,27.9747 808,28.5C 807.167,45.5098 807.334,62.5098 808.5,79.5C 809.308,79.8076 809.975,80.3076 810.5,81C 804.5,81.6667 798.5,81.6667 792.5,81C 794.007,80.1627 794.507,78.9961 794,77.5C 783.713,66.5648 773.213,55.8982 762.5,45.5C 762.217,44.7109 761.717,44.0442 761,43.5C 760.174,55.6738 760.34,67.6738 761.5,79.5C 762.289,79.7828 762.956,80.2828 763.5,81C 757.833,81.6667 752.167,81.6667 746.5,81C 747.025,80.3076 747.692,79.8076 748.5,79.5C 748.833,70.8333 749.167,62.1667 749.5,53.5C 749.472,44.3382 748.806,35.3382 747.5,26.5C 753.5,25.1667 759.5,25.1667 765.5,26.5C 764.572,27.7678 764.405,29.1011 765,30.5C 774.672,41.0052 784.506,51.3385 794.5,61.5 Z"/></g>
<g><path style="opacity:1" fill="#080808" d="M 913.5,25.5 C 919.868,25.1703 926.202,25.5037 932.5,26.5C 930.876,27.8689 930.376,29.5355 931,31.5C 938.651,46.8022 946.318,62.1356 954,77.5C 955.167,78.6667 956.333,79.8333 957.5,81C 950.833,81.6667 944.167,81.6667 937.5,81C 938.894,80.044 939.561,78.7106 939.5,77C 937.581,67.9604 931.914,64.7937 922.5,67.5C 913.086,64.7937 907.419,67.9604 905.5,77C 905.439,78.7106 906.106,80.044 907.5,81C 901.472,81.8303 895.472,81.6636 889.5,80.5C 890.76,79.6184 891.926,78.6184 893,77.5C 900.317,62.1975 907.651,46.8642 915,31.5C 915.322,29.3111 914.822,27.3111 913.5,25.5 Z"/></g>
<g><path style="opacity:1" fill="#bcbcbc" d="M 795.5,28.5 C 796.824,39.6735 796.824,51.0069 795.5,62.5C 794.893,62.3764 794.56,62.0431 794.5,61.5C 795.495,50.6794 795.828,39.6794 795.5,28.5 Z"/></g>
<g><path style="opacity:1" fill="#ebebeb" d="M 602.5,40.5 C 604.474,42.428 605.974,44.7613 607,47.5C 608.798,51.422 610.298,55.422 611.5,59.5C 605.833,59.5 600.167,59.5 594.5,59.5C 596.887,53.0577 599.554,46.7244 602.5,40.5 Z"/></g>
<g><path style="opacity:1" fill="#e9e9e9" d="M 931.5,59.5 C 925.402,60.1167 919.735,59.45 914.5,57.5C 916.898,51.7036 919.565,46.0369 922.5,40.5C 926.314,46.4611 929.314,52.7944 931.5,59.5 Z"/></g>
<g><path style="opacity:1" fill="#555555" d="M 507.5,44.5 C 506.505,55.6544 506.172,66.9877 506.5,78.5C 505.176,66.9933 505.176,55.3266 506.5,43.5C 507.107,43.6236 507.44,43.9569 507.5,44.5 Z"/></g>
<g><path style="opacity:1" fill="#555555" d="M 547.5,44.5 C 547.56,43.9569 547.893,43.6236 548.5,43.5C 549.824,55.3266 549.824,66.9933 548.5,78.5C 548.828,66.9877 548.495,55.6544 547.5,44.5 Z"/></g>
<g><path style="opacity:1" fill="#bbbbbb" d="M 762.5,45.5 C 761.505,56.6544 761.172,67.9877 761.5,79.5C 760.34,67.6738 760.174,55.6738 761,43.5C 761.717,44.0442 762.217,44.7109 762.5,45.5 Z"/></g>
<g><path style="opacity:1" fill="#6d6d70" d="M 659.5,44.5 C 658.505,55.6544 658.172,66.9877 658.5,78.5C 657.176,66.9933 657.176,55.3266 658.5,43.5C 659.107,43.6236 659.44,43.9569 659.5,44.5 Z"/></g>
<g><path style="opacity:1" fill="#a8a8a7" d="M 979.5,45.5 C 985.051,45.527 990.384,46.1937 995.5,47.5C 989.931,47.624 984.598,46.9573 979.5,45.5 Z"/></g>
<g><path style="opacity:1" fill="#949595" d="M 417.5,78.5 C 417.828,67.3206 417.495,56.3206 416.5,45.5C 416.783,44.7109 417.283,44.0442 418,43.5C 418.826,55.3407 418.659,67.0073 417.5,78.5 Z"/></g>
<g><path style="opacity:1" fill="#5d5d5d" d="M 294.5,51.5 C 294.183,55.7016 294.517,59.7016 295.5,63.5C 295.44,64.0431 295.107,64.3764 294.5,64.5C 293.189,60.0162 293.189,55.6829 294.5,51.5 Z"/></g>
<g><path style="opacity:1" fill="#5e5e5e" d="M 853.5,51.5 C 853.183,55.7016 853.517,59.7016 854.5,63.5C 854.44,64.0431 854.107,64.3764 853.5,64.5C 852.189,60.0162 852.189,55.6829 853.5,51.5 Z"/></g>
<g><path style="opacity:1" fill="#424242" d="M 296.5,53.5 C 305.857,53.1684 315.19,53.5017 324.5,54.5C 324.376,55.1067 324.043,55.44 323.5,55.5C 314.5,54.8333 305.5,54.1667 296.5,53.5 Z"/></g>
<g><path style="opacity:1" fill="#424242" d="M 855.5,53.5 C 864.857,53.1684 874.19,53.5017 883.5,54.5C 883.376,55.1067 883.043,55.44 882.5,55.5C 873.5,54.8333 864.5,54.1667 855.5,53.5 Z"/></g>
<g><path style="opacity:1" fill="#fa3e3d" d="M 201.5,53.5 C 202.289,53.7828 202.956,54.2828 203.5,55C 184.17,55.5 164.836,55.6666 145.5,55.5C 164.167,54.8333 182.833,54.1667 201.5,53.5 Z"/></g>
<g><path style="opacity:1" fill="#464444" d="M 914.5,57.5 C 919.735,59.45 925.402,60.1167 931.5,59.5C 925.69,60.4896 919.69,60.8229 913.5,60.5C 913.263,59.209 913.596,58.209 914.5,57.5 Z"/></g>
<g><path style="opacity:1" fill="#0c0c0c" d="M 339.5,69.5 C 348.745,68.8991 351.411,72.7324 347.5,81C 341.152,84.2915 337.486,82.4581 336.5,75.5C 336.628,73.0452 337.628,71.0452 339.5,69.5 Z"/></g>
<g><path style="opacity:1" fill="#0c0c0c" d="M 448.5,69.5 C 459.202,69.5211 461.202,73.6878 454.5,82C 447.167,82.9968 444.334,79.8301 446,72.5C 447.045,71.6266 447.878,70.6266 448.5,69.5 Z"/></g>
<g><path style="opacity:1" fill="#fa130d" d="M 223.5,97.5 C 223.5,98.1667 223.5,98.8333 223.5,99.5C 222.678,97.6115 221.845,95.6115 221,93.5C 217.209,94.2745 213.376,94.9412 209.5,95.5C 210.264,92.9823 211.264,90.649 212.5,88.5C 214.085,87.5263 215.085,86.0263 215.5,84C 202.66,83.1733 189.993,83.34 177.5,84.5C 166.651,108.366 155.984,132.366 145.5,156.5C 144.833,156.5 144.5,156.833 144.5,157.5C 143.596,158.209 143.263,159.209 143.5,160.5C 153.833,160.5 164.167,160.5 174.5,160.5C 150.657,161.206 126.657,161.872 102.5,162.5C 78.5339,161.817 54.5339,161.484 30.5,161.5C 30.2627,160.209 30.596,159.209 31.5,158.5C 44.1667,159.833 56.8333,159.833 69.5,158.5C 79.5728,138.016 90.4062,118.016 102,98.5C 114.121,83.5261 129.621,74.3594 148.5,71C 170.167,70.3333 191.833,70.3333 213.5,71C 218.507,79.1848 221.84,88.0182 223.5,97.5 Z"/></g>
<g><path style="opacity:1" fill="#464646" d="M 306.5,71.5 C 303.644,73.0058 300.477,73.6725 297,73.5C 294.639,73.4961 292.473,73.1627 290.5,72.5C 295.87,72.6079 301.203,72.2745 306.5,71.5 Z"/></g>
<g><path style="opacity:1" fill="#454545" d="M 865.5,71.5 C 862.644,73.0058 859.477,73.6725 856,73.5C 853.639,73.4961 851.473,73.1627 849.5,72.5C 854.87,72.6079 860.203,72.2745 865.5,71.5 Z"/></g>
<g><path style="opacity:1" fill="#fa4948" d="M 177.5,84.5 C 189.993,83.34 202.66,83.1733 215.5,84C 215.085,86.0263 214.085,87.5263 212.5,88.5C 212.539,87.4168 212.873,86.4168 213.5,85.5C 201.518,84.501 189.518,84.1677 177.5,84.5 Z"/></g>
<g><path style="opacity:1" fill="#faf6f6" d="M 126.5,158.5 C 113.124,159.148 100.124,158.481 87.5,156.5C 95.6244,138.916 104.791,121.916 115,105.5C 127.127,91.6568 142.294,84.8234 160.5,85C 149.253,109.593 137.919,134.093 126.5,158.5 Z"/></g>
<g><path style="opacity:1" fill="#faf7f7" d="M 177.5,84.5 C 189.518,84.1677 201.518,84.501 213.5,85.5C 212.873,86.4168 212.539,87.4168 212.5,88.5C 211.264,90.649 210.264,92.9823 209.5,95.5C 203.27,107.502 197.603,119.835 192.5,132.5C 189.006,138.83 186.006,145.497 183.5,152.5C 182.463,153.93 181.796,155.597 181.5,157.5C 180.833,157.5 180.5,157.833 180.5,158.5C 168.452,159.145 156.785,158.478 145.5,156.5C 155.984,132.366 166.651,108.366 177.5,84.5 Z"/></g>
<g><path style="opacity:1" fill="#fb3f37" d="M 20.5,90.5 C 20.1214,96.0291 19.4547,101.529 18.5,107C 18.3158,108.376 17.6491,109.209 16.5,109.5C 17.0886,102.884 18.4219,96.5504 20.5,90.5 Z"/></g>
<g><path style="opacity:1" fill="#fb7f7d" d="M 223.5,97.5 C 224.913,100.219 225.58,103.219 225.5,106.5C 224.388,104.401 223.721,102.067 223.5,99.5C 223.5,98.8333 223.5,98.1667 223.5,97.5 Z"/></g>
<g><path style="opacity:1" fill="#999b9a" d="M 450.5,107.5 C 444.833,106.167 439.167,106.167 433.5,107.5C 436.186,106.009 439.186,105.343 442.5,105.5C 445.527,105.287 448.193,105.953 450.5,107.5 Z"/></g>
<g><path style="opacity:1" fill="#a7a9a8" d="M 645.5,106.5 C 640.13,106.392 634.797,106.725 629.5,107.5C 632.356,105.994 635.523,105.328 639,105.5C 641.361,105.504 643.527,105.837 645.5,106.5 Z"/></g>
<g><path style="opacity:1" fill="#76767a" d="M 382.5,108.5 C 378.167,107.167 373.833,107.167 369.5,108.5C 368.957,108.44 368.624,108.107 368.5,107.5C 373.5,106.167 378.5,106.167 383.5,107.5C 383.376,108.107 383.043,108.44 382.5,108.5 Z"/></g>
<g><path style="opacity:1" fill="#6c6b72" d="M 415.5,108.5 C 412.167,107.167 408.833,107.167 405.5,108.5C 404.957,108.44 404.624,108.107 404.5,107.5C 408.5,106.167 412.5,106.167 416.5,107.5C 416.376,108.107 416.043,108.44 415.5,108.5 Z"/></g>
<g><path style="opacity:1" fill="#787776" d="M 544.5,107.5 C 533.986,107.172 523.653,107.506 513.5,108.5C 512.957,108.44 512.624,108.107 512.5,107.5C 523.326,106.177 533.993,106.177 544.5,107.5 Z"/></g>
<g><path style="opacity:1" fill="#797573" d="M 574.5,108.5 C 570.833,107.167 567.167,107.167 563.5,108.5C 562.957,108.44 562.624,108.107 562.5,107.5C 566.833,106.167 571.167,106.167 575.5,107.5C 575.376,108.107 575.043,108.44 574.5,108.5 Z"/></g>
<g><path style="opacity:1" fill="#757374" d="M 607.5,108.5 C 604.167,107.167 600.833,107.167 597.5,108.5C 596.957,108.44 596.624,108.107 596.5,107.5C 600.5,106.167 604.5,106.167 608.5,107.5C 608.376,108.107 608.043,108.44 607.5,108.5 Z"/></g>
<g><path style="opacity:1" fill="#706d70" d="M 722.5,108.5 C 718.833,107.167 715.167,107.167 711.5,108.5C 710.957,108.44 710.624,108.107 710.5,107.5C 714.833,106.167 719.167,106.167 723.5,107.5C 723.376,108.107 723.043,108.44 722.5,108.5 Z"/></g>
<g><path style="opacity:1" fill="#6e717a" d="M 786.5,107.5 C 791.015,106.188 795.682,106.188 800.5,107.5C 800.376,108.107 800.043,108.44 799.5,108.5C 795.366,107.515 791.032,107.182 786.5,107.5 Z"/></g>
<g><path style="opacity:1" fill="#6c6d73" d="M 832.5,108.5 C 829.167,107.167 825.833,107.167 822.5,108.5C 821.957,108.44 821.624,108.107 821.5,107.5C 825.5,106.167 829.5,106.167 833.5,107.5C 833.376,108.107 833.043,108.44 832.5,108.5 Z"/></g>
<g><path style="opacity:1" fill="#6f6f74" d="M 888.5,108.5 C 884.833,107.167 881.167,107.167 877.5,108.5C 876.957,108.44 876.624,108.107 876.5,107.5C 880.833,106.167 885.167,106.167 889.5,107.5C 889.376,108.107 889.043,108.44 888.5,108.5 Z"/></g>
<g><path style="opacity:1" fill="#76767a" d="M 910.5,108.5 C 906.167,107.167 901.833,107.167 897.5,108.5C 896.957,108.44 896.624,108.107 896.5,107.5C 901.5,106.167 906.5,106.167 911.5,107.5C 911.376,108.107 911.043,108.44 910.5,108.5 Z"/></g>
<g><path style="opacity:1" fill="#6b6a71" d="M 943.5,108.5 C 940.167,107.167 936.833,107.167 933.5,108.5C 932.957,108.44 932.624,108.107 932.5,107.5C 936.5,106.167 940.5,106.167 944.5,107.5C 944.376,108.107 944.043,108.44 943.5,108.5 Z"/></g>
<g><path style="opacity:1" fill="#0f0e0f" d="M 274.5,117.5 C 270.31,121.063 268.977,125.396 270.5,130.5C 274.234,140.87 281.567,144.703 292.5,142C 295.131,140.673 297.798,139.34 300.5,138C 301.071,136.795 301.738,135.628 302.5,134.5C 304.555,136.555 306.221,138.888 307.5,141.5C 295.993,150.191 283.66,151.691 270.5,146C 267.217,143.228 264.55,140.061 262.5,136.5C 261.746,131.537 261.413,126.537 261.5,121.5C 265.662,111.246 273.328,106.246 284.5,106.5C 288.569,106.504 292.569,107.004 296.5,108C 299.923,110.308 303.589,112.142 307.5,113.5C 306,115.833 304.5,118.167 303,120.5C 296.505,113.954 288.672,111.788 279.5,114C 277.654,115.03 275.987,116.196 274.5,117.5 Z"/></g>
<g><path style="opacity:1" fill="#100e0f" d="M 329.5,106.5 C 340.98,104.49 350.813,107.49 359,115.5C 365.407,128.513 362.574,139.013 350.5,147C 325.644,154.116 313.811,144.949 315,119.5C 318.162,113.164 322.996,108.831 329.5,106.5 Z"/></g>
<g><path style="opacity:1" fill="#0f0d0f" d="M 369.5,108.5 C 373.833,107.167 378.167,107.167 382.5,108.5C 381.475,108.897 381.308,109.563 382,110.5C 389.73,118.062 397.23,125.728 404.5,133.5C 404.56,134.043 404.893,134.376 405.5,134.5C 406.821,125.675 406.821,117.009 405.5,108.5C 408.833,107.167 412.167,107.167 415.5,108.5C 414.834,114.825 414.5,121.325 414.5,128C 414.521,134.906 415.188,141.572 416.5,148C 412.167,148.667 407.833,148.667 403.5,148C 404.451,147.282 404.617,146.449 404,145.5C 396.364,136.863 388.364,128.53 380,120.5C 379.183,129.745 379.35,138.911 380.5,148C 376.833,148.667 373.167,148.667 369.5,148C 370.83,134.735 370.83,121.569 369.5,108.5 Z"/></g>
<g><path style="opacity:1" fill="#0d0c0c" d="M 450.5,107.5 C 454.556,108.63 458.556,109.963 462.5,111.5C 460.8,114.039 459.3,116.705 458,119.5C 451.107,113.4 443.274,111.9 434.5,115C 432.675,116.466 432.175,118.299 433,120.5C 441.52,122.216 450.02,124.216 458.5,126.5C 462.336,130.376 463.503,135.043 462,140.5C 457.535,147.231 451.202,150.231 443,149.5C 435.821,149.582 429.321,147.582 423.5,143.5C 423.948,140.318 425.282,137.651 427.5,135.5C 429.012,138.349 431.345,140.016 434.5,140.5C 437.186,141.991 440.186,142.657 443.5,142.5C 445.696,142.495 447.696,142.162 449.5,141.5C 453.783,140.419 455.116,137.919 453.5,134C 446.211,132.522 438.878,131.189 431.5,130C 424.655,125.775 422.822,119.942 426,112.5C 428.128,110.192 430.628,108.526 433.5,107.5C 439.167,106.167 444.833,106.167 450.5,107.5 Z"/></g>
<g><path style="opacity:1" fill="#131111" d="M 506.5,114.5 C 501.695,113.513 496.695,113.179 491.5,113.5C 491.172,124.679 491.505,135.679 492.5,146.5C 492.611,147.117 492.944,147.617 493.5,148C 489.311,148.812 485.311,148.645 481.5,147.5C 482.495,136.346 482.828,125.012 482.5,113.5C 477.637,113.181 472.97,113.514 468.5,114.5C 467.883,114.611 467.383,114.944 467,115.5C 466.333,112.167 466.333,108.833 467,105.5C 480.667,106.833 494.333,106.833 508,105.5C 508.667,108.833 508.667,112.167 508,115.5C 507.617,114.944 507.117,114.611 506.5,114.5 Z"/></g>
<g><path style="opacity:1" fill="#0a0809" d="M 513.5,108.5 C 523.653,107.506 533.986,107.172 544.5,107.5C 554.86,109.196 558.36,115.196 555,125.5C 552.681,128.773 549.514,130.44 545.5,130.5C 545.351,131.552 545.517,132.552 546,133.5C 549.724,138.463 553.557,143.297 557.5,148C 552.833,148.667 548.167,148.667 543.5,148C 544.672,146.132 544.505,144.298 543,142.5C 540.252,139.266 537.752,135.932 535.5,132.5C 531.702,131.517 527.702,131.183 523.5,131.5C 523.179,137.026 523.512,142.36 524.5,147.5C 521.267,148.642 517.267,148.809 512.5,148C 513.812,141.572 514.479,134.906 514.5,128C 514.5,121.325 514.166,114.825 513.5,108.5 Z"/></g>
<g><path style="opacity:1" fill="#08080b" d="M 563.5,108.5 C 567.167,107.167 570.833,107.167 574.5,108.5C 573.342,117.657 573.176,126.991 574,136.5C 576.346,141.257 580.179,143.257 585.5,142.5C 590.509,142.911 594.676,141.244 598,137.5C 598.825,127.658 598.658,117.991 597.5,108.5C 600.833,107.167 604.167,107.167 607.5,108.5C 606.67,118.325 606.17,128.325 606,138.5C 604.082,145.22 599.582,148.72 592.5,149C 584.491,150.291 576.824,149.291 569.5,146C 568.117,144.729 567.117,143.229 566.5,141.5C 565.901,130.691 565.235,120.024 564.5,109.5C 564.5,108.833 564.167,108.5 563.5,108.5 Z"/></g>
<g><path style="opacity:1" fill="#0e0d0e" d="M 645.5,106.5 C 650.631,108.89 655.964,111.057 661.5,113C 659.789,115.589 657.955,118.089 656,120.5C 653.683,117.198 650.517,115.031 646.5,114C 637.877,111.696 630.711,113.863 625,120.5C 621.694,130.527 624.861,137.694 634.5,142C 643.44,144.023 650.607,141.523 656,134.5C 658.08,136.993 659.914,139.659 661.5,142.5C 654.154,146.336 646.321,148.67 638,149.5C 632.218,149.294 627.052,147.627 622.5,144.5C 621.167,142.5 619.5,140.833 617.5,139.5C 614.492,133.076 613.825,126.409 615.5,119.5C 616.906,119.027 617.573,118.027 617.5,116.5C 620.363,111.968 624.363,108.968 629.5,107.5C 634.797,106.725 640.13,106.392 645.5,106.5 Z"/></g>
<g><path style="opacity:1" fill="#121213" d="M 680.5,146.5 C 681.495,135.679 681.828,124.679 681.5,113.5C 676.305,113.179 671.305,113.513 666.5,114.5C 665.883,114.611 665.383,114.944 665,115.5C 664.176,112.118 664.343,108.784 665.5,105.5C 679.03,106.826 692.53,106.826 706,105.5C 706.667,108.833 706.667,112.167 706,115.5C 705.5,115 705,114.5 704.5,114C 699.845,113.501 695.179,113.334 690.5,113.5C 690.179,125.081 690.512,136.581 691.5,148C 687.5,148.667 683.5,148.667 679.5,148C 680.056,147.617 680.389,147.117 680.5,146.5 Z"/></g>
<g><path style="opacity:1" fill="#181617" d="M 711.5,108.5 C 715.167,107.167 718.833,107.167 722.5,108.5C 722.177,121.746 722.511,134.913 723.5,148C 719.5,148.667 715.5,148.667 711.5,148C 712.83,134.735 712.83,121.569 711.5,108.5 Z"/></g>
<g><path style="opacity:1" fill="#100e0e" d="M 745.5,106.5 C 758.237,104.295 768.737,107.961 777,117.5C 780.99,141.182 770.824,151.682 746.5,149C 732.927,143.021 728.094,132.854 732,118.5C 735.454,113.206 739.954,109.206 745.5,106.5 Z"/></g>
<g><path style="opacity:1" fill="#131011" d="M 786.5,107.5 C 791.032,107.182 795.366,107.515 799.5,108.5C 798.475,108.897 798.308,109.563 799,110.5C 807.031,118.197 814.698,126.197 822,134.5C 822.5,125.84 822.666,117.173 822.5,108.5C 825.833,107.167 829.167,107.167 832.5,108.5C 831.17,121.569 831.17,134.735 832.5,148C 828.5,148.667 824.5,148.667 820.5,148C 821.451,147.282 821.617,146.449 821,145.5C 812.77,137.359 804.77,129.025 797,120.5C 796.183,129.745 796.35,138.911 797.5,148C 793.833,148.667 790.167,148.667 786.5,148C 787.825,134.5 787.825,121 786.5,107.5 Z"/></g>
<g><path style="opacity:1" fill="#0c0e12" d="M 877.5,108.5 C 881.167,107.167 884.833,107.167 888.5,108.5C 887.17,121.569 887.17,134.735 888.5,148C 884.5,148.667 880.5,148.667 876.5,148C 877,147.5 877.5,147 878,146.5C 878.827,133.66 878.66,120.993 877.5,108.5 Z"/></g>
<g><path style="opacity:1" fill="#0f0d0f" d="M 897.5,108.5 C 901.833,107.167 906.167,107.167 910.5,108.5C 909.475,108.897 909.308,109.563 910,110.5C 917.73,118.062 925.23,125.728 932.5,133.5C 932.56,134.043 932.893,134.376 933.5,134.5C 934.821,125.675 934.821,117.009 933.5,108.5C 936.833,107.167 940.167,107.167 943.5,108.5C 942.834,114.825 942.5,121.325 942.5,128C 942.521,134.906 943.188,141.572 944.5,148C 940.167,148.667 935.833,148.667 931.5,148C 932.731,146.817 932.731,145.651 931.5,144.5C 923.875,136.374 916.042,128.374 908,120.5C 907.183,129.745 907.35,138.911 908.5,148C 904.833,148.667 901.167,148.667 897.5,148C 898.83,134.735 898.83,121.569 897.5,108.5 Z"/></g>
<g><path style="opacity:1" fill="#0e0d0e" d="M 968.5,140.5 C 971.017,141.973 973.85,142.64 977,142.5C 979.033,142.494 980.866,142.161 982.5,141.5C 986.965,140.524 990.465,138.191 993,134.5C 995.08,136.993 996.914,139.659 998.5,142.5C 992.801,145.346 986.801,147.512 980.5,149C 972.718,150.446 965.718,148.946 959.5,144.5C 958.167,142.5 956.5,140.833 954.5,139.5C 948.914,127.982 950.914,118.149 960.5,110C 967.436,106.603 974.769,105.603 982.5,107C 988.022,108.617 993.355,110.617 998.5,113C 996.667,115.5 994.833,118 993,120.5C 990.567,116.756 987.067,114.59 982.5,114C 974.15,111.745 967.317,113.912 962,120.5C 958.413,129.183 960.58,135.85 968.5,140.5 Z"/></g>
<g><path style="opacity:1" fill="#a37e55" d="M 405.5,108.5 C 406.821,117.009 406.821,125.675 405.5,134.5C 404.893,134.376 404.56,134.043 404.5,133.5C 405.493,125.35 405.826,117.017 405.5,108.5 Z"/></g>
<g><path style="opacity:1" fill="#6d4324" d="M 564.5,109.5 C 565.235,120.024 565.901,130.691 566.5,141.5C 565.778,141.082 565.278,140.416 565,139.5C 564.5,129.506 564.334,119.506 564.5,109.5 Z"/></g>
<g><path style="opacity:1" fill="#a37e55" d="M 933.5,108.5 C 934.821,117.009 934.821,125.675 933.5,134.5C 932.893,134.376 932.56,134.043 932.5,133.5C 933.493,125.35 933.826,117.017 933.5,108.5 Z"/></g>
<g><path style="opacity:1" fill="#8c9297" d="M 542.5,114.5 C 536.5,114.5 530.5,114.5 524.5,114.5C 524.5,117.833 524.5,121.167 524.5,124.5C 530.5,124.5 536.5,124.5 542.5,124.5C 536.355,125.49 530.022,125.823 523.5,125.5C 523.5,121.5 523.5,117.5 523.5,113.5C 530.022,113.177 536.355,113.51 542.5,114.5 Z"/></g>
<g><path style="opacity:1" fill="#f3f3f3" d="M 332.5,113.5 C 347.707,111.872 354.207,118.538 352,133.5C 345.977,142.788 338.144,144.788 328.5,139.5C 323.728,134.444 322.228,128.444 324,121.5C 326.074,117.923 328.907,115.256 332.5,113.5 Z"/></g>
<g><path style="opacity:1" fill="#decfbc" d="M 468.5,114.5 C 472.97,113.514 477.637,113.181 482.5,113.5C 482.828,125.012 482.495,136.346 481.5,147.5C 481.5,136.5 481.5,125.5 481.5,114.5C 477.167,114.5 472.833,114.5 468.5,114.5 Z"/></g>
<g><path style="opacity:1" fill="#7c9ab6" d="M 506.5,114.5 C 501.833,114.5 497.167,114.5 492.5,114.5C 492.5,125.167 492.5,135.833 492.5,146.5C 491.505,135.679 491.172,124.679 491.5,113.5C 496.695,113.179 501.695,113.513 506.5,114.5 Z"/></g>
<g><path style="opacity:1" fill="#f8f7f6" d="M 542.5,114.5 C 545.272,114.627 546.605,116.127 546.5,119C 546.858,122.133 545.525,123.967 542.5,124.5C 536.5,124.5 530.5,124.5 524.5,124.5C 524.5,121.167 524.5,117.833 524.5,114.5C 530.5,114.5 536.5,114.5 542.5,114.5 Z"/></g>
<g><path style="opacity:1" fill="#a68866" d="M 666.5,114.5 C 671.305,113.513 676.305,113.179 681.5,113.5C 681.828,124.679 681.495,135.679 680.5,146.5C 680.5,135.833 680.5,125.167 680.5,114.5C 675.833,114.5 671.167,114.5 666.5,114.5 Z"/></g>
<g><path style="opacity:1" fill="#f3f3f2" d="M 748.5,113.5 C 757.117,111.901 763.95,114.567 769,121.5C 770.43,138.577 762.93,144.91 746.5,140.5C 740.763,135.046 738.93,128.379 741,120.5C 743.396,117.933 745.896,115.6 748.5,113.5 Z"/></g>
<g><path style="opacity:1" fill="#9f7b57" d="M 617.5,116.5 C 617.573,118.027 616.906,119.027 615.5,119.5C 615.427,117.973 616.094,116.973 617.5,116.5 Z"/></g>
<g><path style="opacity:1" fill="#8eabc8" d="M 274.5,117.5 C 271.972,121.419 270.639,125.753 270.5,130.5C 268.977,125.396 270.31,121.063 274.5,117.5 Z"/></g>
<g><path style="opacity:1" fill="#896443" d="M 261.5,121.5 C 261.413,126.537 261.746,131.537 262.5,136.5C 261.009,133.814 260.343,130.814 260.5,127.5C 260.505,125.304 260.838,123.304 261.5,121.5 Z"/></g>
<g><path style="opacity:1" fill="#fa3933" d="M 16.5,112.5 C 17.2387,119.015 17.9054,125.682 18.5,132.5C 18.3918,133.442 18.0585,134.275 17.5,135C 19.3213,137.456 19.988,140.289 19.5,143.5C 18.5309,141.337 17.6976,139.004 17,136.5C 16.5003,128.507 16.3336,120.507 16.5,112.5 Z"/></g>
<g><path style="opacity:1" fill="#fd9c99" d="M 225.5,112.5 C 226.655,119.321 226.821,126.321 226,133.5C 225.768,134.737 225.268,135.737 224.5,136.5C 225.323,128.529 225.656,120.529 225.5,112.5 Z"/></g>
<g><path style="opacity:1" fill="#a7bbce" d="M 535.5,132.5 C 531.833,132.5 528.167,132.5 524.5,132.5C 524.5,137.5 524.5,142.5 524.5,147.5C 523.512,142.36 523.179,137.026 523.5,131.5C 527.702,131.183 531.702,131.517 535.5,132.5 Z"/></g>
<g><path style="opacity:1" fill="#fb3932" d="M 192.5,132.5 C 192.662,134.527 192.495,136.527 192,138.5C 189.045,142.352 187.045,146.685 186,151.5C 185.329,152.252 184.496,152.586 183.5,152.5C 186.006,145.497 189.006,138.83 192.5,132.5 Z"/></g>
<g><path style="opacity:1" fill="#aa8868" d="M 617.5,139.5 C 619.5,140.833 621.167,142.5 622.5,144.5C 619.833,143.833 618.167,142.167 617.5,139.5 Z"/></g>
<g><path style="opacity:1" fill="#1b1818" d="M 850.5,141.5 C 851.265,144.096 851.599,146.763 851.5,149.5C 850.522,153.119 848.355,155.785 845,157.5C 844.5,157.167 844,156.833 843.5,156.5C 845.734,154.619 847.067,152.285 847.5,149.5C 842.712,148.877 840.879,146.21 842,141.5C 844.83,138.899 847.663,138.899 850.5,141.5 Z"/></g>
<g><path style="opacity:1" fill="#ad8a6c" d="M 954.5,139.5 C 956.5,140.833 958.167,142.5 959.5,144.5C 956.833,143.833 955.167,142.167 954.5,139.5 Z"/></g>
<g><path style="opacity:1" fill="#141213" d="M 1008.5,139.5 C 1014.99,139.156 1016.99,141.99 1014.5,148C 1008.09,150.593 1005.59,148.426 1007,141.5C 1007.72,140.956 1008.22,140.289 1008.5,139.5 Z"/></g>
<g><path style="opacity:1" fill="#989999" d="M 434.5,140.5 C 439.463,141.254 444.463,141.587 449.5,141.5C 447.696,142.162 445.696,142.495 443.5,142.5C 440.186,142.657 437.186,141.991 434.5,140.5 Z"/></g>
<g><path style="opacity:1" fill="#9fa1a2" d="M 968.5,140.5 C 973.13,141.229 977.797,141.563 982.5,141.5C 980.866,142.161 979.033,142.494 977,142.5C 973.85,142.64 971.017,141.973 968.5,140.5 Z"/></g>
<g><path style="opacity:1" fill="#87accc" d="M 850.5,141.5 C 852.026,142.492 852.693,143.992 852.5,146C 852.486,147.385 852.152,148.551 851.5,149.5C 851.599,146.763 851.265,144.096 850.5,141.5 Z"/></g>
<g><path style="opacity:1" fill="#fab9b9" d="M 32.5,156.5 C 44.4547,158.48 56.788,159.146 69.5,158.5C 56.8333,159.833 44.1667,159.833 31.5,158.5C 31.3284,157.508 31.6618,156.842 32.5,156.5 Z"/></g>
<g><path style="opacity:1" fill="#fabbbb" d="M 87.5,156.5 C 100.124,158.481 113.124,159.148 126.5,158.5C 113.344,159.496 100.01,159.829 86.5,159.5C 86.2627,158.209 86.596,157.209 87.5,156.5 Z"/></g>
<g><path style="opacity:1" fill="#fabbbb" d="M 145.5,156.5 C 156.785,158.478 168.452,159.145 180.5,158.5C 174.676,159.166 168.676,159.5 162.5,159.5C 156.128,159.496 150.128,158.829 144.5,157.5C 144.5,156.833 144.833,156.5 145.5,156.5 Z"/></g>
<g><path style="opacity:1" fill="#fa3939" d="M 144.5,157.5 C 150.128,158.829 156.128,159.496 162.5,159.5C 168.676,159.5 174.676,159.166 180.5,158.5C 180.5,157.833 180.833,157.5 181.5,157.5C 181.5,158.5 181.5,159.5 181.5,160.5C 179.167,160.5 176.833,160.5 174.5,160.5C 164.167,160.5 153.833,160.5 143.5,160.5C 143.263,159.209 143.596,158.209 144.5,157.5 Z"/></g>
<g><path style="opacity:1" fill="#191919" d="M 282.5,202.5 C 283.461,200.735 283.795,198.735 283.5,196.5C 280.833,196.5 278.167,196.5 275.5,196.5C 275.5,195.5 275.5,194.5 275.5,193.5C 279.167,193.5 282.833,193.5 286.5,193.5C 286.665,197.182 286.499,200.848 286,204.5C 277.644,210.493 269.978,209.826 263,202.5C 258.409,193.321 260.242,185.821 268.5,180C 274.123,178.724 279.29,179.557 284,182.5C 285.128,184.345 285.628,186.345 285.5,188.5C 284.5,188.5 283.5,188.5 282.5,188.5C 282.703,186.61 282.037,185.11 280.5,184C 268.539,180.626 263.372,185.126 265,197.5C 267.253,204.106 271.753,206.273 278.5,204C 279.901,203.59 281.234,203.09 282.5,202.5 Z"/></g>
<g><path style="opacity:1" fill="#1a1a1a" d="M 597.5,179.5 C 603.652,178.408 608.818,180.075 613,184.5C 613.483,185.448 613.649,186.448 613.5,187.5C 610.561,187.082 608.228,185.582 606.5,183C 598.426,181.403 594.092,184.736 593.5,193C 592.985,202.489 597.318,206.155 606.5,204C 608.635,203.241 609.968,201.741 610.5,199.5C 611.833,198.167 613.167,198.167 614.5,199.5C 610.101,208.355 603.434,210.522 594.5,206C 586.939,195.994 587.939,187.16 597.5,179.5 Z"/></g>
<g><path style="opacity:1" fill="#1c1c1c" d="M 642.5,179.5 C 655.495,178.042 661.662,183.709 661,196.5C 657.386,207.596 650.219,210.763 639.5,206C 634.854,200.689 633.354,194.523 635,187.5C 637.028,184.308 639.528,181.641 642.5,179.5 Z"/></g>
<g><path style="opacity:1" fill="#1a1a1a" d="M 861.5,179.5 C 867.526,178.676 872.693,180.342 877,184.5C 877.483,185.448 877.649,186.448 877.5,187.5C 876.022,187.762 874.689,187.429 873.5,186.5C 870.717,182.829 867.05,181.662 862.5,183C 858.681,185.64 857.015,189.307 857.5,194C 857.461,202.957 861.794,206.29 870.5,204C 872.213,202.622 873.547,200.955 874.5,199C 875.448,198.517 876.448,198.351 877.5,198.5C 875.517,206.17 870.517,209.336 862.5,208C 858.359,206.526 855.526,203.693 854,199.5C 851.416,190.753 853.916,184.086 861.5,179.5 Z"/></g>
<g><path style="opacity:1" fill="#636364" d="M 909.5,207.5 C 909.5,199.167 909.5,190.833 909.5,182.5C 912.572,182.817 915.572,182.484 918.5,181.5C 911.5,180.167 904.5,180.167 897.5,181.5C 900.642,182.167 903.642,182.834 906.5,183.5C 903.167,183.5 899.833,183.5 896.5,183.5C 896.5,182.167 896.5,180.833 896.5,179.5C 904.167,179.5 911.833,179.5 919.5,179.5C 919.5,180.833 919.5,182.167 919.5,183.5C 916.5,183.5 913.5,183.5 910.5,183.5C 910.826,191.684 910.492,199.684 909.5,207.5 Z"/></g>
<g><path style="opacity:1" fill="#1c1c1c" d="M 946.5,179.5 C 960.652,178.151 966.819,184.485 965,198.5C 960.289,207.96 953.122,210.46 943.5,206C 938.854,200.689 937.354,194.523 939,187.5C 941.028,184.308 943.528,181.641 946.5,179.5 Z"/></g>
<g><path style="opacity:1" fill="#454546" d="M 312.5,183.5 C 317.681,182.833 323.015,182.167 328.5,181.5C 322.202,180.504 315.868,180.17 309.5,180.5C 309.5,189.5 309.5,198.5 309.5,207.5C 308.506,198.348 308.173,189.015 308.5,179.5C 315.5,179.5 322.5,179.5 329.5,179.5C 329.5,180.833 329.5,182.167 329.5,183.5C 323.833,183.5 318.167,183.5 312.5,183.5 Z"/></g>
<g><path style="opacity:1" fill="#0f0f0f" d="M 312.5,183.5 C 312.5,186.167 312.5,188.833 312.5,191.5C 317.5,191.5 322.5,191.5 327.5,191.5C 327.5,192.5 327.5,193.5 327.5,194.5C 322.305,194.179 317.305,194.513 312.5,195.5C 312.5,198.5 312.5,201.5 312.5,204.5C 318.167,204.5 323.833,204.5 329.5,204.5C 329.5,205.5 329.5,206.5 329.5,207.5C 322.833,207.5 316.167,207.5 309.5,207.5C 309.5,198.5 309.5,189.5 309.5,180.5C 315.868,180.17 322.202,180.504 328.5,181.5C 323.015,182.167 317.681,182.833 312.5,183.5 Z"/></g>
<g><path style="opacity:1" fill="#8f8f8f" d="M 355.5,180.5 C 354.167,180.5 352.833,180.5 351.5,180.5C 351.5,189.5 351.5,198.5 351.5,207.5C 350.506,198.348 350.173,189.015 350.5,179.5C 352.415,179.216 354.081,179.549 355.5,180.5 Z"/></g>
<g><path style="opacity:1" fill="#0d0d0d" d="M 355.5,180.5 C 359.833,187.167 364.167,193.833 368.5,200.5C 368.56,201.043 368.893,201.376 369.5,201.5C 370.167,194.5 370.833,187.5 371.5,180.5C 372.498,189.475 372.832,198.475 372.5,207.5C 371.022,207.762 369.689,207.429 368.5,206.5C 364.248,199.661 359.748,192.994 355,186.5C 354.5,193.492 354.334,200.492 354.5,207.5C 353.5,207.5 352.5,207.5 351.5,207.5C 351.5,198.5 351.5,189.5 351.5,180.5C 352.833,180.5 354.167,180.5 355.5,180.5 Z"/></g>
<g><path style="opacity:1" fill="#444343" d="M 372.5,207.5 C 372.832,198.475 372.498,189.475 371.5,180.5C 370.833,187.5 370.167,194.5 369.5,201.5C 368.893,201.376 368.56,201.043 368.5,200.5C 369.491,193.687 369.825,186.687 369.5,179.5C 370.833,179.5 372.167,179.5 373.5,179.5C 373.827,189.015 373.494,198.348 372.5,207.5 Z"/></g>
<g><path style="opacity:1" fill="#050505" d="M 399.5,183.5 C 399.5,186.167 399.5,188.833 399.5,191.5C 404.349,192.166 409.349,192.833 414.5,193.5C 409.349,194.167 404.349,194.834 399.5,195.5C 399.5,198.5 399.5,201.5 399.5,204.5C 405.167,204.5 410.833,204.5 416.5,204.5C 416.5,205.5 416.5,206.5 416.5,207.5C 409.833,207.5 403.167,207.5 396.5,207.5C 396.5,198.5 396.5,189.5 396.5,180.5C 402.868,180.17 409.202,180.504 415.5,181.5C 410.015,182.167 404.681,182.833 399.5,183.5 Z"/></g>
<g><path style="opacity:1" fill="#171717" d="M 438.5,179.5 C 444.176,179.334 449.843,179.501 455.5,180C 460.143,182.072 461.643,185.572 460,190.5C 458.723,192.731 456.889,194.398 454.5,195.5C 457.411,198.99 460.078,202.656 462.5,206.5C 460.833,207.833 459.167,207.833 457.5,206.5C 455.625,203.249 453.625,200.082 451.5,197C 448.649,195.711 445.649,195.211 442.5,195.5C 442.5,199.5 442.5,203.5 442.5,207.5C 441.167,207.5 439.833,207.5 438.5,207.5C 438.5,198.167 438.5,188.833 438.5,179.5 Z"/></g>
<g><path style="opacity:1" fill="#1b1b1b" d="M 490.5,179.5 C 492.144,179.286 493.644,179.62 495,180.5C 498.804,189.418 502.304,198.418 505.5,207.5C 504.022,207.762 502.689,207.429 501.5,206.5C 500.423,204.271 499.756,201.937 499.5,199.5C 495.116,199.174 490.783,199.508 486.5,200.5C 485.391,202.385 484.557,204.385 484,206.5C 482.989,207.337 481.822,207.67 480.5,207.5C 483.221,198.007 486.554,188.674 490.5,179.5 Z"/></g>
<g><path style="opacity:1" fill="#070707" d="M 525.5,180.5 C 526.5,180.5 527.5,180.5 528.5,180.5C 528.174,188.684 528.508,196.684 529.5,204.5C 533.833,204.5 538.167,204.5 542.5,204.5C 542.5,205.5 542.5,206.5 542.5,207.5C 536.833,207.5 531.167,207.5 525.5,207.5C 525.5,198.5 525.5,189.5 525.5,180.5 Z"/></g>
<g><path style="opacity:1" fill="#121212" d="M 699.5,200.5 C 699.56,201.043 699.893,201.376 700.5,201.5C 701.497,194.532 701.83,187.532 701.5,180.5C 702.5,180.5 703.5,180.5 704.5,180.5C 704.5,189.5 704.5,198.5 704.5,207.5C 702.278,207.822 700.444,207.155 699,205.5C 694.943,199.616 691.11,193.616 687.5,187.5C 687.44,186.957 687.107,186.624 686.5,186.5C 685.503,193.468 685.17,200.468 685.5,207.5C 684.5,207.5 683.5,207.5 682.5,207.5C 682.5,198.167 682.5,188.833 682.5,179.5C 684.144,179.286 685.644,179.62 687,180.5C 691.428,187.027 695.595,193.693 699.5,200.5 Z"/></g>
<g><path style="opacity:1" fill="#707070" d="M 704.5,180.5 C 703.5,180.5 702.5,180.5 701.5,180.5C 701.83,187.532 701.497,194.532 700.5,201.5C 699.893,201.376 699.56,201.043 699.5,200.5C 700.491,193.687 700.825,186.687 700.5,179.5C 702.099,179.232 703.432,179.566 704.5,180.5 Z"/></g>
<g><path style="opacity:1" fill="#171718" d="M 767.5,179.5 C 773.176,179.334 778.843,179.501 784.5,180C 789.689,182.913 790.856,187.08 788,192.5C 786.352,193.717 784.519,194.55 782.5,195C 786.103,198.38 789.103,202.213 791.5,206.5C 790.277,207.614 788.944,207.781 787.5,207C 784.92,203.842 782.587,200.508 780.5,197C 777.649,195.711 774.649,195.211 771.5,195.5C 771.5,199.5 771.5,203.5 771.5,207.5C 770.167,207.5 768.833,207.5 767.5,207.5C 767.5,198.167 767.5,188.833 767.5,179.5 Z"/></g>
<g><path style="opacity:1" fill="#191919" d="M 819.5,179.5 C 821.144,179.286 822.644,179.62 824,180.5C 828.074,189.309 831.574,198.309 834.5,207.5C 833.167,207.5 831.833,207.5 830.5,207.5C 829.833,204.833 829.167,202.167 828.5,199.5C 824.154,199.334 819.821,199.501 815.5,200C 814.475,202.071 813.642,204.238 813,206.5C 811.989,207.337 810.822,207.67 809.5,207.5C 812.403,197.961 815.736,188.627 819.5,179.5 Z"/></g>
<g><path style="opacity:1" fill="#000202" d="M 909.5,207.5 C 908.5,207.5 907.5,207.5 906.5,207.5C 906.5,199.5 906.5,191.5 906.5,183.5C 903.642,182.834 900.642,182.167 897.5,181.5C 904.5,180.167 911.5,180.167 918.5,181.5C 915.572,182.484 912.572,182.817 909.5,182.5C 909.5,190.833 909.5,199.167 909.5,207.5 Z"/></g>
<g><path style="opacity:1" fill="#161717" d="M 986.5,179.5 C 992.176,179.334 997.843,179.501 1003.5,180C 1008.69,182.913 1009.86,187.08 1007,192.5C 1005.35,193.717 1003.52,194.55 1001.5,195C 1005.1,198.38 1008.1,202.213 1010.5,206.5C 1009.28,207.614 1007.94,207.781 1006.5,207C 1003.92,203.842 1001.59,200.508 999.5,197C 996.649,195.711 993.649,195.211 990.5,195.5C 990.5,199.5 990.5,203.5 990.5,207.5C 989.167,207.5 987.833,207.5 986.5,207.5C 986.5,198.167 986.5,188.833 986.5,179.5 Z"/></g>
<g><path style="opacity:1" fill="#4f4f50" d="M 399.5,183.5 C 404.681,182.833 410.015,182.167 415.5,181.5C 409.202,180.504 402.868,180.17 396.5,180.5C 396.5,189.5 396.5,198.5 396.5,207.5C 395.506,198.348 395.173,189.015 395.5,179.5C 402.5,179.5 409.5,179.5 416.5,179.5C 416.5,180.833 416.5,182.167 416.5,183.5C 410.833,183.5 405.167,183.5 399.5,183.5 Z"/></g>
<g><path style="opacity:1" fill="#727373" d="M 525.5,180.5 C 526.568,179.566 527.901,179.232 529.5,179.5C 529.5,187.833 529.5,196.167 529.5,204.5C 528.508,196.684 528.174,188.684 528.5,180.5C 527.5,180.5 526.5,180.5 525.5,180.5 Z"/></g>
<g><path style="opacity:1" fill="#7c7c7c" d="M 453.5,183.5 C 449.833,183.5 446.167,183.5 442.5,183.5C 442.5,186.167 442.5,188.833 442.5,191.5C 441.523,188.713 441.19,185.713 441.5,182.5C 445.702,182.183 449.702,182.517 453.5,183.5 Z"/></g>
<g><path style="opacity:1" fill="#ebebeb" d="M 453.5,183.5 C 454.496,183.414 455.329,183.748 456,184.5C 457.346,190.866 454.68,193.533 448,192.5C 445.967,192.494 444.134,192.161 442.5,191.5C 442.5,188.833 442.5,186.167 442.5,183.5C 446.167,183.5 449.833,183.5 453.5,183.5 Z"/></g>
<g><path style="opacity:1" fill="#f1f1f1" d="M 643.5,182.5 C 654.787,182.066 659.287,187.399 657,198.5C 653.723,204.109 648.89,205.942 642.5,204C 641.667,203.167 640.833,202.333 640,201.5C 637.027,194.202 638.193,187.869 643.5,182.5 Z"/></g>
<g><path style="opacity:1" fill="#767578" d="M 782.5,183.5 C 778.833,183.5 775.167,183.5 771.5,183.5C 771.5,186.167 771.5,188.833 771.5,191.5C 775.167,191.5 778.833,191.5 782.5,191.5C 778.702,192.483 774.702,192.817 770.5,192.5C 770.5,189.167 770.5,185.833 770.5,182.5C 774.702,182.183 778.702,182.517 782.5,183.5 Z"/></g>
<g><path style="opacity:1" fill="#f5f5f5" d="M 782.5,183.5 C 784.89,183.685 785.89,185.018 785.5,187.5C 785.89,189.982 784.89,191.315 782.5,191.5C 778.833,191.5 775.167,191.5 771.5,191.5C 771.5,188.833 771.5,186.167 771.5,183.5C 775.167,183.5 778.833,183.5 782.5,183.5 Z"/></g>
<g><path style="opacity:1" fill="#f1f2f2" d="M 947.5,182.5 C 958.418,181.651 962.918,186.651 961,197.5C 958.27,204.053 953.437,206.22 946.5,204C 945.667,203.167 944.833,202.333 944,201.5C 941.027,194.202 942.193,187.869 947.5,182.5 Z"/></g>
<g><path style="opacity:1" fill="#727272" d="M 1001.5,183.5 C 997.833,183.5 994.167,183.5 990.5,183.5C 990.5,186.167 990.5,188.833 990.5,191.5C 994.5,191.5 998.5,191.5 1002.5,191.5C 998.366,192.485 994.032,192.818 989.5,192.5C 989.5,189.167 989.5,185.833 989.5,182.5C 993.702,182.183 997.702,182.517 1001.5,183.5 Z"/></g>
<g><path style="opacity:1" fill="#f6f6f6" d="M 1001.5,183.5 C 1003.89,183.685 1004.89,185.018 1004.5,187.5C 1004.66,189.355 1003.99,190.688 1002.5,191.5C 998.5,191.5 994.5,191.5 990.5,191.5C 990.5,188.833 990.5,186.167 990.5,183.5C 994.167,183.5 997.833,183.5 1001.5,183.5 Z"/></g>
<g><path style="opacity:1" fill="#7a7b7c" d="M 737.5,207.5 C 737.5,199.167 737.5,190.833 737.5,182.5C 740.572,182.817 743.572,182.484 746.5,181.5C 739.5,180.167 732.5,180.167 725.5,181.5C 728.428,182.484 731.428,182.817 734.5,182.5C 734.5,190.833 734.5,199.167 734.5,207.5C 733.508,199.684 733.174,191.684 733.5,183.5C 730.5,183.5 727.5,183.5 724.5,183.5C 724.5,182.167 724.5,180.833 724.5,179.5C 732.167,179.5 739.833,179.5 747.5,179.5C 747.5,180.833 747.5,182.167 747.5,183.5C 744.5,183.5 741.5,183.5 738.5,183.5C 738.826,191.684 738.492,199.684 737.5,207.5 Z"/></g>
<g><path style="opacity:1" fill="#020202" d="M 737.5,207.5 C 736.5,207.5 735.5,207.5 734.5,207.5C 734.5,199.167 734.5,190.833 734.5,182.5C 731.428,182.817 728.428,182.484 725.5,181.5C 732.5,180.167 739.5,180.167 746.5,181.5C 743.572,182.484 740.572,182.817 737.5,182.5C 737.5,190.833 737.5,199.167 737.5,207.5 Z"/></g>
<g><path style="opacity:1" fill="#d5d6d5" d="M 491.5,183.5 C 494.035,187.018 496.035,191.018 497.5,195.5C 494.572,196.484 491.572,196.817 488.5,196.5C 489.301,192.103 490.301,187.769 491.5,183.5 Z"/></g>
<g><path style="opacity:1" fill="#d7d7d7" d="M 820.5,183.5 C 821.497,183.47 822.164,183.97 822.5,185C 823.932,188.461 825.265,191.961 826.5,195.5C 823.572,196.484 820.572,196.817 817.5,196.5C 818.699,192.231 819.699,187.897 820.5,183.5 Z"/></g>
<g><path style="opacity:1" fill="#858585" d="M 687.5,187.5 C 686.833,194.167 686.167,200.833 685.5,207.5C 685.17,200.468 685.503,193.468 686.5,186.5C 687.107,186.624 687.44,186.957 687.5,187.5 Z"/></g>
<g><path style="opacity:1" fill="#898989" d="M 327.5,191.5 C 328.434,192.568 328.768,193.901 328.5,195.5C 323.167,195.5 317.833,195.5 312.5,195.5C 317.305,194.513 322.305,194.179 327.5,194.5C 327.5,193.5 327.5,192.5 327.5,191.5 Z"/></g>
<g><path style="opacity:1" fill="#6e6e6f" d="M 399.5,191.5 C 404.833,191.5 410.167,191.5 415.5,191.5C 415.5,192.833 415.5,194.167 415.5,195.5C 410.167,195.5 404.833,195.5 399.5,195.5C 404.349,194.834 409.349,194.167 414.5,193.5C 409.349,192.833 404.349,192.166 399.5,191.5 Z"/></g>
<g><path style="opacity:1" fill="#8e8e8e" d="M 275.5,193.5 C 275.5,194.5 275.5,195.5 275.5,196.5C 278.167,196.5 280.833,196.5 283.5,196.5C 283.795,198.735 283.461,200.735 282.5,202.5C 282.5,200.833 282.5,199.167 282.5,197.5C 279.833,197.5 277.167,197.5 274.5,197.5C 274.232,195.901 274.566,194.568 275.5,193.5 Z"/></g>
</svg>
