<?xml version="1.0" encoding="UTF-8"?>
<!DOCTYPE svg PUBLIC "-//W3C//DTD SVG 1.1//EN" "http://www.w3.org/Graphics/SVG/1.1/DTD/svg11.dtd">
<svg xmlns="http://www.w3.org/2000/svg" version="1.1" width="1382px" height="323px" style="shape-rendering:geometricPrecision; text-rendering:geometricPrecision; image-rendering:optimizeQuality; fill-rule:evenodd; clip-rule:evenodd" xmlns:xlink="http://www.w3.org/1999/xlink">
<g><path style="opacity:1" fill="#f8f8f8" d="M -0.5,-0.5 C 460.167,-0.5 920.833,-0.5 1381.5,-0.5C 1381.5,107.167 1381.5,214.833 1381.5,322.5C 920.833,322.5 460.167,322.5 -0.5,322.5C -0.5,214.833 -0.5,107.167 -0.5,-0.5 Z"/></g>
<g><path style="opacity:1" fill="#fa3d3b" d="M 170.5,21.5 C 164.5,22.8333 158.5,22.8333 152.5,21.5C 158.37,20.2338 164.37,20.2338 170.5,21.5 Z"/></g>
<g><path style="opacity:1" fill="#fa0705" d="M 152.5,21.5 C 158.5,22.8333 164.5,22.8333 170.5,21.5C 206.759,23.6355 237.426,37.6355 262.5,63.5C 263.477,66.9892 265.477,69.8225 268.5,72C 243.813,71.8408 219.479,72.6741 195.5,74.5C 160.593,75.4102 130.26,87.5768 104.5,111C 82.2624,132.253 65.0958,157.086 53,185.5C 48.9322,194.299 45.4322,203.299 42.5,212.5C 41.7326,213.172 41.0659,214.005 40.5,215C 58.1667,215.667 75.8333,215.667 93.5,215C 94.5981,214.23 94.5981,213.397 93.5,212.5C 104.974,190.22 116.474,167.887 128,145.5C 143.566,117.784 167.066,101.118 198.5,95.5C 227.76,96.4915 257.093,96.8248 286.5,96.5C 310.471,146.611 307.304,194.944 277,241.5C 241.521,287.807 194.688,306.973 136.5,299C 73.9982,284.165 36.1648,245.332 23,182.5C 22.5017,179.183 22.335,175.85 22.5,172.5C 23.7652,164.187 23.7652,155.853 22.5,147.5C 24.2953,124.442 31.6286,103.442 44.5,84.5C 48.7989,81.3571 52.2989,77.3571 55,72.5C 63.1117,64.5573 70.945,56.5573 78.5,48.5C 100.16,31.6878 124.826,22.6878 152.5,21.5 Z"/></g>
<g><path style="opacity:1" fill="#050505" d="M 381.5,33.5 C 388.841,33.3337 396.174,33.5003 403.5,34C 410.06,35.6314 416.56,37.4648 423,39.5C 424.226,39.3552 425.393,39.0219 426.5,38.5C 426.833,39 427.167,39.5 427.5,40C 424.787,45.9255 421.954,51.7588 419,57.5C 418.017,55.5516 416.85,53.7183 415.5,52C 402.236,44.0657 388.903,43.7324 375.5,51C 365.977,58.3076 362.81,67.8076 366,79.5C 370.883,91.8704 380.05,98.2037 393.5,98.5C 401.176,98.3088 408.509,96.6421 415.5,93.5C 416.489,89.8927 416.823,86.226 416.5,82.5C 409.468,82.1697 402.468,82.503 395.5,83.5C 395.167,84.5 394.5,85.1667 393.5,85.5C 392.167,79.8333 392.167,74.1667 393.5,68.5C 394.382,69.7598 395.382,70.9264 396.5,72C 408.847,72.1674 421.18,72.6674 433.5,73.5C 432.758,74.2868 431.925,74.9535 431,75.5C 430.333,82.1667 430.333,88.8333 431,95.5C 432.022,96.354 432.855,97.354 433.5,98.5C 415.858,109.283 396.858,112.783 376.5,109C 351.982,99.5054 343.482,82.0054 351,56.5C 357.663,44.0952 367.83,36.4285 381.5,33.5 Z"/></g>
<g><path style="opacity:1" fill="#040404" d="M 1141.5,84.5 C 1140.88,84.6107 1140.38,84.944 1140,85.5C 1139.5,79.8431 1139.33,74.1764 1139.5,68.5C 1140.84,69.3149 1141.84,70.4815 1142.5,72C 1155.17,72.3333 1167.83,72.6667 1180.5,73C 1179.42,73.956 1178.25,74.7894 1177,75.5C 1176.33,82.1667 1176.33,88.8333 1177,95.5C 1178.25,96.2106 1179.42,97.044 1180.5,98C 1163.94,108.304 1145.94,112.304 1126.5,110C 1101.19,102.885 1091.02,86.3846 1096,60.5C 1101.41,45.6982 1111.91,36.8649 1127.5,34C 1136.88,33.184 1146.21,33.5173 1155.5,35C 1161.67,38.1309 1168,39.6309 1174.5,39.5C 1171.75,45.325 1168.75,50.9916 1165.5,56.5C 1163.97,53.4712 1161.64,51.3045 1158.5,50C 1145.93,43.7813 1133.6,44.1146 1121.5,51C 1111.16,60.3484 1108.66,71.5151 1114,84.5C 1120.07,93.4561 1128.57,98.1228 1139.5,98.5C 1147.78,98.138 1155.62,96.138 1163,92.5C 1163.5,89.1832 1163.67,85.8499 1163.5,82.5C 1156.49,82.3337 1149.49,82.5004 1142.5,83C 1141.94,83.3826 1141.61,83.8826 1141.5,84.5 Z"/></g>
<g><path style="opacity:1" fill="#050505" d="M 1308.5,33.5 C 1323.3,31.6397 1337.3,34.1397 1350.5,41C 1352.66,41.0781 1354.66,41.2448 1356.5,41.5C 1353.75,47.325 1350.75,52.9916 1347.5,58.5C 1345.24,53.7475 1341.58,50.5808 1336.5,49C 1326.42,44.5846 1316.42,44.5846 1306.5,49C 1301.3,53.0876 1301.3,57.0876 1306.5,61C 1316.49,62.333 1326.49,63.6663 1336.5,65C 1356.15,70.3729 1361.31,82.2063 1352,100.5C 1345.7,106.38 1338.2,109.547 1329.5,110C 1322.83,110.667 1316.17,110.667 1309.5,110C 1303.04,108.068 1296.71,105.735 1290.5,103C 1288.89,102.28 1287.39,102.446 1286,103.5C 1285.33,102.167 1285.33,100.833 1286,99.5C 1288.22,94.3334 1290.72,89.3334 1293.5,84.5C 1294.56,88.3957 1296.9,91.229 1300.5,93C 1312.75,99.6342 1325.09,99.9676 1337.5,94C 1341.41,89.9247 1341.41,85.9247 1337.5,82C 1326.21,80.071 1314.88,78.4043 1303.5,77C 1290.06,71.9532 1285.23,62.4532 1289,48.5C 1293.59,40.9611 1300.09,35.9611 1308.5,33.5 Z"/></g>
<g><path style="opacity:1" fill="#020202" d="M 483.5,34.5 C 492.857,34.1684 502.19,34.5017 511.5,35.5C 509.744,37.1913 509.244,39.1913 510,41.5C 517,54.1667 524,66.8333 531,79.5C 538.577,66.1777 545.744,52.6777 552.5,39C 552.156,37.6349 551.489,36.4682 550.5,35.5C 559.833,34.1667 569.167,34.1667 578.5,35.5C 577.24,36.3816 576.074,37.3816 575,38.5C 574.333,60.8333 574.333,83.1667 575,105.5C 576.074,106.618 577.24,107.618 578.5,108.5C 570.833,109.833 563.167,109.833 555.5,108.5C 556.145,107.354 556.978,106.354 558,105.5C 558.667,89.8333 558.667,74.1667 558,58.5C 548.5,74.8333 539,91.1667 529.5,107.5C 519.842,91.5253 510.675,75.1919 502,58.5C 501.333,74.1667 501.333,89.8333 502,105.5C 503.074,106.618 504.24,107.618 505.5,108.5C 498.167,109.833 490.833,109.833 483.5,108.5C 483.833,107.5 484.5,106.833 485.5,106.5C 486.833,83.5 486.833,60.5 485.5,37.5C 484.081,36.9953 483.415,35.9953 483.5,34.5 Z"/></g>
<g><path style="opacity:1" fill="#020202" d="M 732.5,105.5 C 733.827,89.9949 733.827,74.3283 732.5,58.5C 731.893,58.6236 731.56,58.9569 731.5,59.5C 722.668,75.836 713.335,91.836 703.5,107.5C 694.375,91.7185 685.708,75.7185 677.5,59.5C 677.44,58.9569 677.107,58.6236 676.5,58.5C 675.173,74.3283 675.173,89.9949 676.5,105.5C 677.23,106.712 678.23,107.712 679.5,108.5C 672.167,109.833 664.833,109.833 657.5,108.5C 658.76,107.618 659.926,106.618 661,105.5C 661.667,83.1667 661.667,60.8333 661,38.5C 659.926,37.3816 658.76,36.3816 657.5,35.5C 667.167,34.1667 676.833,34.1667 686.5,35.5C 684.054,36.427 683.221,38.0937 684,40.5C 691,53.5 698,66.5 705,79.5C 712.587,66.662 719.92,53.662 727,40.5C 727.779,38.0937 726.946,36.427 724.5,35.5C 733.833,34.1667 743.167,34.1667 752.5,35.5C 751.758,36.2868 750.925,36.9535 750,37.5C 749.333,60.5 749.333,83.5 750,106.5C 750.925,107.047 751.758,107.713 752.5,108.5C 744.833,109.833 737.167,109.833 729.5,108.5C 730.77,107.712 731.77,106.712 732.5,105.5 Z"/></g>
<g><path style="opacity:1" fill="#030303" d="M 792.5,34.5 C 801.525,34.1685 810.525,34.5018 819.5,35.5C 817.495,36.3372 816.495,37.8372 816.5,40C 825.979,61.4587 836.145,82.6253 847,103.5C 848.359,105.692 850.192,107.359 852.5,108.5C 843.5,109.833 834.5,109.833 825.5,108.5C 827.505,107.663 828.505,106.163 828.5,104C 827.046,99.4242 825.046,95.0909 822.5,91C 810.819,90.1675 799.152,90.3341 787.5,91.5C 785.34,95.4811 783.674,99.6478 782.5,104C 782.495,106.163 783.495,107.663 785.5,108.5C 777.167,109.833 768.833,109.833 760.5,108.5C 762.193,107.772 763.693,106.772 765,105.5C 775,84.8333 785,64.1667 795,43.5C 795.667,41.5 795.667,39.5 795,37.5C 793.583,36.9221 792.75,35.9221 792.5,34.5 Z"/></g>
<g><path style="opacity:1" fill="#040404" d="M 860.5,34.5 C 868.86,34.1688 877.193,34.5021 885.5,35.5C 883.876,36.8689 883.376,38.5355 884,40.5C 898,55.1667 912,69.8333 926,84.5C 926.833,68.8227 926.666,53.156 925.5,37.5C 924.5,37.1667 923.833,36.5 923.5,35.5C 930.5,34.1667 937.5,34.1667 944.5,35.5C 944.167,36.5 943.5,37.1667 942.5,37.5C 941.167,60.5 941.167,83.5 942.5,106.5C 943.5,106.833 944.167,107.5 944.5,108.5C 936.833,109.833 929.167,109.833 921.5,108.5C 923.124,107.131 923.624,105.464 923,103.5C 908.696,88.1953 894.029,73.1953 879,58.5C 878.333,74.1667 878.333,89.8333 879,105.5C 880.074,106.618 881.24,107.618 882.5,108.5C 875.167,109.833 867.833,109.833 860.5,108.5C 861.242,107.713 862.075,107.047 863,106.5C 863.667,83.5 863.667,60.5 863,37.5C 861.583,36.9221 860.75,35.9221 860.5,34.5 Z"/></g>
<g><path style="opacity:1" fill="#0a0a0a" d="M 959.5,34.5 C 967.196,34.1692 974.862,34.5025 982.5,35.5C 981.758,36.2868 980.925,36.9535 980,37.5C 979.333,60.5 979.333,83.5 980,106.5C 980.925,107.047 981.758,107.713 982.5,108.5C 974.833,109.833 967.167,109.833 959.5,108.5C 960.242,107.713 961.075,107.047 962,106.5C 962.667,83.5 962.667,60.5 962,37.5C 960.583,36.9221 959.75,35.9221 959.5,34.5 Z"/></g>
<g><path style="opacity:1" fill="#040404" d="M 997.5,34.5 C 1005.86,34.1688 1014.19,34.5021 1022.5,35.5C 1020.88,36.8689 1020.38,38.5355 1021,40.5C 1035,55.1667 1049,69.8333 1063,84.5C 1063.67,69.1667 1063.67,53.8333 1063,38.5C 1061.93,37.3816 1060.76,36.3816 1059.5,35.5C 1066.83,34.1667 1074.17,34.1667 1081.5,35.5C 1081.17,36.5 1080.5,37.1667 1079.5,37.5C 1078.17,60.5 1078.17,83.5 1079.5,106.5C 1080.5,106.833 1081.17,107.5 1081.5,108.5C 1073.83,109.833 1066.17,109.833 1058.5,108.5C 1060.91,106.681 1061.08,104.681 1059,102.5C 1045.03,87.5287 1030.7,72.862 1016,58.5C 1015.33,74.1667 1015.33,89.8333 1016,105.5C 1017.07,106.618 1018.24,107.618 1019.5,108.5C 1012.17,109.833 1004.83,109.833 997.5,108.5C 998.242,107.713 999.075,107.047 1000,106.5C 1000.67,83.5 1000.67,60.5 1000,37.5C 998.583,36.9221 997.75,35.9221 997.5,34.5 Z"/></g>
<g><path style="opacity:1" fill="#040404" d="M 1219.5,34.5 C 1228.19,34.1686 1236.86,34.502 1245.5,35.5C 1244.86,36.646 1244.02,37.646 1243,38.5C 1242.33,39.5 1242.33,40.5 1243,41.5C 1253.27,61.7103 1263.27,82.0437 1273,102.5C 1274.37,105.371 1276.54,107.371 1279.5,108.5C 1270.17,109.833 1260.83,109.833 1251.5,108.5C 1253.37,107.46 1254.71,105.96 1255.5,104C 1253.64,99.7725 1251.64,95.6058 1249.5,91.5C 1237.83,90.1667 1226.17,90.1667 1214.5,91.5C 1212.36,95.6058 1210.36,99.7725 1208.5,104C 1209.29,105.96 1210.63,107.46 1212.5,108.5C 1204.17,109.833 1195.83,109.833 1187.5,108.5C 1189.81,107.359 1191.64,105.692 1193,103.5C 1203.03,82.4183 1212.86,61.2516 1222.5,40C 1221.26,38.2691 1220.26,36.4358 1219.5,34.5 Z"/></g>
<g><path style="opacity:1" fill="#f3f3f3" d="M 1243.5,78.5 C 1236.02,79.492 1228.35,79.8254 1220.5,79.5C 1224.05,70.7372 1227.88,62.0706 1232,53.5C 1235.94,61.8206 1239.77,70.1539 1243.5,78.5 Z"/></g>
<g><path style="opacity:1" fill="#f4f4f4" d="M 816.5,78.5 C 813.016,79.1654 809.349,79.4987 805.5,79.5C 801.435,79.4888 797.768,78.8222 794.5,77.5C 797.59,69.5652 801.257,61.8986 805.5,54.5C 809.709,62.2522 813.376,70.2522 816.5,78.5 Z"/></g>
<g><path style="opacity:1" fill="#686868" d="M 677.5,59.5 C 676.504,74.6576 676.17,89.9909 676.5,105.5C 675.173,89.9949 675.173,74.3283 676.5,58.5C 677.107,58.6236 677.44,58.9569 677.5,59.5 Z"/></g>
<g><path style="opacity:1" fill="#6e6e6e" d="M 731.5,59.5 C 731.56,58.9569 731.893,58.6236 732.5,58.5C 733.827,74.3283 733.827,89.9949 732.5,105.5C 732.83,89.9909 732.496,74.6576 731.5,59.5 Z"/></g>
<g><path style="opacity:1" fill="#737373" d="M 1139.5,68.5 C 1139.33,74.1764 1139.5,79.8431 1140,85.5C 1140.38,84.944 1140.88,84.6107 1141.5,84.5C 1141.18,86.0481 1140.18,86.7148 1138.5,86.5C 1138.18,80.31 1138.51,74.31 1139.5,68.5 Z"/></g>
<g><path style="opacity:1" fill="#fa2625" d="M 262.5,63.5 C 265.449,66.7877 268.449,70.121 271.5,73.5C 246.175,74.4998 220.842,74.8331 195.5,74.5C 219.479,72.6741 243.813,71.8408 268.5,72C 265.477,69.8225 263.477,66.9892 262.5,63.5 Z"/></g>
<g><path style="opacity:1" fill="#9c9c9c" d="M 794.5,77.5 C 797.768,78.8222 801.435,79.4888 805.5,79.5C 809.349,79.4987 813.016,79.1654 816.5,78.5C 817.043,78.56 817.376,78.8933 817.5,79.5C 809.528,80.4977 801.528,80.831 793.5,80.5C 793.263,79.209 793.596,78.209 794.5,77.5 Z"/></g>
<g><path style="opacity:1" fill="#949494" d="M 1243.5,78.5 C 1244.04,78.56 1244.38,78.8933 1244.5,79.5C 1240.33,79.8333 1236.17,80.1667 1232,80.5C 1227.41,80.5338 1223.58,80.2004 1220.5,79.5C 1228.35,79.8254 1236.02,79.492 1243.5,78.5 Z"/></g>
<g><path style="opacity:1" fill="#fa2c2a" d="M 78.5,48.5 C 70.945,56.5573 63.1117,64.5573 55,72.5C 52.2989,77.3571 48.7989,81.3571 44.5,84.5C 53.4118,70.2537 64.7451,58.2537 78.5,48.5 Z"/></g>
<g><path style="opacity:1" fill="#0a0a0a" d="M 455.5,92.5 C 464.676,93.1527 468.176,97.8193 466,106.5C 462.95,110.13 459.117,111.297 454.5,110C 449.845,107.103 448.345,102.937 450,97.5C 451.73,95.5981 453.563,93.9314 455.5,92.5 Z"/></g>
<g><path style="opacity:1" fill="#090909" d="M 600.5,92.5 C 609.037,92.2006 612.871,96.2006 612,104.5C 609.549,110.089 605.383,111.922 599.5,110C 592.62,103.772 592.954,97.9385 600.5,92.5 Z"/></g>
<g><path style="opacity:1" fill="#fa3a3a" d="M 198.5,95.5 C 227.33,94.3362 256.33,94.1695 285.5,95C 286.056,95.3826 286.389,95.8826 286.5,96.5C 257.093,96.8248 227.76,96.4915 198.5,95.5 Z"/></g>
<g><path style="opacity:1" fill="#fa3d3c" d="M 283.5,120.5 C 283.961,118.45 284.628,116.45 285.5,114.5C 269.514,113.501 253.514,113.167 237.5,113.5C 237.389,112.883 237.056,112.383 236.5,112C 253.843,111.167 271.176,111.334 288.5,112.5C 288.154,113.696 287.654,113.696 287,112.5C 287.767,115.969 286.601,118.636 283.5,120.5 Z"/></g>
<g><path style="opacity:1" fill="#faf8f8" d="M 170.5,212.5 C 152.231,213.819 133.898,213.819 115.5,212.5C 116.18,211.14 116.847,209.807 117.5,208.5C 126.987,190.193 136.487,171.86 146,153.5C 161.593,127.787 184.426,114.62 214.5,114C 199.418,146.662 184.751,179.496 170.5,212.5 Z"/></g>
<g><path style="opacity:1" fill="#faf9f9" d="M 237.5,113.5 C 253.514,113.167 269.514,113.501 285.5,114.5C 284.628,116.45 283.961,118.45 283.5,120.5C 270.261,148.65 257.261,176.983 244.5,205.5C 243.307,208.052 241.973,210.552 240.5,213C 224.503,213.5 208.503,213.667 192.5,213.5C 207.501,180.162 222.501,146.828 237.5,113.5 Z"/></g>
<g><path style="opacity:1" fill="#78c1ea" d="M 677.5,141.5 C 677.56,140.957 677.893,140.624 678.5,140.5C 679.814,145.652 679.814,150.652 678.5,155.5C 678.819,150.637 678.486,145.97 677.5,141.5 Z"/></g>
<g><path style="opacity:1" fill="#78c1ea" d="M 942.5,141.5 C 942.56,140.957 942.893,140.624 943.5,140.5C 944.814,145.652 944.814,150.652 943.5,155.5C 943.819,150.637 943.486,145.97 942.5,141.5 Z"/></g>
<g><path style="opacity:1" fill="#0c0a0b" d="M 351.5,184.5 C 351.065,181.843 350.065,179.509 348.5,177.5C 348.5,176.5 348.5,175.5 348.5,174.5C 348.505,170.466 348.838,166.466 349.5,162.5C 353.52,151.807 361.186,145.307 372.5,143C 378.167,142.333 383.833,142.333 389.5,143C 396.955,145.562 404.288,148.396 411.5,151.5C 409,155.167 406.5,158.833 404,162.5C 403.781,161.062 403.281,159.729 402.5,158.5C 392.916,152.352 382.583,150.852 371.5,154C 359.873,161.006 357.373,170.506 364,182.5C 366.205,185.04 368.705,187.207 371.5,189C 382.164,192.025 392.164,190.692 401.5,185C 402.893,183.829 403.727,182.329 404,180.5C 407.748,183.86 410.081,187.86 411,192.5C 410.439,191.978 409.772,191.645 409,191.5C 402.316,195.507 395.149,198.34 387.5,200C 371.932,202.708 359.932,197.541 351.5,184.5 Z"/></g>
<g><path style="opacity:1" fill="#0b080a" d="M 420.5,178.5 C 419.167,173.167 419.167,167.833 420.5,162.5C 421.11,161.609 421.443,160.609 421.5,159.5C 422.906,159.027 423.573,158.027 423.5,156.5C 424.882,153.606 426.882,151.106 429.5,149C 442.701,141.003 456.368,140.336 470.5,147C 486.443,159.371 488.61,173.871 477,190.5C 467.163,199.329 455.663,202.496 442.5,200C 431.372,196.705 424.039,189.539 420.5,178.5 Z"/></g>
<g><path style="opacity:1" fill="#0d0a0b" d="M 582.5,142.5 C 593.952,142.088 604.952,144.088 615.5,148.5C 618.102,146.764 618.936,147.431 618,150.5C 615.497,153.502 613.497,156.835 612,160.5C 606.347,154.515 599.347,151.848 591,152.5C 586.594,152.053 582.594,153.053 579,155.5C 578.056,158.347 578.556,160.847 580.5,163C 588.79,164.632 597.124,165.965 605.5,167C 616.318,169.812 620.485,176.645 618,187.5C 615.768,192.731 611.935,196.231 606.5,198C 597.584,200.817 588.584,201.15 579.5,199C 574.527,197.065 569.527,195.232 564.5,193.5C 566.518,189.102 568.685,184.769 571,180.5C 573.517,185.691 577.683,188.858 583.5,190C 588.833,190.667 594.167,190.667 599.5,190C 605.012,188.536 607.012,185.202 605.5,180C 596.364,177.39 587.031,175.724 577.5,175C 568.088,170.022 564.922,162.522 568,152.5C 570.167,150.333 572.333,148.167 574.5,146C 577.401,145.125 580.068,143.958 582.5,142.5 Z"/></g>
<g><path style="opacity:1" fill="#0c0504" d="M 677.5,141.5 C 678.486,145.97 678.819,150.637 678.5,155.5C 677.733,154.828 677.066,153.995 676.5,153C 669.842,152.5 663.175,152.334 656.5,152.5C 656.5,167.5 656.5,182.5 656.5,197.5C 657.675,197.281 658.675,197.614 659.5,198.5C 653.863,199.663 648.196,199.83 642.5,199C 643,198.5 643.5,198 644,197.5C 644.5,182.504 644.667,167.504 644.5,152.5C 638.158,152.334 631.825,152.5 625.5,153C 624.953,153.925 624.287,154.758 623.5,155.5C 622.167,150.833 622.167,146.167 623.5,141.5C 624.308,141.808 624.975,142.308 625.5,143C 642.167,143.667 658.833,143.667 675.5,143C 676.044,142.283 676.711,141.783 677.5,141.5 Z"/></g>
<g><path style="opacity:1" fill="#0c0a0b" d="M 823.5,184.5 C 823.065,181.843 822.065,179.509 820.5,177.5C 820.5,176.5 820.5,175.5 820.5,174.5C 820.505,170.466 820.838,166.466 821.5,162.5C 825.52,151.807 833.186,145.307 844.5,143C 850.167,142.333 855.833,142.333 861.5,143C 868.955,145.562 876.288,148.396 883.5,151.5C 881,155.167 878.5,158.833 876,162.5C 875.781,161.062 875.281,159.729 874.5,158.5C 864.916,152.352 854.583,150.852 843.5,154C 831.873,161.006 829.373,170.506 836,182.5C 838.205,185.04 840.705,187.207 843.5,189C 854.164,192.025 864.164,190.692 873.5,185C 874.893,183.829 875.727,182.329 876,180.5C 879.748,183.86 882.081,187.86 883,192.5C 882.439,191.978 881.772,191.645 881,191.5C 874.316,195.507 867.149,198.34 859.5,200C 843.932,202.708 831.932,197.541 823.5,184.5 Z"/></g>
<g><path style="opacity:1" fill="#0c0504" d="M 942.5,141.5 C 943.486,145.97 943.819,150.637 943.5,155.5C 942.733,154.828 942.066,153.995 941.5,153C 934.842,152.5 928.175,152.334 921.5,152.5C 921.5,167.5 921.5,182.5 921.5,197.5C 922.675,197.281 923.675,197.614 924.5,198.5C 918.863,199.663 913.196,199.83 907.5,199C 908,198.5 908.5,198 909,197.5C 909.5,182.504 909.667,167.504 909.5,152.5C 903.158,152.334 896.825,152.5 890.5,153C 889.953,153.925 889.287,154.758 888.5,155.5C 887.167,150.833 887.167,146.167 888.5,141.5C 889.308,141.808 889.975,142.308 890.5,143C 907.167,143.667 923.833,143.667 940.5,143C 941.044,142.283 941.711,141.783 942.5,141.5 Z"/></g>
<g><path style="opacity:1" fill="#080709" d="M 1037.5,158.5 C 1039.1,164.711 1039.77,171.044 1039.5,177.5C 1035.99,190.835 1027.32,198.335 1013.5,200C 999.826,202.483 988.826,198.316 980.5,187.5C 980.573,185.973 979.906,184.973 978.5,184.5C 978.122,182.079 977.455,179.746 976.5,177.5C 976.152,171.013 976.818,164.68 978.5,158.5C 979.906,158.027 980.573,157.027 980.5,155.5C 987.035,145.986 996.202,141.652 1008,142.5C 1020.97,142.231 1030.8,147.564 1037.5,158.5 Z"/></g>
<g><path style="opacity:1" fill="#0c0a0b" d="M 1273.5,184.5 C 1273.07,181.843 1272.07,179.509 1270.5,177.5C 1270.5,176.5 1270.5,175.5 1270.5,174.5C 1270.5,170.466 1270.84,166.466 1271.5,162.5C 1275.52,151.807 1283.19,145.307 1294.5,143C 1300.17,142.333 1305.83,142.333 1311.5,143C 1318.95,145.562 1326.29,148.396 1333.5,151.5C 1331,155.167 1328.5,158.833 1326,162.5C 1325.78,161.062 1325.28,159.729 1324.5,158.5C 1314.92,152.352 1304.58,150.852 1293.5,154C 1281.87,161.006 1279.37,170.506 1286,182.5C 1288.2,185.04 1290.7,187.207 1293.5,189C 1304.16,192.025 1314.16,190.692 1323.5,185C 1324.89,183.829 1325.73,182.329 1326,180.5C 1329.75,183.86 1332.08,187.86 1333,192.5C 1332.44,191.978 1331.77,191.645 1331,191.5C 1324.32,195.507 1317.15,198.34 1309.5,200C 1293.93,202.708 1281.93,197.541 1273.5,184.5 Z"/></g>
<g><path style="opacity:1" fill="#070308" d="M 493.5,144.5 C 499.319,143.347 505.319,143.181 511.5,144C 510.446,145.388 510.28,146.888 511,148.5C 520.97,159.471 531.303,170.137 542,180.5C 542.667,168.833 542.667,157.167 542,145.5C 541.5,145 541,144.5 540.5,144C 545.5,143.333 550.5,143.333 555.5,144C 555,144.5 554.5,145 554,145.5C 553.167,162.843 553.334,180.176 554.5,197.5C 555.308,197.808 555.975,198.308 556.5,199C 550.472,199.83 544.472,199.664 538.5,198.5C 539.811,197.742 540.311,196.742 540,195.5C 529.363,183.863 518.363,172.529 507,161.5C 506.833,167.5 506.667,173.5 506.5,179.5C 506.541,186.004 507.208,192.338 508.5,198.5C 503.167,199.833 497.833,199.833 492.5,198.5C 493.325,197.614 494.325,197.281 495.5,197.5C 495.667,180.163 495.5,162.83 495,145.5C 494.617,144.944 494.117,144.611 493.5,144.5 Z"/></g>
<g><path style="opacity:1" fill="#07050a" d="M 684.5,144.5 C 698.994,143.339 713.661,143.172 728.5,144C 741.781,147.393 745.947,155.56 741,168.5C 737.503,172.833 733.003,175.5 727.5,176.5C 732.194,182.694 736.694,189.028 741,195.5C 742.307,196.772 743.807,197.772 745.5,198.5C 738.833,199.833 732.167,199.833 725.5,198.5C 727.04,197.468 727.54,196.135 727,194.5C 723.201,188.403 719.035,182.569 714.5,177C 709.511,176.501 704.511,176.334 699.5,176.5C 698.917,184.043 699.584,191.376 701.5,198.5C 695.833,199.833 690.167,199.833 684.5,198.5C 685.242,197.713 686.075,197.047 687,196.5C 687.667,179.833 687.667,163.167 687,146.5C 686.292,145.619 685.458,144.953 684.5,144.5 Z"/></g>
<g><path style="opacity:1" fill="#0c0709" d="M 759.5,194.5 C 757.71,192.728 756.377,190.728 755.5,188.5C 754.518,174.245 754.184,159.912 754.5,145.5C 753.325,145.719 752.325,145.386 751.5,144.5C 757.137,143.337 762.804,143.17 768.5,144C 768,144.5 767.5,145 767,145.5C 766.333,157.833 766.333,170.167 767,182.5C 769.508,189.174 774.341,191.841 781.5,190.5C 787.531,191.323 792.698,189.656 797,185.5C 797.333,184.5 797.667,183.5 798,182.5C 798.667,170.167 798.667,157.833 798,145.5C 797.5,145 797,144.5 796.5,144C 801.833,143.333 807.167,143.333 812.5,144C 811.975,144.692 811.308,145.192 810.5,145.5C 809.667,159.822 809.167,174.155 809,188.5C 804.929,195.464 798.763,199.297 790.5,200C 782.768,200.856 775.102,200.523 767.5,199C 764.641,197.74 761.974,196.24 759.5,194.5 Z"/></g>
<g><path style="opacity:1" fill="#090810" d="M 949.5,144.5 C 954.985,143.348 960.651,143.182 966.5,144C 966,144.5 965.5,145 965,145.5C 964.833,154.167 964.667,162.833 964.5,171.5C 964.528,180.662 965.194,189.662 966.5,198.5C 960.833,199.833 955.167,199.833 949.5,198.5C 950.242,197.713 951.075,197.047 952,196.5C 952.667,179.833 952.667,163.167 952,146.5C 951.292,145.619 950.458,144.953 949.5,144.5 Z"/></g>
<g><path style="opacity:1" fill="#08070e" d="M 1095.5,199.5 C 1097.96,197.668 1097.96,196.001 1095.5,194.5C 1084.84,183.672 1074.34,172.672 1064,161.5C 1063.83,167.5 1063.67,173.5 1063.5,179.5C 1063.54,186.004 1064.21,192.338 1065.5,198.5C 1060.17,199.833 1054.83,199.833 1049.5,198.5C 1050.24,197.713 1051.08,197.047 1052,196.5C 1052.67,179.833 1052.67,163.167 1052,146.5C 1051.17,145.667 1050.33,144.833 1049.5,144C 1055.53,143.17 1061.53,143.336 1067.5,144.5C 1067.07,145.293 1066.74,146.127 1066.5,147C 1076.95,158.449 1087.78,169.616 1099,180.5C 1099.83,168.819 1099.67,157.152 1098.5,145.5C 1097.69,145.192 1097.03,144.692 1096.5,144C 1101.83,143.333 1107.17,143.333 1112.5,144C 1112,144.5 1111.5,145 1111,145.5C 1110.83,154.167 1110.67,162.833 1110.5,171.5C 1110.53,180.662 1111.19,189.662 1112.5,198.5C 1106.87,199.495 1101.21,199.829 1095.5,199.5 Z"/></g>
<g><path style="opacity:1" fill="#0d0403" d="M 1170.5,144.5 C 1175.98,143.348 1181.65,143.182 1187.5,144C 1186.97,144.692 1186.31,145.192 1185.5,145.5C 1184.33,162.49 1184.17,179.49 1185,196.5C 1185.83,197.333 1186.67,198.167 1187.5,199C 1181.5,199.667 1175.5,199.667 1169.5,199C 1170.03,198.308 1170.69,197.808 1171.5,197.5C 1172.67,180.176 1172.83,162.843 1172,145.5C 1171.62,144.944 1171.12,144.611 1170.5,144.5 Z"/></g>
<g><path style="opacity:1" fill="#070308" d="M 1198.5,144.5 C 1204.32,143.347 1210.32,143.181 1216.5,144C 1215.45,145.388 1215.28,146.888 1216,148.5C 1225.97,159.471 1236.3,170.137 1247,180.5C 1247.67,168.833 1247.67,157.167 1247,145.5C 1246.5,145 1246,144.5 1245.5,144C 1250.5,143.333 1255.5,143.333 1260.5,144C 1260,144.5 1259.5,145 1259,145.5C 1258.17,162.843 1258.33,180.176 1259.5,197.5C 1260.31,197.808 1260.97,198.308 1261.5,199C 1255.47,199.83 1249.47,199.664 1243.5,198.5C 1244.81,197.742 1245.31,196.742 1245,195.5C 1234.36,183.863 1223.36,172.529 1212,161.5C 1211.83,167.5 1211.67,173.5 1211.5,179.5C 1211.54,186.004 1212.21,192.338 1213.5,198.5C 1208.17,199.833 1202.83,199.833 1197.5,198.5C 1198.32,197.614 1199.32,197.281 1200.5,197.5C 1200.67,180.163 1200.5,162.83 1200,145.5C 1199.62,144.944 1199.12,144.611 1198.5,144.5 Z"/></g>
<g><path style="opacity:1" fill="#f5f5f5" d="M 468.5,160.5 C 468.427,162.027 469.094,163.027 470.5,163.5C 473.576,183.592 464.91,192.425 444.5,190C 434.47,184.955 430.304,176.788 432,165.5C 437.054,153.726 445.887,149.559 458.5,153C 462.845,154.181 466.178,156.681 468.5,160.5 Z"/></g>
<g><path style="opacity:1" fill="#f6f6f6" d="M 1025.5,161.5 C 1026.29,167.13 1026.63,172.797 1026.5,178.5C 1021.21,189.34 1012.54,193.173 1000.5,190C 989.313,183.446 985.813,173.946 990,161.5C 999.48,150.077 1010.31,148.577 1022.5,157C 1024.14,158.129 1025.14,159.629 1025.5,161.5 Z"/></g>
<g><path style="opacity:1" fill="#f4f3f1" d="M 699.5,152.5 C 707.84,152.334 716.173,152.5 724.5,153C 730.061,154.407 731.895,157.907 730,163.5C 728.681,165.487 726.848,166.654 724.5,167C 716.173,167.5 707.84,167.666 699.5,167.5C 699.5,162.5 699.5,157.5 699.5,152.5 Z"/></g>
<g><path style="opacity:1" fill="#fa3c3b" d="M 22.5,147.5 C 23.7652,155.853 23.7652,164.187 22.5,172.5C 21.1667,164.167 21.1667,155.833 22.5,147.5 Z"/></g>
<g><path style="opacity:1" fill="#91592a" d="M 980.5,155.5 C 980.573,157.027 979.906,158.027 978.5,158.5C 978.427,156.973 979.094,155.973 980.5,155.5 Z"/></g>
<g><path style="opacity:1" fill="#ac713b" d="M 423.5,156.5 C 423.573,158.027 422.906,159.027 421.5,159.5C 421.427,157.973 422.094,156.973 423.5,156.5 Z"/></g>
<g><path style="opacity:1" fill="#a86d38" d="M 468.5,160.5 C 469.906,160.973 470.573,161.973 470.5,163.5C 469.094,163.027 468.427,162.027 468.5,160.5 Z"/></g>
<g><path style="opacity:1" fill="#e7bb79" d="M 349.5,162.5 C 348.838,166.466 348.505,170.466 348.5,174.5C 347.842,173.207 347.508,171.707 347.5,170C 347.408,167.179 348.074,164.679 349.5,162.5 Z"/></g>
<g><path style="opacity:1" fill="#dba96a" d="M 420.5,162.5 C 419.167,167.833 419.167,173.167 420.5,178.5C 417.833,173.167 417.833,167.833 420.5,162.5 Z"/></g>
<g><path style="opacity:1" fill="#e7bb79" d="M 821.5,162.5 C 820.838,166.466 820.505,170.466 820.5,174.5C 819.842,173.207 819.508,171.707 819.5,170C 819.408,167.179 820.074,164.679 821.5,162.5 Z"/></g>
<g><path style="opacity:1" fill="#e7bb79" d="M 1271.5,162.5 C 1270.84,166.466 1270.5,170.466 1270.5,174.5C 1269.84,173.207 1269.51,171.707 1269.5,170C 1269.41,167.179 1270.07,164.679 1271.5,162.5 Z"/></g>
<g><path style="opacity:1" fill="#daad80" d="M 1025.5,161.5 C 1027.68,164.373 1028.68,167.706 1028.5,171.5C 1028.68,174.205 1028.02,176.538 1026.5,178.5C 1026.63,172.797 1026.29,167.13 1025.5,161.5 Z"/></g>
<g><path style="opacity:1" fill="#944d1e" d="M 978.5,158.5 C 976.818,164.68 976.152,171.013 976.5,177.5C 975.352,173.019 975.185,168.352 976,163.5C 976.374,161.509 977.207,159.842 978.5,158.5 Z"/></g>
<g><path style="opacity:1" fill="#1d3f7e" d="M 1037.5,158.5 C 1038.41,160.019 1039.24,161.685 1040,163.5C 1040.82,168.352 1040.65,173.019 1039.5,177.5C 1039.77,171.044 1039.1,164.711 1037.5,158.5 Z"/></g>
<g><path style="opacity:1" fill="#d2a26c" d="M 348.5,177.5 C 350.065,179.509 351.065,181.843 351.5,184.5C 349.166,182.824 348.166,180.491 348.5,177.5 Z"/></g>
<g><path style="opacity:1" fill="#d2a26c" d="M 820.5,177.5 C 822.065,179.509 823.065,181.843 823.5,184.5C 821.166,182.824 820.166,180.491 820.5,177.5 Z"/></g>
<g><path style="opacity:1" fill="#d2a26c" d="M 1270.5,177.5 C 1272.07,179.509 1273.07,181.843 1273.5,184.5C 1271.17,182.824 1270.17,180.491 1270.5,177.5 Z"/></g>
<g><path style="opacity:1" fill="#bb814b" d="M 978.5,184.5 C 979.906,184.973 980.573,185.973 980.5,187.5C 979.094,187.027 978.427,186.027 978.5,184.5 Z"/></g>
<g><path style="opacity:1" fill="#100c12" d="M 1131.5,204.5 C 1133.1,203.201 1133.6,201.535 1133,199.5C 1132.6,199.728 1132.43,200.062 1132.5,200.5C 1125.62,200.113 1123.12,196.447 1125,189.5C 1129.57,186.439 1133.57,187.106 1137,191.5C 1138.8,200.223 1135.97,206.89 1128.5,211.5C 1127.69,211.192 1127.03,210.692 1126.5,210C 1128.4,208.27 1130.07,206.437 1131.5,204.5 Z"/></g>
<g><path style="opacity:1" fill="#10090c" d="M 1346.5,187.5 C 1355.81,186.951 1358.47,190.785 1354.5,199C 1346.87,201.379 1343.37,198.545 1344,190.5C 1345.04,189.627 1345.88,188.627 1346.5,187.5 Z"/></g>
<g><path style="opacity:1" fill="#d0a77c" d="M 755.5,188.5 C 756.377,190.728 757.71,192.728 759.5,194.5C 756.224,193.878 754.891,191.878 755.5,188.5 Z"/></g>
<g><path style="opacity:1" fill="#c59562" d="M 1095.5,194.5 C 1097.96,196.001 1097.96,197.668 1095.5,199.5C 1094.9,198.065 1094.9,196.398 1095.5,194.5 Z"/></g>
<g><path style="opacity:1" fill="#ab723c" d="M 1131.5,204.5 C 1131.43,203.041 1131.77,201.708 1132.5,200.5C 1132.43,200.062 1132.6,199.728 1133,199.5C 1133.6,201.535 1133.1,203.201 1131.5,204.5 Z"/></g>
<g><path style="opacity:1" fill="#fa3636" d="M 42.5,212.5 C 59.4022,213.824 76.4022,213.824 93.5,212.5C 94.5981,213.397 94.5981,214.23 93.5,215C 75.8333,215.667 58.1667,215.667 40.5,215C 41.0659,214.005 41.7326,213.172 42.5,212.5 Z"/></g>
<g><path style="opacity:1" fill="#fa3837" d="M 117.5,208.5 C 116.847,209.807 116.18,211.14 115.5,212.5C 133.898,213.819 152.231,213.819 170.5,212.5C 171.598,213.397 171.598,214.23 170.5,215C 151.5,215.667 132.5,215.667 113.5,215C 114.249,213.266 114.749,211.433 115,209.5C 115.671,208.748 116.504,208.414 117.5,208.5 Z"/></g>
<g><path style="opacity:1" fill="#fa3736" d="M 244.5,205.5 C 245.376,205.369 246.043,205.702 246.5,206.5C 245.167,209.167 243.833,211.833 242.5,214.5C 225.176,215.666 207.843,215.833 190.5,215C 191.416,214.722 192.082,214.222 192.5,213.5C 208.503,213.667 224.503,213.5 240.5,213C 241.973,210.552 243.307,208.052 244.5,205.5 Z"/></g>
<g><path style="opacity:1" fill="#0d0d0d" d="M 377.5,271.5 C 378.473,269.052 378.806,266.385 378.5,263.5C 374.833,263.5 371.167,263.5 367.5,263.5C 367.5,262.167 367.5,260.833 367.5,259.5C 372.5,259.5 377.5,259.5 382.5,259.5C 382.5,264.167 382.5,268.833 382.5,273.5C 372.069,281.824 361.903,281.49 352,272.5C 346.125,261.415 347.625,251.581 356.5,243C 364.253,239.401 371.753,239.901 379,244.5C 380.366,246.37 381.533,248.37 382.5,250.5C 381.562,251.553 380.395,252.22 379,252.5C 373.986,244.26 367.152,242.426 358.5,247C 353.755,252.269 352.255,258.436 354,265.5C 357.243,273.538 363.077,276.371 371.5,274C 373.641,273.427 375.641,272.594 377.5,271.5 Z"/></g>
<g><path style="opacity:1" fill="#111111" d="M 799.5,240.5 C 806.871,239.048 813.038,241.048 818,246.5C 819.009,248.025 819.509,249.692 819.5,251.5C 818.178,251.33 817.011,251.663 816,252.5C 810.819,243.571 804.153,242.237 796,248.5C 791.269,256.389 791.436,264.222 796.5,272C 805.585,277.003 812.252,274.836 816.5,265.5C 817.931,265.977 819.264,266.643 820.5,267.5C 818.155,275.352 812.821,279.352 804.5,279.5C 795.382,278.551 789.882,273.551 788,264.5C 785.837,253.528 789.671,245.528 799.5,240.5 Z"/></g>
<g><path style="opacity:1" fill="#101010" d="M 859.5,240.5 C 870.123,238.892 877.623,242.892 882,252.5C 885.321,270.159 878.154,278.993 860.5,279C 848.893,273.902 844.726,265.069 848,252.5C 849.08,250.004 850.414,247.67 852,245.5C 854.479,243.686 856.979,242.019 859.5,240.5 Z"/></g>
<g><path style="opacity:1" fill="#121212" d="M 1151.5,240.5 C 1161.24,238.704 1168.24,242.204 1172.5,251C 1170.9,251.273 1169.4,251.773 1168,252.5C 1163.81,244.275 1157.64,242.442 1149.5,247C 1142.45,256.563 1143.12,265.563 1151.5,274C 1157.08,275.472 1161.91,274.305 1166,270.5C 1167.01,268.975 1167.51,267.308 1167.5,265.5C 1170.76,265.174 1172.26,266.507 1172,269.5C 1166.94,278.606 1159.44,281.44 1149.5,278C 1141.47,272.26 1138.3,264.427 1140,254.5C 1141.87,248.136 1145.71,243.469 1151.5,240.5 Z"/></g>
<g><path style="opacity:1" fill="#858585" d="M 1227.5,241.5 C 1217.83,241.5 1208.17,241.5 1198.5,241.5C 1198.5,242.833 1198.5,244.167 1198.5,245.5C 1197.55,244.081 1197.22,242.415 1197.5,240.5C 1207.68,240.173 1217.68,240.506 1227.5,241.5 Z"/></g>
<g><path style="opacity:1" fill="#101010" d="M 1265.5,240.5 C 1276.16,238.909 1283.66,242.909 1288,252.5C 1291.32,270.159 1284.15,278.993 1266.5,279C 1254.89,273.902 1250.73,265.069 1254,252.5C 1256.02,246.65 1259.85,242.65 1265.5,240.5 Z"/></g>
<g><path style="opacity:1" fill="#060606" d="M 412.5,241.5 C 421.5,241.5 430.5,241.5 439.5,241.5C 439.5,242.833 439.5,244.167 439.5,245.5C 432.167,245.5 424.833,245.5 417.5,245.5C 417.5,249.5 417.5,253.5 417.5,257.5C 424.167,257.5 430.833,257.5 437.5,257.5C 437.5,258.833 437.5,260.167 437.5,261.5C 430.833,261.5 424.167,261.5 417.5,261.5C 417.5,265.833 417.5,270.167 417.5,274.5C 425.167,274.5 432.833,274.5 440.5,274.5C 440.5,275.833 440.5,277.167 440.5,278.5C 431.167,278.5 421.833,278.5 412.5,278.5C 412.5,266.167 412.5,253.833 412.5,241.5 Z"/></g>
<g><path style="opacity:1" fill="#020202" d="M 492.5,269.5 C 492.56,270.043 492.893,270.376 493.5,270.5C 494.498,260.856 494.832,251.19 494.5,241.5C 495.833,241.5 497.167,241.5 498.5,241.5C 498.5,253.833 498.5,266.167 498.5,278.5C 495.956,278.896 493.789,278.229 492,276.5C 486.49,268.138 480.99,259.805 475.5,251.5C 475.217,250.711 474.717,250.044 474,249.5C 473.5,259.161 473.334,268.828 473.5,278.5C 472.167,278.5 470.833,278.5 469.5,278.5C 469.5,266.167 469.5,253.833 469.5,241.5C 471.467,241.261 473.301,241.594 475,242.5C 480.844,251.528 486.677,260.528 492.5,269.5 Z"/></g>
<g><path style="opacity:1" fill="#525252" d="M 498.5,241.5 C 497.167,241.5 495.833,241.5 494.5,241.5C 494.832,251.19 494.498,260.856 493.5,270.5C 492.893,270.376 492.56,270.043 492.5,269.5C 493.494,260.014 493.827,250.348 493.5,240.5C 495.415,240.216 497.081,240.549 498.5,241.5 Z"/></g>
<g><path style="opacity:1" fill="#030303" d="M 528.5,241.5 C 537.5,241.5 546.5,241.5 555.5,241.5C 555.5,242.833 555.5,244.167 555.5,245.5C 548.167,245.5 540.833,245.5 533.5,245.5C 533.5,249.5 533.5,253.5 533.5,257.5C 540.5,257.5 547.5,257.5 554.5,257.5C 554.5,258.833 554.5,260.167 554.5,261.5C 547.5,261.5 540.5,261.5 533.5,261.5C 533.5,265.833 533.5,270.167 533.5,274.5C 541.167,274.5 548.833,274.5 556.5,274.5C 556.5,275.833 556.5,277.167 556.5,278.5C 547.167,278.5 537.833,278.5 528.5,278.5C 528.5,266.167 528.5,253.833 528.5,241.5 Z"/></g>
<g><path style="opacity:1" fill="#0d0d0d" d="M 585.5,241.5 C 594.25,241.09 602.916,241.59 611.5,243C 618.167,251.907 616.167,258.24 605.5,262C 607.624,263.122 609.457,264.622 611,266.5C 613.127,270.589 615.627,274.423 618.5,278C 616.098,278.814 613.765,278.647 611.5,277.5C 608.696,272.864 605.696,268.364 602.5,264C 598.637,262.646 594.637,262.146 590.5,262.5C 590.5,267.833 590.5,273.167 590.5,278.5C 588.833,278.5 587.167,278.5 585.5,278.5C 585.5,266.167 585.5,253.833 585.5,241.5 Z"/></g>
<g><path style="opacity:1" fill="#0e0e0e" d="M 654.5,241.5 C 656.792,241.244 658.959,241.577 661,242.5C 665.833,254.167 670.667,265.833 675.5,277.5C 673.926,278.631 672.259,278.798 670.5,278C 668.878,274.973 667.545,271.806 666.5,268.5C 660.872,267.505 655.206,267.171 649.5,267.5C 648.301,271.099 647.301,274.765 646.5,278.5C 644.833,278.5 643.167,278.5 641.5,278.5C 645.632,266.103 649.966,253.77 654.5,241.5 Z"/></g>
<g><path style="opacity:1" fill="#050505" d="M 701.5,241.5 C 703.167,241.5 704.833,241.5 706.5,241.5C 706.5,252.5 706.5,263.5 706.5,274.5C 712.5,274.5 718.5,274.5 724.5,274.5C 724.5,275.833 724.5,277.167 724.5,278.5C 716.833,278.5 709.167,278.5 701.5,278.5C 701.5,266.167 701.5,253.833 701.5,241.5 Z"/></g>
<g><path style="opacity:1" fill="#cacaca" d="M 701.5,241.5 C 703.265,240.539 705.265,240.205 707.5,240.5C 707.5,251.5 707.5,262.5 707.5,273.5C 713.5,273.5 719.5,273.5 725.5,273.5C 725.5,275.5 725.5,277.5 725.5,279.5C 717.316,279.826 709.316,279.492 701.5,278.5C 709.167,278.5 716.833,278.5 724.5,278.5C 724.5,277.167 724.5,275.833 724.5,274.5C 718.5,274.5 712.5,274.5 706.5,274.5C 706.5,263.5 706.5,252.5 706.5,241.5C 704.833,241.5 703.167,241.5 701.5,241.5 Z"/></g>
<g><path style="opacity:1" fill="#0c0c0c" d="M 934.5,268.5 C 934.783,269.289 935.283,269.956 936,270.5C 936.5,260.839 936.666,251.172 936.5,241.5C 937.833,241.5 939.167,241.5 940.5,241.5C 940.5,253.833 940.5,266.167 940.5,278.5C 938.533,278.739 936.699,278.406 935,277.5C 929.248,268.328 923.248,259.328 917,250.5C 916.5,259.827 916.334,269.161 916.5,278.5C 914.833,278.5 913.167,278.5 911.5,278.5C 911.5,266.167 911.5,253.833 911.5,241.5C 914.044,241.104 916.211,241.771 918,243.5C 923.51,251.862 929.01,260.195 934.5,268.5 Z"/></g>
<g><path style="opacity:1" fill="#9a9a9a" d="M 936.5,241.5 C 936.666,251.172 936.5,260.839 936,270.5C 935.283,269.956 934.783,269.289 934.5,268.5C 935.167,259.5 935.833,250.5 936.5,241.5 Z"/></g>
<g><path style="opacity:1" fill="#0c0c0c" d="M 967.5,241.5 C 977.5,241.5 987.5,241.5 997.5,241.5C 997.5,242.833 997.5,244.167 997.5,245.5C 993.5,245.5 989.5,245.5 985.5,245.5C 985.5,256.5 985.5,267.5 985.5,278.5C 983.833,278.5 982.167,278.5 980.5,278.5C 980.5,267.5 980.5,256.5 980.5,245.5C 976.167,245.5 971.833,245.5 967.5,245.5C 967.5,244.167 967.5,242.833 967.5,241.5 Z"/></g>
<g><path style="opacity:1" fill="#646464" d="M 1044.5,241.5 C 1038.17,241.5 1031.83,241.5 1025.5,241.5C 1025.5,253.833 1025.5,266.167 1025.5,278.5C 1024.5,266.011 1024.17,253.344 1024.5,240.5C 1031.35,240.176 1038.02,240.509 1044.5,241.5 Z"/></g>
<g><path style="opacity:1" fill="#090909" d="M 1044.5,241.5 C 1054.37,242.93 1057.21,248.263 1053,257.5C 1050.86,259.487 1048.36,260.82 1045.5,261.5C 1050.11,266.557 1054.11,272.057 1057.5,278C 1055.5,278.667 1053.5,278.667 1051.5,278C 1049,274.167 1046.5,270.333 1044,266.5C 1042.55,264.536 1040.72,263.203 1038.5,262.5C 1035.71,261.523 1032.71,261.19 1029.5,261.5C 1029.5,267.167 1029.5,272.833 1029.5,278.5C 1028.17,278.5 1026.83,278.5 1025.5,278.5C 1025.5,266.167 1025.5,253.833 1025.5,241.5C 1031.83,241.5 1038.17,241.5 1044.5,241.5 Z"/></g>
<g><path style="opacity:1" fill="#0f0f0f" d="M 1094.5,241.5 C 1096.6,241.201 1098.6,241.534 1100.5,242.5C 1105.74,254.309 1110.41,266.309 1114.5,278.5C 1112.71,278.785 1111.05,278.452 1109.5,277.5C 1108.06,274.357 1106.73,271.19 1105.5,268C 1100.17,267.333 1094.83,267.333 1089.5,268C 1088.04,271.094 1086.7,274.261 1085.5,277.5C 1083.83,278.833 1082.17,278.833 1080.5,277.5C 1085.18,265.474 1089.85,253.474 1094.5,241.5 Z"/></g>
<g><path style="opacity:1" fill="#0c0c0c" d="M 1227.5,241.5 C 1227.5,242.833 1227.5,244.167 1227.5,245.5C 1223.5,245.5 1219.5,245.5 1215.5,245.5C 1215.5,256.5 1215.5,267.5 1215.5,278.5C 1213.83,278.5 1212.17,278.5 1210.5,278.5C 1210.5,267.5 1210.5,256.5 1210.5,245.5C 1206.5,245.5 1202.5,245.5 1198.5,245.5C 1198.5,244.167 1198.5,242.833 1198.5,241.5C 1208.17,241.5 1217.83,241.5 1227.5,241.5 Z"/></g>
<g><path style="opacity:1" fill="#111111" d="M 1317.5,241.5 C 1326.25,241.09 1334.92,241.59 1343.5,243C 1350.16,251.981 1348.16,258.314 1337.5,262C 1342.57,266.276 1346.57,271.442 1349.5,277.5C 1347.5,278.833 1345.5,278.833 1343.5,277.5C 1340.62,272.914 1337.62,268.414 1334.5,264C 1330.64,262.646 1326.64,262.146 1322.5,262.5C 1322.5,267.833 1322.5,273.167 1322.5,278.5C 1320.83,278.5 1319.17,278.5 1317.5,278.5C 1317.5,266.167 1317.5,253.833 1317.5,241.5 Z"/></g>
<g><path style="opacity:1" fill="#f6f6f6" d="M 590.5,245.5 C 595.844,245.334 601.177,245.501 606.5,246C 611.833,249.667 611.833,253.333 606.5,257C 601.177,257.499 595.844,257.666 590.5,257.5C 590.5,253.5 590.5,249.5 590.5,245.5 Z"/></g>
<g><path style="opacity:1" fill="#f5f5f5" d="M 861.5,244.5 C 874.856,245.156 880.023,252.156 877,265.5C 874.131,274.017 868.297,276.85 859.5,274C 855.835,272.332 853.668,269.499 853,265.5C 850.389,256.081 853.222,249.081 861.5,244.5 Z"/></g>
<g><path style="opacity:1" fill="#f3f3f3" d="M 1029.5,245.5 C 1035.18,245.334 1040.84,245.501 1046.5,246C 1050.75,250.163 1050.41,253.829 1045.5,257C 1040.18,257.499 1034.84,257.666 1029.5,257.5C 1029.5,253.5 1029.5,249.5 1029.5,245.5 Z"/></g>
<g><path style="opacity:1" fill="#f5f5f5" d="M 1267.5,244.5 C 1280.86,245.156 1286.02,252.156 1283,265.5C 1280.12,273.995 1274.28,276.828 1265.5,274C 1262.27,272.437 1260.1,269.937 1259,266.5C 1256,256.612 1258.83,249.279 1267.5,244.5 Z"/></g>
<g><path style="opacity:1" fill="#f5f5f5" d="M 1322.5,245.5 C 1327.84,245.334 1333.18,245.501 1338.5,246C 1344.05,250.161 1343.71,253.827 1337.5,257C 1332.51,257.499 1327.51,257.666 1322.5,257.5C 1322.5,253.5 1322.5,249.5 1322.5,245.5 Z"/></g>
<g><path style="opacity:1" fill="#e5e5e5" d="M 657.5,245.5 C 660.003,250.986 662.336,256.652 664.5,262.5C 660.167,263.833 655.833,263.833 651.5,262.5C 653.902,256.961 655.902,251.294 657.5,245.5 Z"/></g>
<g><path style="opacity:1" fill="#e9e9e9" d="M 1096.5,245.5 C 1099.06,250.963 1101.39,256.63 1103.5,262.5C 1099.55,263.491 1095.55,263.824 1091.5,263.5C 1093.17,257.49 1094.84,251.49 1096.5,245.5 Z"/></g>
<g><path style="opacity:1" fill="#bdbdbd" d="M 475.5,251.5 C 474.833,260.5 474.167,269.5 473.5,278.5C 473.334,268.828 473.5,259.161 474,249.5C 474.717,250.044 475.217,250.711 475.5,251.5 Z"/></g>
<g><path style="opacity:1" fill="#c1c1c1" d="M 382.5,273.5 C 382.5,268.833 382.5,264.167 382.5,259.5C 377.5,259.5 372.5,259.5 367.5,259.5C 367.5,260.833 367.5,262.167 367.5,263.5C 366.549,262.081 366.216,260.415 366.5,258.5C 372.167,258.5 377.833,258.5 383.5,258.5C 383.821,263.695 383.487,268.695 382.5,273.5 Z"/></g>
<g><path style="opacity:1" fill="#989898" d="M 1038.5,262.5 C 1035.83,262.5 1033.17,262.5 1030.5,262.5C 1030.82,268.026 1030.49,273.36 1029.5,278.5C 1029.5,272.833 1029.5,267.167 1029.5,261.5C 1032.71,261.19 1035.71,261.523 1038.5,262.5 Z"/></g>
<g><path style="opacity:1" fill="#8d8d8d" d="M 367.5,263.5 C 371.167,263.5 374.833,263.5 378.5,263.5C 378.806,266.385 378.473,269.052 377.5,271.5C 377.5,269.167 377.5,266.833 377.5,264.5C 373.958,264.813 370.625,264.479 367.5,263.5 Z"/></g>
</svg>
