<?xml version="1.0" encoding="UTF-8"?>
<!DOCTYPE svg PUBLIC "-//W3C//DTD SVG 1.1//EN" "http://www.w3.org/Graphics/SVG/1.1/DTD/svg11.dtd">
<svg xmlns="http://www.w3.org/2000/svg" version="1.1" width="973px" height="207px" style="shape-rendering:geometricPrecision; text-rendering:geometricPrecision; image-rendering:optimizeQuality; fill-rule:evenodd; clip-rule:evenodd" xmlns:xlink="http://www.w3.org/1999/xlink">
<g><path style="opacity:1" fill="#f8f8f8" d="M 256.5,22.5 C 266.083,21.9581 275.25,23.6248 284,27.5C 285.44,26.8524 286.94,26.5191 288.5,26.5C 287.518,31.4701 285.684,36.1368 283,40.5C 281.989,41.3366 280.822,41.67 279.5,41.5C 279.703,39.6096 279.037,38.1096 277.5,37C 269.286,32.9292 260.953,32.5959 252.5,36C 243.864,43.5788 242.364,52.4122 248,62.5C 257.024,70.1689 266.857,71.3356 277.5,66C 278.406,64.3005 278.739,62.4672 278.5,60.5C 272.604,60.2209 266.937,60.7209 261.5,62C 260.167,57.6667 260.167,53.3333 261.5,49C 271.617,50.3952 281.95,50.8952 292.5,50.5C 289.965,57.0045 289.965,63.5045 292.5,70C 279.795,79.005 265.795,81.6717 250.5,78C 232.505,70.3796 226.672,57.2129 233,38.5C 238.334,29.3081 246.167,23.9748 256.5,22.5 Z"/></g>
<g><path style="opacity:1" fill="#f8f8f8" d="M 325.5,23.5 C 332.5,23.5 339.5,23.5 346.5,23.5C 345.189,26.9198 345.356,30.2531 347,33.5C 350.848,40.5317 354.681,47.5317 358.5,54.5C 363.181,45.8017 367.848,37.1351 372.5,28.5C 370.73,27.1804 370.397,25.6804 371.5,24C 378.414,23.1888 385.248,23.3555 392,24.5C 392.601,25.9653 392.101,26.9653 390.5,27.5C 389.334,43.156 389.167,58.8227 390,74.5C 391.706,75.3079 392.539,76.6412 392.5,78.5C 386.167,78.5 379.833,78.5 373.5,78.5C 373.461,76.6412 374.294,75.3079 376,74.5C 376.667,64.8333 376.667,55.1667 376,45.5C 370.31,56.8904 364.144,67.8904 357.5,78.5C 350.625,68.0327 344.792,57.0327 340,45.5C 338.931,56.7007 339.431,67.7007 341.5,78.5C 336.167,78.5 330.833,78.5 325.5,78.5C 325.312,76.8967 325.812,75.5634 327,74.5C 328.048,57.3944 327.548,40.3944 325.5,23.5 Z"/></g>
<g><path style="opacity:1" fill="#f8f8f8" d="M 453.5,23.5 C 460.167,23.5 466.833,23.5 473.5,23.5C 473.149,25.8695 472.982,28.2028 473,30.5C 477.588,38.6761 481.922,47.0094 486,55.5C 490.451,46.0962 495.284,36.9296 500.5,28C 498.893,26.951 498.227,25.451 498.5,23.5C 505.5,23.5 512.5,23.5 519.5,23.5C 519.688,25.1033 519.188,26.4366 518,27.5C 517.333,43.1667 517.333,58.8333 518,74.5C 519.188,75.5634 519.688,76.8967 519.5,78.5C 513.5,78.5 507.5,78.5 501.5,78.5C 501.461,76.6412 502.294,75.3079 504,74.5C 504.667,64.8333 504.667,55.1667 504,45.5C 498.079,55.673 492.413,66.0063 487,76.5C 486.311,77.3567 485.478,78.0233 484.5,78.5C 478.714,67.9275 473.214,57.2608 468,46.5C 466.983,57.3096 467.483,67.9762 469.5,78.5C 463.833,78.5 458.167,78.5 452.5,78.5C 452.312,76.8967 452.812,75.5634 454,74.5C 454.667,58.8333 454.667,43.1667 454,27.5C 452.232,26.3181 452.065,24.9848 453.5,23.5 Z"/></g>
<g><path style="opacity:1" fill="#f8f8f8" d="M 546.5,23.5 C 553.167,23.5 559.833,23.5 566.5,23.5C 566.672,25.4918 566.005,27.1585 564.5,28.5C 572.36,45.5527 580.693,62.2194 589.5,78.5C 582.833,78.5 576.167,78.5 569.5,78.5C 569.297,76.6096 569.963,75.1096 571.5,74C 569.467,71.1041 568.134,67.9374 567.5,64.5C 559.804,64.1692 552.138,64.5025 544.5,65.5C 543.606,68.3921 542.272,71.0587 540.5,73.5C 542.297,74.6951 543.297,76.3618 543.5,78.5C 537.167,78.5 530.833,78.5 524.5,78.5C 532.952,62.3616 540.952,45.8616 548.5,29C 547.144,27.4329 546.477,25.5996 546.5,23.5 Z M 555.5,41.5 C 558.044,45.5806 560.378,49.9139 562.5,54.5C 558.167,55.8333 553.833,55.8333 549.5,54.5C 551.785,50.2647 553.785,45.9314 555.5,41.5 Z"/></g>
<g><path style="opacity:1" fill="#f8f8f8" d="M 594.5,23.5 C 600.833,23.5 607.167,23.5 613.5,23.5C 613.703,25.3904 613.037,26.8904 611.5,28C 620.667,37.8333 629.833,47.6667 639,57.5C 639.964,53.7264 640.464,49.8931 640.5,46C 639.96,38.4089 638.96,30.9089 637.5,23.5C 642.844,23.334 648.177,23.5006 653.5,24C 654.784,25.2975 654.617,26.4642 653,27.5C 652.333,43.5 652.333,59.5 653,75.5C 653.692,76.0253 654.192,76.6919 654.5,77.5C 648.167,78.8333 641.833,78.8333 635.5,77.5C 636.833,76.3801 637.333,75.0468 637,73.5C 627.248,64.0839 617.915,54.4173 609,44.5C 608.333,54.5 608.333,64.5 609,74.5C 609.833,75.3333 610.667,76.1667 611.5,77C 608.522,78.125 605.355,78.625 602,78.5C 599.167,78.1667 596.333,77.8333 593.5,77.5C 594.145,76.354 594.978,75.354 596,74.5C 596.667,59.1667 596.667,43.8333 596,28.5C 593.676,27.2247 593.176,25.558 594.5,23.5 Z"/></g>
<g><path style="opacity:1" fill="#f7f8f8" d="M 664.5,23.5 C 670.683,23.0474 676.683,23.5474 682.5,25C 681.953,25.9246 681.287,26.7579 680.5,27.5C 680.167,34.3333 679.833,41.1667 679.5,48C 679.903,56.2655 679.903,64.4322 679.5,72.5C 680.065,74.4048 681.065,76.0715 682.5,77.5C 679.5,77.8333 676.5,78.1667 673.5,78.5C 669.98,78.6277 666.647,78.1277 663.5,77C 664.333,76.1667 665.167,75.3333 666,74.5C 666.833,58.8227 666.666,43.156 665.5,27.5C 663.358,26.5629 663.024,25.2296 664.5,23.5 Z"/></g>
<g><path style="opacity:1" fill="#f4f4f4" d="M 692.5,23.5 C 698.509,23.3338 704.509,23.5005 710.5,24C 711.727,25.5874 711.394,26.9207 709.5,28C 718.611,37.7811 727.777,47.6144 737,57.5C 737.18,47.5895 737.68,37.7562 738.5,28C 735.876,27.4236 735.209,26.0902 736.5,24C 741.823,23.5006 747.156,23.334 752.5,23.5C 751.28,32.7359 750.613,42.0692 750.5,51.5C 750.586,60.6218 751.253,69.6218 752.5,78.5C 746.132,78.8297 739.798,78.4963 733.5,77.5C 734.833,76.3801 735.333,75.0468 735,73.5C 725.248,64.0839 715.915,54.4173 707,44.5C 706.333,54.5 706.333,64.5 707,74.5C 708.188,75.5634 708.688,76.8967 708.5,78.5C 702.833,78.5 697.167,78.5 691.5,78.5C 691.461,76.6412 692.294,75.3079 694,74.5C 694.667,59.1667 694.667,43.8333 694,28.5C 691.676,27.2247 691.176,25.558 692.5,23.5 Z"/></g>
<g><path style="opacity:1" fill="#f8f8f8" d="M 847.5,23.5 C 854.09,23.189 860.59,23.5223 867,24.5C 866.888,26.1783 866.388,27.845 865.5,29.5C 872.127,44.4024 879.127,59.069 886.5,73.5C 887.981,74.4803 889.315,75.647 890.5,77C 883.669,78.6247 876.669,78.958 869.5,78C 869.167,77.6667 868.833,77.3333 868.5,77C 869.687,75.9805 870.687,74.8139 871.5,73.5C 870.167,70.8333 868.833,68.1667 867.5,65.5C 859.942,64.187 852.442,64.187 845,65.5C 843.963,68.4055 842.796,71.2388 841.5,74C 843.037,75.1096 843.703,76.6096 843.5,78.5C 836.986,78.9554 830.653,78.4554 824.5,77C 827.476,74.7865 829.642,71.9532 831,68.5C 836.916,55.605 842.749,42.605 848.5,29.5C 848.278,27.9446 847.611,26.6113 846.5,25.5C 846.863,24.8165 847.196,24.1499 847.5,23.5 Z M 855.5,41.5 C 858.874,45.5806 861.207,50.2472 862.5,55.5C 858.154,55.6657 853.821,55.499 849.5,55C 852.179,50.8081 854.179,46.3081 855.5,41.5 Z"/></g>
<g><path style="opacity:1" fill="#f8f8f8" d="M 912.5,22.5 C 922.351,22.1915 931.685,24.1915 940.5,28.5C 942.263,27.0462 943.597,27.3796 944.5,29.5C 942.87,33.6186 941.037,37.6186 939,41.5C 937.989,42.3366 936.822,42.67 935.5,42.5C 935.607,40.0968 934.607,38.2635 932.5,37C 925.385,33.5261 918.051,32.8594 910.5,35C 905.197,37.7351 905.197,40.4018 910.5,43C 918.911,43.8742 927.245,45.2075 935.5,47C 943.108,51.386 945.942,57.886 944,66.5C 940.85,73.6362 935.35,77.8029 927.5,79C 916.273,80.9665 905.773,79.1332 896,73.5C 894.455,74.8213 893.289,74.4879 892.5,72.5C 893.631,67.5826 895.797,63.2493 899,59.5C 900.845,60.9521 902.345,62.7854 903.5,65C 911.204,69.8433 919.204,70.5099 927.5,67C 933.135,63.6007 932.802,60.934 926.5,59C 918.46,57.8289 910.46,56.4955 902.5,55C 894.84,50.2417 892.34,43.4084 895,34.5C 898.825,27.4987 904.659,23.4987 912.5,22.5 Z"/></g>
<g><path style="opacity:1" fill="#f8f9f8" d="M 786.5,22.5 C 791.887,22.4054 797.22,22.9054 802.5,24C 807.559,26.0352 812.559,27.3685 817.5,28C 815.636,32.8994 813.136,37.3994 810,41.5C 808.18,40.3961 806.68,38.8961 805.5,37C 795.078,31.4427 785.578,32.6094 777,40.5C 770.057,56.6139 775.224,66.2806 792.5,69.5C 797.343,68.7745 802.009,67.4412 806.5,65.5C 807.452,63.9547 807.785,62.288 807.5,60.5C 801.599,60.0523 795.932,60.719 790.5,62.5C 790.5,57.8333 790.5,53.1667 790.5,48.5C 792.103,48.3118 793.437,48.8118 794.5,50C 803.411,50.1814 812.245,50.6814 821,51.5C 819.251,57.4789 819.084,63.6456 820.5,70C 812.134,76.6848 802.467,79.8515 791.5,79.5C 769.347,78.85 758.847,67.5167 760,45.5C 764.101,32.2234 772.935,24.5567 786.5,22.5 Z"/></g>
<g><path style="opacity:1" fill="#faf5f4" d="M 178.5,43.5 C 181.66,47.1477 184.327,51.1477 186.5,55.5C 167.689,57.1627 148.689,58.1627 129.5,58.5C 106.585,62.5886 89.7512,74.9219 79,95.5C 71.2446,110.01 63.7446,124.677 56.5,139.5C 44.8523,140.499 33.1857,140.832 21.5,140.5C 29.5854,112.816 43.9188,88.9823 64.5,69C 79.4326,55.8684 96.7659,47.5351 116.5,44C 137.164,43.5 157.831,43.3334 178.5,43.5 Z"/></g>
<g><path style="opacity:1" fill="#f9cdce" d="M 186.5,55.5 C 187.338,55.8417 187.672,56.5084 187.5,57.5C 168.341,58.497 149.007,58.8303 129.5,58.5C 148.689,58.1627 167.689,57.1627 186.5,55.5 Z"/></g>
<g><path style="opacity:1" fill="#f80301" d="M 178.5,43.5 C 157.831,43.3334 137.164,43.5 116.5,44C 96.7659,47.5351 79.4326,55.8684 64.5,69C 43.9188,88.9823 29.5854,112.816 21.5,140.5C 33.1857,140.832 44.8523,140.499 56.5,139.5C 63.7446,124.677 71.2446,110.01 79,95.5C 89.7512,74.9219 106.585,62.5886 129.5,58.5C 149.007,58.8303 168.341,58.497 187.5,57.5C 203.38,86.1224 204.547,115.456 191,145.5C 170.802,182.989 139.302,201.156 96.5,200C 55.1712,194.99 27.0045,173.157 12,134.5C 0.0801659,89.5473 12.2468,52.714 48.5,24C 81.8965,2.60032 116.23,0.93365 151.5,19C 157.191,22.5134 162.524,26.5134 167.5,31C 171.747,34.7417 175.414,38.9083 178.5,43.5 Z"/></g>
<g><path style="opacity:1" fill="#f7f7f7" d="M 409.5,64.5 C 417.699,67.5836 419.032,72.417 413.5,79C 404.667,80.8333 401.167,77.3333 403,68.5C 404.792,66.372 406.958,65.0387 409.5,64.5 Z"/></g>
<g><path style="opacity:1" fill="#f7f8f8" d="M 303.5,65.5 C 311.762,63.2833 315.595,66.2833 315,74.5C 311.468,80.2904 307.135,80.957 302,76.5C 299.842,72.4608 300.342,68.7942 303.5,65.5 Z"/></g>
<g><path style="opacity:1" fill="#f9f5f5" d="M 133.5,70.5 C 135.5,70.5 137.5,70.5 139.5,70.5C 129.351,93.4677 119.185,116.468 109,139.5C 96.5624,140.821 84.0624,140.821 71.5,139.5C 78.4113,125.344 85.5779,111.344 93,97.5C 102.67,82.593 116.17,73.593 133.5,70.5 Z"/></g>
<g><path style="opacity:1" fill="#f9f5f4" d="M 155.5,70.5 C 166.5,70.5 177.5,70.5 188.5,70.5C 178.757,93.7147 168.424,116.715 157.5,139.5C 146.5,140.833 135.5,140.833 124.5,139.5C 134.588,116.329 144.921,93.3295 155.5,70.5 Z"/></g>
<g><path style="opacity:1" fill="#f8f8f8" d="M 427.5,96.5 C 428.289,96.7828 428.956,97.2828 429.5,98C 441.5,98.6667 453.5,98.6667 465.5,98C 466,97.5 466.5,97 467,96.5C 468.762,100.684 468.928,105.017 467.5,109.5C 466.692,109.192 466.025,108.692 465.5,108C 461.514,107.501 457.514,107.334 453.5,107.5C 453.334,117.506 453.5,127.506 454,137.5C 454.692,138.025 455.192,138.692 455.5,139.5C 451.153,140.222 446.82,140.888 442.5,141.5C 440.124,140.421 439.957,139.088 442,137.5C 442.5,127.506 442.666,117.506 442.5,107.5C 436.99,107.17 431.657,107.836 426.5,109.5C 426.231,105.069 426.564,100.735 427.5,96.5 Z"/></g>
<g><path style="opacity:1" fill="#f9f9f9" d="M 613.5,96.5 C 614.756,96.4614 615.756,96.9614 616.5,98C 628.167,98.6667 639.833,98.6667 651.5,98C 652.536,96.3831 653.703,96.2164 655,97.5C 655.793,101.423 655.626,105.256 654.5,109C 649.762,107.685 644.762,107.185 639.5,107.5C 639.334,117.506 639.5,127.506 640,137.5C 642,138.833 642,140.167 640,141.5C 636.198,140.194 632.365,140.194 628.5,141.5C 625.812,139.977 625.978,138.643 629,137.5C 629.5,127.506 629.666,117.506 629.5,107.5C 625.154,107.334 620.821,107.501 616.5,108C 615.975,108.692 615.308,109.192 614.5,109.5C 613.508,105.217 613.174,100.884 613.5,96.5 Z"/></g>
<g><path style="opacity:1" fill="#f8f8f8" d="M 401.5,97.5 C 409.417,98.3984 417.083,100.065 424.5,102.5C 423.423,106.382 421.756,110.049 419.5,113.5C 413.344,107.167 406.011,105.333 397.5,108C 395.473,109.396 395.14,111.062 396.5,113C 403.181,113.94 409.847,114.94 416.5,116C 423.974,119.12 426.474,124.62 424,132.5C 419.456,139.417 412.956,142.417 404.5,141.5C 397.25,141.183 390.25,139.85 383.5,137.5C 383.995,132.846 385.828,128.846 389,125.5C 390.52,126.697 391.687,128.197 392.5,130C 399.307,133.015 406.14,133.182 413,130.5C 413.783,128.567 413.283,127.067 411.5,126C 405.104,125.372 398.77,124.372 392.5,123C 384.631,118.721 382.798,112.554 387,104.5C 391.044,100.33 395.878,97.9962 401.5,97.5 Z"/></g>
<g><path style="opacity:1" fill="#f8f8f8" d="M 587.5,97.5 C 596.537,97.9034 604.87,100.403 612.5,105C 610.455,107.586 608.789,110.42 607.5,113.5C 606.675,114.386 605.675,114.719 604.5,114.5C 604.67,113.178 604.337,112.011 603.5,111C 594.165,104.639 585.665,105.473 578,113.5C 574.641,125.12 578.975,131.453 591,132.5C 597.58,132.718 602.413,130.051 605.5,124.5C 607.699,127.718 610.033,130.884 612.5,134C 608.546,135.92 604.546,137.92 600.5,140C 587.378,144.182 576.545,141.016 568,130.5C 562.658,112.367 569.158,101.367 587.5,97.5 Z"/></g>
<g><path style="opacity:1" fill="#f8f8f8" d="M 695.5,97.5 C 717.379,97.8536 725.879,108.52 721,129.5C 715.983,138.093 708.483,142.093 698.5,141.5C 681.221,140.721 673.388,131.721 675,114.5C 678.416,104.574 685.249,98.9077 695.5,97.5 Z M 696.5,106.5 C 710.576,107.317 715.076,114.317 710,127.5C 704.108,132.966 697.608,133.799 690.5,130C 684.322,123.609 683.989,116.942 689.5,110C 691.713,108.384 694.047,107.217 696.5,106.5 Z"/></g>
<g><path style="opacity:1" fill="#f8f8f8" d="M 903.5,97.5 C 912.534,97.9025 920.868,100.402 928.5,105C 927.206,107.087 926.039,109.254 925,111.5C 924.092,113.439 922.592,114.439 920.5,114.5C 920.128,110.957 918.128,108.79 914.5,108C 898.431,104.405 891.931,110.572 895,126.5C 901.511,133.117 909.011,134.284 917.5,130C 919.462,128.379 921.129,126.546 922.5,124.5C 925.307,127.784 927.307,131.451 928.5,135.5C 924.684,136.401 921.017,137.901 917.5,140C 910.167,142 902.833,142 895.5,140C 882.021,131.884 878.854,120.717 886,106.5C 890.878,101.495 896.712,98.4952 903.5,97.5 Z"/></g>
<g><path style="opacity:1" fill="#f7f8f8" d="M 333.5,98.5 C 338.179,98.3342 342.845,98.5008 347.5,99C 348.815,100.395 348.481,101.395 346.5,102C 353.689,108.921 360.522,116.088 367,123.5C 367.167,119.833 367.333,116.167 367.5,112.5C 367.429,108.313 366.762,104.313 365.5,100.5C 365.709,99.914 366.043,99.414 366.5,99C 370.821,98.501 375.154,98.3343 379.5,98.5C 379.688,100.103 379.188,101.437 378,102.5C 377.333,114.167 377.333,125.833 378,137.5C 380,138.833 380,140.167 378,141.5C 373.844,140.436 369.677,140.269 365.5,141C 364.788,139.575 364.621,138.075 365,136.5C 358.102,129.691 351.436,122.691 345,115.5C 344.333,122.833 344.333,130.167 345,137.5C 345.692,138.025 346.192,138.692 346.5,139.5C 342.139,140.455 337.806,140.955 333.5,141C 334.827,126.774 334.827,112.607 333.5,98.5 Z"/></g>
<g><path style="opacity:1" fill="#f8f8f8" d="M 471.5,98.5 C 481.839,98.3335 492.172,98.5002 502.5,99C 512.698,101.879 515.864,108.379 512,118.5C 509.9,121.467 507.066,123.3 503.5,124C 506.388,127.222 508.888,130.722 511,134.5C 512.378,136.213 514.045,137.547 516,138.5C 516.617,139.449 516.451,140.282 515.5,141C 510.206,140.93 504.873,140.43 499.5,139.5C 500.428,138.232 500.595,136.899 500,135.5C 497.132,132.264 494.632,128.764 492.5,125C 489.518,124.502 486.518,124.335 483.5,124.5C 483.231,130.063 483.731,135.397 485,140.5C 480.918,140.311 476.751,140.644 472.5,141.5C 470.124,140.421 469.957,139.088 472,137.5C 472.667,125.5 472.667,113.5 472,101.5C 470.272,100.648 470.105,99.6477 471.5,98.5 Z M 483.5,107.5 C 489.176,107.334 494.843,107.501 500.5,108C 502.725,110.025 503.059,112.358 501.5,115C 495.565,116.239 489.565,116.739 483.5,116.5C 483.5,113.5 483.5,110.5 483.5,107.5 Z"/></g>
<g><path style="opacity:1" fill="#f7f8f7" d="M 518.5,98.5 C 522.833,98.5 527.167,98.5 531.5,98.5C 530.409,108.466 530.242,118.466 531,128.5C 531.374,129.416 531.874,130.25 532.5,131C 537.282,132.728 542.115,132.895 547,131.5C 548.477,130.556 549.477,129.223 550,127.5C 550.91,117.928 550.576,108.594 549,99.5C 553.079,98.3705 557.245,98.2039 561.5,99C 561.957,99.414 562.291,99.914 562.5,100.5C 560.724,110.315 559.891,120.315 560,130.5C 556.658,139.428 550.158,143.095 540.5,141.5C 533.305,142.307 527.139,140.307 522,135.5C 521.138,133.913 520.471,132.246 520,130.5C 520.109,120.315 519.276,110.315 517.5,100.5C 517.863,99.8165 518.196,99.1499 518.5,98.5 Z"/></g>
<g><path style="opacity:1" fill="#f9f9f9" d="M 657.5,98.5 C 662.361,98.0634 667.028,98.5634 671.5,100C 671,100.5 670.5,101 670,101.5C 669.333,113.5 669.333,125.5 670,137.5C 672.043,139.088 671.876,140.421 669.5,141.5C 665.968,140.197 662.468,140.197 659,141.5C 658.075,140.953 657.242,140.287 656.5,139.5C 657.793,133.17 658.46,126.67 658.5,120C 658.333,113.833 658.167,107.667 658,101.5C 656.272,100.648 656.105,99.6477 657.5,98.5 Z"/></g>
<g><path style="opacity:1" fill="#f8f8f8" d="M 727.5,98.5 C 732.5,98.5 737.5,98.5 742.5,98.5C 742.185,100.226 742.019,101.893 742,103.5C 748.699,109.864 755.032,116.531 761,123.5C 761.667,116.167 761.667,108.833 761,101.5C 760.5,101 760,100.5 759.5,100C 763.972,98.5634 768.639,98.0634 773.5,98.5C 773.688,100.103 773.188,101.437 772,102.5C 771.167,114.181 771.334,125.848 772.5,137.5C 774.85,138.774 774.683,140.107 772,141.5C 768.333,140.167 764.667,140.167 761,141.5C 761.238,138.938 760.238,136.604 758,134.5C 751.69,128.522 745.69,122.188 740,115.5C 739.308,116.025 738.808,116.692 738.5,117.5C 739.167,124.833 739.833,132.167 740.5,139.5C 736.623,140.197 732.79,140.864 729,141.5C 728.308,140.975 727.808,140.308 727.5,139.5C 728.798,125.846 728.798,112.179 727.5,98.5 Z"/></g>
<g><path style="opacity:1" fill="#f7f7f8" d="M 812.5,98.5 C 816.846,98.3343 821.179,98.501 825.5,99C 826.784,100.297 826.617,101.464 825,102.5C 824.333,114.167 824.333,125.833 825,137.5C 827,138.833 827,140.167 825,141.5C 821.532,140.197 818.032,140.197 814.5,141.5C 812.124,140.421 811.957,139.088 814,137.5C 814.667,125.833 814.667,114.167 814,102.5C 812.812,101.437 812.312,100.103 812.5,98.5 Z"/></g>
<g><path style="opacity:1" fill="#f8f8f8" d="M 832.5,98.5 C 837.179,98.3342 841.845,98.5008 846.5,99C 847.711,100.113 847.711,101.28 846.5,102.5C 852.517,109.797 859.017,116.797 866,123.5C 866.667,116.5 866.667,109.5 866,102.5C 864.383,101.464 864.216,100.297 865.5,99C 869.5,98.3333 873.5,98.3333 877.5,99C 877.957,99.414 878.291,99.914 878.5,100.5C 877.208,106.662 876.541,112.996 876.5,119.5C 876.387,126.739 876.887,133.739 878,140.5C 873.782,140.264 869.449,140.597 865,141.5C 864.308,140.975 863.808,140.308 863.5,139.5C 864.326,138.549 864.492,137.549 864,136.5C 857.564,129.309 850.898,122.309 844,115.5C 843.333,122.833 843.333,130.167 844,137.5C 846,138.833 846,140.167 844,141.5C 840.179,140.447 836.346,140.28 832.5,141C 833.824,126.833 833.824,112.667 832.5,98.5 Z"/></g>
<g><path style="opacity:1" fill="#f8f8f8" d="M 253.5,97.5 C 260.706,97.5053 267.372,99.3387 273.5,103C 275.134,103.494 276.801,103.66 278.5,103.5C 277.648,106.223 276.481,108.89 275,111.5C 274.092,113.439 272.592,114.439 270.5,114.5C 270.128,110.957 268.128,108.79 264.5,108C 255.264,104.925 248.098,107.425 243,115.5C 241.442,126.276 246.109,131.943 257,132.5C 263.744,132.963 268.744,130.296 272,124.5C 274.712,127.936 276.879,131.603 278.5,135.5C 276.801,135.34 275.134,135.506 273.5,136C 270.465,139.017 266.799,140.683 262.5,141C 250.64,143.506 241.14,140.006 234,130.5C 229.318,119.398 231.484,109.898 240.5,102C 244.788,100.021 249.122,98.5215 253.5,97.5 Z"/></g>
<g><path style="opacity:1" fill="#f8f8f8" d="M 301.5,97.5 C 321.383,97.2121 330.216,106.879 328,126.5C 323.815,137.178 315.981,142.178 304.5,141.5C 287.79,140.953 279.956,132.286 281,115.5C 284.014,104.977 290.848,98.9769 301.5,97.5 Z M 302.5,106.5 C 314.144,106.98 318.978,112.98 317,124.5C 315.73,128.77 312.896,131.27 308.5,132C 298.474,133.811 292.807,129.644 291.5,119.5C 292.183,112.381 295.85,108.047 302.5,106.5 Z"/></g>
<g><path style="opacity:1" fill="#f8f8f8" d="M 781.5,130.5 C 787.735,128.937 791.068,131.27 791.5,137.5C 791.263,142.985 788.763,146.985 784,149.5C 782.72,149.387 781.887,148.72 781.5,147.5C 783.167,145.5 784.833,143.5 786.5,141.5C 780.122,140.456 778.455,136.789 781.5,130.5 Z"/></g>
<g><path style="opacity:1" fill="#f7f7f7" d="M 935.5,130.5 C 940.767,129.185 944.1,131.018 945.5,136C 943.232,141.86 939.399,143.027 934,139.5C 933.068,136.177 933.568,133.177 935.5,130.5 Z"/></g>
<g><path style="opacity:1" fill="#f7f7f7" d="M 244.5,164.5 C 251.564,163.497 256.564,166.164 259.5,172.5C 259,173.881 258,174.547 256.5,174.5C 251.432,168.28 245.932,167.947 240,173.5C 237.343,185.511 241.843,190.011 253.5,187C 254.38,185.644 254.714,184.144 254.5,182.5C 252.167,182.5 249.833,182.5 247.5,182.5C 247.286,180.856 247.62,179.356 248.5,178C 251.89,178.362 255.223,178.362 258.5,178C 259.626,181.744 259.793,185.577 259,189.5C 250.815,194.034 243.149,193.367 236,187.5C 232.352,179.26 233.852,172.093 240.5,166C 242.058,165.79 243.391,165.29 244.5,164.5 Z"/></g>
<g><path style="opacity:1" fill="#f7f7f7" d="M 595.5,164.5 C 609.243,165.085 614.41,172.085 611,185.5C 606.918,191.976 601.085,194.143 593.5,192C 587.655,189.488 584.988,184.988 585.5,178.5C 585.39,171.289 588.723,166.623 595.5,164.5 Z M 595.5,169.5 C 605.145,169.331 608.645,173.997 606,183.5C 601.777,189.552 597.111,189.885 592,184.5C 589.336,178.432 590.502,173.432 595.5,169.5 Z"/></g>
<g><path style="opacity:1" fill="#f7f7f7" d="M 880.5,164.5 C 888.618,164.131 893.785,167.797 896,175.5C 896.409,190.082 889.575,195.249 875.5,191C 869.07,184.738 867.903,177.571 872,169.5C 874.531,167.097 877.364,165.43 880.5,164.5 Z M 879.5,169.5 C 889.834,169.467 893.334,174.467 890,184.5C 885.333,189.833 880.667,189.833 876,184.5C 875.689,182.444 875.189,180.444 874.5,178.5C 874.601,174.485 876.268,171.485 879.5,169.5 Z"/></g>
<g><path style="opacity:1" fill="#f7f7f7" d="M 278.5,165.5 C 285.5,165.5 292.5,165.5 299.5,165.5C 299.67,166.822 299.337,167.989 298.5,169C 293.845,169.499 289.179,169.666 284.5,169.5C 284.5,171.833 284.5,174.167 284.5,176.5C 289.167,176.5 293.833,176.5 298.5,176.5C 298.5,177.833 298.5,179.167 298.5,180.5C 293.833,180.5 289.167,180.5 284.5,180.5C 284.5,182.833 284.5,185.167 284.5,187.5C 289.544,187.173 294.544,187.506 299.5,188.5C 300.711,189.72 300.711,190.887 299.5,192C 292.508,192.5 285.508,192.666 278.5,192.5C 278.5,183.5 278.5,174.5 278.5,165.5 Z"/></g>
<g><path style="opacity:1" fill="#f7f7f8" d="M 318.5,165.5 C 320.604,165.201 322.604,165.534 324.5,166.5C 327.508,171.85 331.008,176.85 335,181.5C 336.766,176.9 336.933,172.233 335.5,167.5C 337.023,165.717 339.023,165.051 341.5,165.5C 341.5,174.5 341.5,183.5 341.5,192.5C 339.208,192.756 337.041,192.423 335,191.5C 331.333,185.833 327.667,180.167 324,174.5C 323.501,180.491 323.334,186.491 323.5,192.5C 321.833,192.5 320.167,192.5 318.5,192.5C 318.5,183.5 318.5,174.5 318.5,165.5 Z"/></g>
<g><path style="opacity:1" fill="#f6f7f6" d="M 400.5,165.5 C 406.509,165.334 412.509,165.501 418.5,166C 422.124,168.161 423.291,171.328 422,175.5C 421.027,177.64 419.527,179.307 417.5,180.5C 420.083,183.997 422.416,187.664 424.5,191.5C 422.5,192.833 420.5,192.833 418.5,191.5C 416.197,187.73 413.531,184.23 410.5,181C 408.866,180.506 407.199,180.34 405.5,180.5C 405.5,184.5 405.5,188.5 405.5,192.5C 403.833,192.5 402.167,192.5 400.5,192.5C 400.5,183.5 400.5,174.5 400.5,165.5 Z M 405.5,169.5 C 408.518,169.335 411.518,169.502 414.5,170C 418.5,172 418.5,174 414.5,176C 411.518,176.498 408.518,176.665 405.5,176.5C 405.5,174.167 405.5,171.833 405.5,169.5 Z"/></g>
<g><path style="opacity:1" fill="#f7f8f7" d="M 448.5,165.5 C 450.604,165.201 452.604,165.534 454.5,166.5C 458.432,174.967 461.765,183.634 464.5,192.5C 462.801,192.66 461.134,192.494 459.5,192C 458.5,189.667 457.5,187.333 456.5,185C 453.183,184.502 449.85,184.335 446.5,184.5C 445.833,187.167 445.167,189.833 444.5,192.5C 442.396,192.799 440.396,192.466 438.5,191.5C 442.036,182.888 445.37,174.221 448.5,165.5 Z M 450.5,172.5 C 452.363,173.967 453.696,175.967 454.5,178.5C 452.579,179.641 450.579,179.808 448.5,179C 450.016,177.103 450.683,174.936 450.5,172.5 Z"/></g>
<g><path style="opacity:1" fill="#f7f8f7" d="M 481.5,165.5 C 483.167,165.5 484.833,165.5 486.5,165.5C 486.5,172.833 486.5,180.167 486.5,187.5C 490.833,187.5 495.167,187.5 499.5,187.5C 499.5,189.167 499.5,190.833 499.5,192.5C 493.5,192.5 487.5,192.5 481.5,192.5C 481.5,183.5 481.5,174.5 481.5,165.5 Z"/></g>
<g><path style="opacity:1" fill="#f7f8f7" d="M 630.5,165.5 C 633.652,164.959 636.152,165.959 638,168.5C 640.606,173.435 643.606,178.102 647,182.5C 647.499,176.843 647.666,171.176 647.5,165.5C 649.167,165.5 650.833,165.5 652.5,165.5C 652.5,174.5 652.5,183.5 652.5,192.5C 649.956,192.896 647.789,192.229 646,190.5C 643.059,185.228 639.726,180.228 636,175.5C 635.501,181.157 635.334,186.824 635.5,192.5C 633.833,192.5 632.167,192.5 630.5,192.5C 630.5,183.5 630.5,174.5 630.5,165.5 Z"/></g>
<g><path style="opacity:1" fill="#e1e1e1" d="M 670.5,165.5 C 677.833,165.5 685.167,165.5 692.5,165.5C 692.5,166.833 692.5,168.167 692.5,169.5C 689.833,169.5 687.167,169.5 684.5,169.5C 684.666,176.841 684.5,184.174 684,191.5C 682.333,192.833 680.667,192.833 679,191.5C 678.188,184.253 678.354,177.086 679.5,170C 676.518,169.502 673.518,169.335 670.5,169.5C 670.5,168.167 670.5,166.833 670.5,165.5 Z"/></g>
<g><path style="opacity:1" fill="#f7f7f7" d="M 710.5,165.5 C 716.509,165.334 722.509,165.501 728.5,166C 732.124,168.161 733.291,171.328 732,175.5C 731.027,177.64 729.527,179.307 727.5,180.5C 730.083,183.997 732.416,187.664 734.5,191.5C 732.579,192.641 730.579,192.808 728.5,192C 726.323,187.979 723.656,184.312 720.5,181C 718.866,180.506 717.199,180.34 715.5,180.5C 715.5,184.5 715.5,188.5 715.5,192.5C 713.833,192.5 712.167,192.5 710.5,192.5C 710.5,183.5 710.5,174.5 710.5,165.5 Z M 715.5,169.5 C 719.548,169.395 723.548,169.728 727.5,170.5C 727.785,172.288 727.452,173.955 726.5,175.5C 722.906,176.426 719.24,176.759 715.5,176.5C 715.5,174.167 715.5,171.833 715.5,169.5 Z"/></g>
<g><path style="opacity:1" fill="#f7f7f7" d="M 759.5,165.5 C 761.5,165.5 763.5,165.5 765.5,165.5C 768.13,174.263 771.463,182.763 775.5,191C 773.647,192.669 771.647,192.835 769.5,191.5C 768.054,189.382 767.387,187.049 767.5,184.5C 764.15,184.335 760.817,184.502 757.5,185C 756.5,187.333 755.5,189.667 754.5,192C 752.866,192.494 751.199,192.66 749.5,192.5C 751.989,183.189 755.322,174.189 759.5,165.5 Z M 761.5,172.5 C 763.293,174.426 764.293,176.759 764.5,179.5C 762.833,179.5 761.167,179.5 759.5,179.5C 759.767,177.035 760.434,174.701 761.5,172.5 Z"/></g>
<g><path style="opacity:1" fill="#f6f6f7" d="M 831.5,165.5 C 838.841,165.334 846.174,165.5 853.5,166C 854.641,166.741 854.641,167.575 853.5,168.5C 850.914,169.48 848.247,169.813 845.5,169.5C 845.5,177.167 845.5,184.833 845.5,192.5C 843.533,192.739 841.699,192.406 840,191.5C 839.993,184.324 840.159,177.157 840.5,170C 837.518,169.502 834.518,169.335 831.5,169.5C 831.5,168.167 831.5,166.833 831.5,165.5 Z"/></g>
<g><path style="opacity:1" fill="#f7f7f7" d="M 914.5,165.5 C 920.509,165.334 926.509,165.501 932.5,166C 936.212,168.513 937.378,172.013 936,176.5C 934.649,178.019 933.149,179.352 931.5,180.5C 934.228,183.899 936.561,187.566 938.5,191.5C 936.5,192.833 934.5,192.833 932.5,191.5C 930.671,187.332 928.004,183.832 924.5,181C 922.866,180.506 921.199,180.34 919.5,180.5C 919.5,184.5 919.5,188.5 919.5,192.5C 917.833,192.5 916.167,192.5 914.5,192.5C 914.5,183.5 914.5,174.5 914.5,165.5 Z M 919.5,169.5 C 922.85,169.335 926.183,169.502 929.5,170C 932.033,171.916 932.033,173.916 929.5,176C 926.183,176.498 922.85,176.665 919.5,176.5C 919.5,174.167 919.5,171.833 919.5,169.5 Z"/></g>
<g><path style="opacity:1" fill="#f5f7f6" d="M 360.5,165.5 C 367.167,165.5 373.833,165.5 380.5,165.5C 380.5,166.833 380.5,168.167 380.5,169.5C 375.5,169.5 370.5,169.5 365.5,169.5C 365.5,171.833 365.5,174.167 365.5,176.5C 370.5,176.5 375.5,176.5 380.5,176.5C 380.67,177.822 380.337,178.989 379.5,180C 374.845,180.499 370.179,180.666 365.5,180.5C 365.5,182.833 365.5,185.167 365.5,187.5C 370.833,187.5 376.167,187.5 381.5,187.5C 381.5,189.167 381.5,190.833 381.5,192.5C 374.5,192.5 367.5,192.5 360.5,192.5C 360.5,183.5 360.5,174.5 360.5,165.5 Z"/></g>
<g><path style="opacity:1" fill="#f8f8f8" d="M 800.5,164.5 C 805.897,163.966 810.397,165.633 814,169.5C 812.927,175.909 810.761,176.075 807.5,170C 803.495,168.902 799.995,169.735 797,172.5C 796.333,176.5 796.333,180.5 797,184.5C 803.172,190.25 808.006,189.25 811.5,181.5C 816.228,183.166 816.728,185.833 813,189.5C 806.667,193.5 800.333,193.5 794,189.5C 788.988,181.611 789.488,174.111 795.5,167C 797.315,166.243 798.981,165.41 800.5,164.5 Z"/></g>
<g><path style="opacity:1" fill="#f7f7f7" d="M 553.5,164.5 C 558.312,164.073 562.478,165.406 566,168.5C 568.337,172.417 567.17,174.417 562.5,174.5C 562.67,173.178 562.337,172.011 561.5,171C 553.543,167.811 549.209,170.478 548.5,179C 548.905,187.129 552.905,189.796 560.5,187C 561.87,185.559 562.87,183.892 563.5,182C 565.464,181.376 567.131,181.876 568.5,183.5C 565.472,191.355 559.805,194.188 551.5,192C 546.802,190.629 544.302,187.463 544,182.5C 542.235,173.688 545.402,167.688 553.5,164.5 Z"/></g>
</svg>
